<svg id="Layer_1" data-name="Layer 1" xmlns="http://www.w3.org/2000/svg" viewBox="0 0 300 300"><defs><style>.cls-1{fill:#b1dcdd;}.cls-2{fill:#ffdb55;}</style></defs><title>Artboard 1</title><path class="cls-1" d="M138.41,199.54l77,.44c8.2,36.47-21,75.91-58,81.36S82.34,260,72.24,224s6.66-77,37.46-98.19"/><path class="cls-2" d="M159.28,165.84a100.3,100.3,0,0,0,47.29-18.79c10.49-7.68,20.06-18.14,23.22-31.65s-2.07-30.24-13.91-35.69c-7-3.24-14.92-2.14-22.37-1l-57,8.78c-11.54,1.78-25.31,2.68-33-7.25-9.4-12.16-2.06-31,8.4-41.51a69.85,69.85,0,0,1,49-20.79"/></svg>