<svg id="Layer_2" data-name="Layer 2" xmlns="http://www.w3.org/2000/svg" viewBox="0 0 1920 1080"><defs><style>.cls-1{fill:#b3dfe1;}.cls-2,.cls-34,.cls-35,.cls-36,.cls-37{fill:#fff;}.cls-3{fill:#b3dcdd;}.cls-33,.cls-4{fill:#ffdb56;}.cls-31,.cls-5{font-size:48px;}.cls-17,.cls-21,.cls-5,.cls-7{fill:#231f20;}.cls-5{font-family:InkFree, Ink Free;}.cls-6{fill:#fdefe6;}.cls-7{font-size:24px;}.cls-21,.cls-7{font-family:QuicksandBook-Regular, Quicksand;}.cls-8{letter-spacing:-0.05em;}.cls-9{letter-spacing:-0.03em;}.cls-10{letter-spacing:-0.03em;}.cls-11{letter-spacing:-0.04em;}.cls-12{fill:#feede5;}.cls-13{fill:#9ad6d0;}.cls-14{fill:#fccbac;}.cls-15,.cls-31{fill:#b4ddde;}.cls-16{fill:#010101;}.cls-18{fill:#b4a9d3;}.cls-19{fill:#fffad7;}.cls-20{fill:#361518;}.cls-21{font-size:30px;}.cls-22{letter-spacing:-0.03em;}.cls-23{letter-spacing:-0.01em;}.cls-24{letter-spacing:-0.02em;}.cls-25{letter-spacing:-0.01em;}.cls-26{letter-spacing:-0.02em;}.cls-27{letter-spacing:-0.02em;}.cls-28{letter-spacing:-0.04em;}.cls-29{letter-spacing:-0.02em;}.cls-30{letter-spacing:-0.09em;}.cls-31,.cls-33{font-family:Mont-HeavyDEMO, Mont;}.cls-32{letter-spacing:-0.01em;}.cls-33{font-size:100px;}.cls-34,.cls-35,.cls-36,.cls-37{isolation:isolate;}.cls-34,.cls-36{font-size:18.25px;}.cls-34{font-family:FontAwesome5FreeSolid, Font Awesome 5 Free;}.cls-35{font-size:17.2px;}.cls-35,.cls-36,.cls-37{font-family:FontAwesome5BrandsRegular, Font Awesome 5 Brands;}.cls-37{font-size:17.78px;}.cls-38{fill:#f9c4b8;}</style></defs><title>website</title><rect class="cls-1" x="1" y="1" width="1809.27" height="982.57"/><rect class="cls-2" x="110.73" y="97.43" width="1698.53" height="885.14"/><path class="cls-3" d="M330.45,169.52l16.54.09c1.76,7.83-4.51,16.3-12.46,17.47s-16.12-4.58-18.29-12.32,1.43-16.54,8-21.09"/><path class="cls-4" d="M334.94,162.28a21.54,21.54,0,0,0,10.16-4,12.16,12.16,0,0,0,5-6.8c.68-2.9-.44-6.49-3-7.67a8.34,8.34,0,0,0-4.8-.21L330,145.46c-2.48.38-5.44.58-7.09-1.56-2-2.61-.44-6.66,1.8-8.92a15,15,0,0,1,10.52-4.47"/><text class="cls-5" transform="translate(361.62 170.46)">SG</text><circle class="cls-6" cx="1215.16" cy="159.69" r="45.25"/><text class="cls-7" transform="translate(1172.33 167.83)">AB<tspan class="cls-8" x="29.76" y="0">O</tspan><tspan class="cls-9" x="49.08" y="0">U</tspan><tspan x="67.9" y="0">T</tspan></text><text class="cls-7" transform="translate(1344.8 167.83)"><tspan class="cls-10">W</tspan><tspan x="25.61" y="0">ORK</tspan></text><text class="cls-7" transform="translate(1500.8 167.83)">B<tspan class="cls-11" x="14.26" y="0">L</tspan><tspan x="26.81" y="0">OG</tspan></text><circle class="cls-12" cx="1248.22" cy="528.6" r="295.34"/><path class="cls-4" d="M1364.16,581.43a27,27,0,0,0,5.89-1.25,66.29,66.29,0,0,0-4.13-6.21A36.41,36.41,0,0,0,1364.16,581.43Z"/><path class="cls-4" d="M1358.91,572.07l-.15.3a63,63,0,0,0,6.65-.9,1,1,0,0,1,1.15-.24,59.74,59.74,0,0,0,14.26-4.93c7-3.5,15.61-8.74,18.4-16.52a96.32,96.32,0,0,1-11.95-5,33.08,33.08,0,0,1-10.62-7.37c-1.52,2.35-3.14,4.63-4.76,6.83-4.43,6.07-9.61,11.88-16.46,15.17a27.84,27.84,0,0,1-4.6,1.73l7.89,9.49A1.2,1.2,0,0,1,1358.91,572.07Z"/><path class="cls-13" d="M1410.63,552.64a2.62,2.62,0,0,1-.62.56,1,1,0,0,1-.45.15,1.23,1.23,0,0,1-.18.33,17.56,17.56,0,0,0-3.09,6h8.59C1414.76,556.86,1412.76,554.6,1410.63,552.64Z"/><path class="cls-13" d="M1419.23,531.12c-9.31-12.17-15.75-32.61-6.36-46.37a81.36,81.36,0,0,1-24.46,4.23c2.4,2.43,5,5,6.68,7.72a1.15,1.15,0,0,1,0,1.15c-1.21,2.06-4.37,1.92-6.83,1.9,1.41,12.8-3.61,24.9-10.35,35.69,3.08,3.66,7.28,5.92,11.59,7.91a70.9,70.9,0,0,0,14.33,5.31,31.86,31.86,0,0,0,26.9-6.2A59.16,59.16,0,0,1,1419.23,531.12Z"/><path class="cls-4" d="M1258.18,505.27l-.09-.14a6.66,6.66,0,0,0-1.34-1.06c.23,1.28.5,2.56.76,3.84.08-.34.18-.71.29-1.12a1,1,0,0,1,.39-1.51Z"/><path class="cls-14" d="M1229.23,448.37v.2l.17.09.3.18A4.58,4.58,0,0,1,1229.23,448.37Z"/><path class="cls-4" d="M1258.48,512.15q.32,1.46.58,2.93a3.6,3.6,0,0,0,.31-1.1A1.7,1.7,0,0,0,1258.48,512.15Z"/><path class="cls-14" d="M1285.68,555.08c3.7-4,5.67-8.55,2.68-14.51-2.53-1-4.75-2.73-7.43-3.7a32.48,32.48,0,0,0-11.79-1.43,1.28,1.28,0,0,1-.11.18,20.4,20.4,0,0,0-3.23,5.71c-.7,1.91-1.52,7.69,2.12,6.7.07-.51.14-1,.2-1.52.17-1.44,2.44-1.46,2.28,0l-.68,5.95-.33,3c-.11,1-.76,2,.57,2,1.62,0,2.28-3,2.55-4.38a16.86,16.86,0,0,0,.21-5.75c-.17-1.46,2.1-1.43,2.28,0a17.8,17.8,0,0,1-1.2,9.1,11.27,11.27,0,0,1-1.55,2.78,1,1,0,0,1-.36.67q2.65,2.28,3.66-.44a13.44,13.44,0,0,0,.83-1.73,23.67,23.67,0,0,0,1.18-3.48,25.79,25.79,0,0,0,.76-7.9c-.08-1.46,2.2-1.46,2.28,0a27.35,27.35,0,0,1-1.46,10.62,18.64,18.64,0,0,1-2.06,4.39c4.55-1.08,6.59-6.62,7.94-10.8.45-1.39,2.65-.76,2.19.61S1286.27,553.72,1285.68,555.08Z"/><path class="cls-14" d="M1259.22,523.58l.44.11a3.31,3.31,0,0,1-.36-.34A1.34,1.34,0,0,1,1259.22,523.58Z"/><path class="cls-4" d="M1388.54,497.41c.76-.05,3.19.19,3.53-.89.11-.32-2.06-2.28-2.28-2.52l-4.36-4.82h0l-.76-.24h-.52q-4.69,4.06-9,8.47A106.59,106.59,0,0,0,1388.54,497.41Z"/><path class="cls-4" d="M1350.33,572.26a7,7,0,0,0,2.32-.18l2.56-.2a1.1,1.1,0,0,1,.76-.06l.6,0,.05-.11-6.51-7.83c-.1,2.5-.2,5-.24,7.52a5.42,5.42,0,0,1-.08,1h0C1349.8,572.31,1349.93,572.11,1350.33,572.26Z"/><path class="cls-14" d="M1242.93,350.13l-1.52-1.6c-.94-1-1.9-2-2.85-3,1.71,2,3.37,4.08,5,6.17Q1243.27,350.89,1242.93,350.13Z"/><path class="cls-14" d="M1251.32,491.21c-.49.07-.49-.83,0-.76l.42,0c-.08-.87-.13-1.74-.2-2.62a.23.23,0,0,1-.15.16,4.32,4.32,0,0,1-1.65,0c.95,4.7,2.07,9.37,3.42,14l.08.26q-.92-5.55-1.43-11.15Z"/><path class="cls-4" d="M1255.48,495.69c.61-2.28,1.52-4.48,1.68-6.57.13-1.45,2.4-1.46,2.28,0-.22,2.51-1.15,4.65-1.77,7.05a8.68,8.68,0,0,0-.36,4.22c.45,1.88,1.46,2.06,2.74,3.16a4.52,4.52,0,0,1,.33.32,10.21,10.21,0,0,0,3.56-6.07c.27-1.44,2.47-.83,2.19.61a12.34,12.34,0,0,1-5,7.71c-.26,1.37-1.32,2.8-.2,5,.71,1.38,1.28,1.13,1,2.87-.19,1-1.24,2.37-1.52,3.27-.86,3.13.43,3.89,2.51,5.64,1.07.9,1.7,1,2,2.56.68,3-.35,5.26,2.59,7.62l.12.12a46.09,46.09,0,0,1,11.51.76c4.38,1,8.07,4.78,12.51,5.13a1.21,1.21,0,0,1,.41.11c4.24-3.83,8.24-8.49,8.34-14.46.12-6.39-3.66-12.14-7.47-17-1.93-2.44-4-4.81-5.86-7.3a.53.53,0,0,1-.67-.51v-.44l-.51-.7.14.61a.76.76,0,0,1-.12.61c.17,3.41.27,6.83.2,10.19,0,.71-1.16.92-1.28.17a126.67,126.67,0,0,1-1.36-12.95,66,66,0,0,1-4.11-16.46c-.14-.36-.3-.71-.48-1.05-2.68-5.45-6.5-10.62-9.82-15.69a33.84,33.84,0,0,0-2.6-3.5q1.94,6.17,3.34,12.51c2.28,10.43,4.4,22.11,3,32.78a.62.62,0,0,1-1.24,0h0c-.76-6.77-1.05-13.49-1.72-20.19-4.43-9.1-7.13-19.33-8.83-29.58a17.39,17.39,0,0,0-5.95-1.87c.14,4.55-.76,9.31-.86,13.77-.17,5.72-.16,11.42.21,17.13C1254.69,488.76,1255,492.23,1255.48,495.69Z"/><path class="cls-14" d="M1246.26,454c.42,3.38.42,6.83.53,10.28a.47.47,0,0,1,.51-.18c1.24.3,2.09-.14,3.22-.51.39-.12.57.36.36.62-.86,1.08-2.62,1.16-3.85.86a.47.47,0,0,1-.21-.12c0,1,.08,2,.16,3q.33,4.22.85,8.4h.09a13.29,13.29,0,0,0,1.35,0c.44,0,.86-.17,1.3-.19a.26.26,0,0,1,.17.43,3.47,3.47,0,0,1-2.81.65c.11.89.24,1.77.38,2.65a4.83,4.83,0,0,1,1.2,0,.3.3,0,0,1,0,.57,4.55,4.55,0,0,1-1.11,0c.26,1.68.53,3.37.84,5a1,1,0,0,1,.65,0,.33.33,0,0,1,0,.63,1,1,0,0,1-.52,0c.08.45.17.89.27,1.33a.26.26,0,0,1,.09-.06,4.33,4.33,0,0,1,1.66,0,.23.23,0,0,1,.14.11c0-.57-.09-1.13-.12-1.7a146.28,146.28,0,0,1,0-18.56c.29-4.19.37-9.06,1.59-13.27C1250.76,454,1248.51,454,1246.26,454Zm4.13,18.86a6.37,6.37,0,0,1-2.37.92.42.42,0,0,1-.22-.8,6.25,6.25,0,0,1,2.4-.58c.2,0,.38.31.18.47Zm-1.78-2.38a3.57,3.57,0,0,1,1.22-.35c.22,0,.4.32.2.48a3.72,3.72,0,0,1-1.25.49c-.39.15-.56-.47-.17-.61Zm2-2.54a2.58,2.58,0,0,1-2.82,1c-.65-.14-.37-1.14.27-1a3,3,0,0,0,2-.53.42.42,0,0,1,.57.58Zm-.64,14.41-.28.17a.49.49,0,1,1,0-.84l.28.17a.3.3,0,0,1,0,.52Zm-.76-20.8a7.45,7.45,0,0,1-1.56.55c-.61.17-.87-.81-.26-.94A7.52,7.52,0,0,1,1249,461a.35.35,0,1,1,.2.68h0Zm1.19-3.12a2.72,2.72,0,0,1-2.59.83c-.42-.07-.25-.76.18-.66a2.73,2.73,0,0,0,2.12-.55c.27-.17.48.18.31.37Zm.15-1.9c-1,.11-2,.16-3,.2a.43.43,0,0,1,0-.86c1,0,2,.09,3,.2a.22.22,0,0,1,0,.45h0Zm.84-2a7.44,7.44,0,0,1-4.63.85c-.17,0-.24-.27,0-.32,1.52-.33,3-.76,4.5-1a.24.24,0,0,1,.21.44Z"/><path class="cls-14" d="M1247,361.88l-.08-.3c-6.31-9-13.35-18.86-22.83-24.51A120.4,120.4,0,0,1,1247,361.88Z"/><path class="cls-14" d="M1245.87,358.13c-.3-.95-.61-1.89-.94-2.84q-2.94-3.94-6.21-7.58A108.77,108.77,0,0,1,1245.87,358.13Z"/><path class="cls-4" d="M1268.85,477.84c-.23-1.37-.48-2.74-.76-4.11a145.42,145.42,0,0,0-4.27-15.64l-.54-.42q.72,3.52,1.59,7C1266,469.13,1267.43,473.49,1268.85,477.84Z"/><path class="cls-14" d="M1218.73,451.2c1.42-.76,2.61-2.64,4-3.6a15.93,15.93,0,0,1,4.46-2.21v-.3a32.84,32.84,0,0,0-3.09,1.26,18.92,18.92,0,0,1-4.47,1.35.67.67,0,0,1-.43-.08,6.55,6.55,0,0,1-2.48.26,9.25,9.25,0,0,1-2.78-.85c-1.73-.45-3.41-1.12-5.15-1.52-.68-.15-1.35-.26-2-.36a30.48,30.48,0,0,1,4.55,3C1213.62,450,1215.28,453,1218.73,451.2Z"/><path class="cls-14" d="M1285.11,471.65c-.19-5-.39-9.94-.64-14.92q-.29,1.58-.65,3.14.14,5.05.33,10.1A15,15,0,0,0,1285.11,471.65Z"/><path class="cls-15" d="M1285.92,440.68c1.15,11.38,2.11,22.88,2.37,34.37.37.28.76.55,1.15.8,11.81-16.27,34.81-26.23,53.59-20.87a61.53,61.53,0,0,1-7.26-26.62,63.12,63.12,0,0,1,2.78-20.93,1.22,1.22,0,0,1-.21-.24c-6.3-9.22-18.09-10.47-28.31-8.89-9.91,1.52-18.67,5.59-24.74,13.8a6.24,6.24,0,0,0-1.46,1.22q.48,3.89.92,7.78A161.61,161.61,0,0,1,1285.92,440.68Z"/><path class="cls-14" d="M1286.14,495q-.2-3.62-.37-7.24c-.19.55-.36,1.09-.53,1.65q.17,2.28.33,4.6C1285.75,494.3,1285.95,494.63,1286.14,495Z"/><path class="cls-14" d="M1283.59,443.19a2.1,2.1,0,0,0,0-.53l0,.09v2A13.75,13.75,0,0,0,1283.59,443.19Z"/><path class="cls-14" d="M1282.38,465.2c-.11.36-.23.71-.35,1.06q.17.63.41,1.24C1282.41,466.73,1282.4,466,1282.38,465.2Z"/><path class="cls-4" d="M1191.12,526a43.73,43.73,0,0,1,10.69,3l9.06,1.33a46.2,46.2,0,0,1,11.93,2.28c1.39.46.76,2.65-.61,2.19a44.37,44.37,0,0,0-13.69-2.22c4.94,3,9.74,6.45,15.47,7.58,4.09.82,8.74.42,12-2.4,2.65-2.28,4.13-5.69,6.52-8.22a25.23,25.23,0,0,1,15.78-7.58h.17a5,5,0,0,1-.21-.52,5.11,5.11,0,0,1-2-2.85c-3-4.49-4.5-10.62-6-15.75a150.31,150.31,0,0,1-3.92-17.1,155.37,155.37,0,0,1-1.9-16.41c-.3-4.95-.71-10.35.14-15.31-4.87,0-9.69-.11-14.09-2.22V452c0,.06,0,.36,0,.17a1,1,0,0,0,.26.58,1,1,0,0,1,.15.66A11.64,11.64,0,0,1,1232,466c-2.28,4.72-7.33,7.4-12.31,8.34-5.37,1-12.07.76-15.82-3.79a9,9,0,0,1-2.06-5.72,1.1,1.1,0,0,1,.14-1.21,5.31,5.31,0,0,1,1.11-2.32,5.37,5.37,0,0,1,1.63-2.12,49.11,49.11,0,0,0-1.11-5.77,25.88,25.88,0,0,1-6.38,5c1.9,8.65,1.27,18.42.86,27.14-.43,9.4-1.09,19.42-3.58,28.53a1.24,1.24,0,0,1-.58.76,9.33,9.33,0,0,1,.19,4.32,1.07,1.07,0,0,1,.14.58A8.58,8.58,0,0,1,1191.12,526Zm43.54-33.29c.2-1,.59-2.06,1.72-2.19a1.43,1.43,0,0,1,1.25.42,1.3,1.3,0,0,1,.25.15c2.28,1,2.68,3.89,2.36,6.2-.27,2-1.59,4.82-4,3.19S1234.17,495.08,1234.66,492.72Zm-23-1.39a1.13,1.13,0,0,1,1.93,0l.21.36a2.21,2.21,0,0,1,.93,2.14,6.51,6.51,0,0,1,.11,4.38c-.17,1.95-.76,3.69-2.21,3.63a2.31,2.31,0,0,1-.5,0c-2.72-.13-2.52-3.6-2.58-5.48s0-4.51,2.11-5Zm-5.53,23.44a5.2,5.2,0,0,1,1.23-2.1,4.32,4.32,0,0,1,2.56-1.73c1.44-.42,2,1.73.61,2.22a4,4,0,0,0-1.07.76,1,1,0,0,1,.38.61c2.14,9,11.54,12.36,19.93,11.63,8.54-.76,15.21-6.74,14.87-15.46a2,2,0,0,1-.35-.27.64.64,0,0,1-.17-.64l.06-.18a1.08,1.08,0,0,1,.17-.32l-.23-.17a.93.93,0,0,1-.42-1,.62.62,0,0,1,.09-.22.93.93,0,0,1,1-.42,4.5,4.5,0,0,1,2.79,3.12.92.92,0,0,1-.58,1.16l-.12,0c-.19,20.25-34.07,23-39.17,3.79a.94.94,0,0,1-1.64-.77Z"/><path class="cls-16" d="M1264.32,582.34a15.47,15.47,0,0,1-.55-6.86c0-.19.23-.24.39-.17a8.07,8.07,0,0,0-1.08-2.89c-1.33-2.09-3.79-3.47-5.87-4.73-2.47-1.52-5.43-2.78-8.24-2.73a37.64,37.64,0,0,1,4.6,21.65,37.17,37.17,0,0,1-2.62,10.79c-.95,2.28-2.09,5.2-4.07,7a28.73,28.73,0,0,0,7-1.1C1262.84,600.69,1264,590.63,1264.32,582.34Z"/><path class="cls-14" d="M1268,585.22a1.85,1.85,0,0,0,.09.39v-.14Z"/><path class="cls-2" d="M1270.38,580.52a1.33,1.33,0,0,0-.29-.16c-.12,0,0-.08-.14,0l-.08.06q.17.36.33.71a.64.64,0,0,0,.33-.3C1270.61,580.7,1270.54,580.65,1270.38,580.52Z"/><path class="cls-2" d="M1270.93,570.71a1,1,0,0,1,.17.62,21.7,21.7,0,0,1-.54,3.49c.08-.15.17-.3.25-.46C1271.15,573.68,1271.89,571.41,1270.93,570.71Z"/><path class="cls-2" d="M1249.66,594.36a35.42,35.42,0,0,0-3.09-29,7,7,0,0,0-1,.46A27,27,0,0,1,1251,584c-.36,7.21-3.36,13.53-7,19.58h0C1247.06,602.18,1248.7,597.2,1249.66,594.36Z"/><path class="cls-2" d="M1244,567.48l-.14.2a.93.93,0,0,1-.55.76q-.64.9-1.26,1.84c2.28,7.32,3.93,15.84,3.32,23.51a.58.58,0,0,1-1.15,0c-1-7.51-1.52-14.92-2.89-22.37a26.62,26.62,0,0,0-2.84,5.9v0a.28.28,0,0,1,.35.19v.05c.51,6.61,1.52,13.11,2.5,19.66,0,.27-.36.4-.43.12a147.19,147.19,0,0,1-2.59-19.5c-1.24,4.44-.16,8.43,1.06,12.77a30.22,30.22,0,0,1,1,4.55c.18,1.52-.76,4.74-.32,6a3.86,3.86,0,0,0,1.52,2l.71-1.21a.37.37,0,0,1,0-.05c-1.52-7.88-1.47-16.37-1.73-24.38,0-.66.94-.63,1,0,.76,7.49,1.81,15.36,1.58,22.93C1248.74,590,1251.87,577.67,1244,567.48Zm-.47,3.19a.37.37,0,0,1,.71-.2c1.6,5.39,3.19,11.05,3.53,16.69a.39.39,0,0,1-.76.11c-1.46-5.44-2.25-11.1-3.49-16.59Z"/><path class="cls-14" d="M1269,583.12l.15.17v-.13Z"/><path class="cls-2" d="M1268.31,589.94a3.91,3.91,0,0,1,.36,1.21q.06.76.17-.11a5,5,0,0,0,.55-2,6.69,6.69,0,0,1-1-1.6.7.7,0,0,1-.58.55C1268,588.67,1268.14,589.3,1268.31,589.94Z"/><path class="cls-4" d="M1339.17,437.79c4.71,22.85,22.75,41.57,44.75,48.54a1.23,1.23,0,0,1,.85.25l.19.06h.11a1,1,0,0,1,1.13,0c25.34.24,50.67-12,65-33.23a47.72,47.72,0,0,0,8.19-20.95,135.89,135.89,0,0,0,.53-20.87c-.22-7-1-14.3-4.33-20.61s-8.78-11.32-13.95-15.93c-21.12-18.73-54-14.6-76.48-.18C1344.84,388,1334.32,414.24,1339.17,437.79Z"/><path class="cls-4" d="M1091.29,347.25a9.8,9.8,0,0,0-1.46-2.48c-.64-1.05-1.33-2.08-2-3.09h-1.52a51.36,51.36,0,0,0-5.07,10.72l8.23-2.35C1090.94,349.63,1091.7,349.1,1091.29,347.25Z"/><path class="cls-4" d="M1088.17,337.24h1.25a1,1,0,0,1,.91.49h4.14a1.23,1.23,0,0,1,.29,0,25.64,25.64,0,0,0,5-.87,1,1,0,0,1,1,.19c19-6.33,32.27-24.87,34.13-45.36,2-22.41-8.53-45.88-27.89-57.83-21.06-13-47.65-8.67-67.39,5-20.9,14.45-19.84,43.16-8.12,63.3s33.46,31.78,56,34.71A1.18,1.18,0,0,1,1088.17,337.24Z"/><path class="cls-4" d="M1335.05,562.5a116.73,116.73,0,0,1,12.51,8.16c0-.27,0-.53.05-.76l.27-8h0A59.28,59.28,0,0,1,1335.05,562.5Z"/><path class="cls-15" d="M1273.2,576.42c7.69-3.94,16-7.76,22.75-13.12.32-.36.65-.71,1-1.08a1,1,0,0,1,.76-.38c.3-.27.6-.52.89-.76,4.29-4,7.64-9.41,7.8-15.41a19,19,0,0,0-2-8.59,1,1,0,0,1-.58-.38A21.55,21.55,0,0,0,1300,533a34.26,34.26,0,0,1-7.87,9.22,1.15,1.15,0,0,1-.61.28c2.16,7.46-2.37,13.14-8.64,18.2a1.15,1.15,0,0,1-.93.25,8.62,8.62,0,0,1-7.58,2.7l-.24-.05c-2.43.76-5.07-1-5.08-3a2.65,2.65,0,0,1-2.21-2.84,50.17,50.17,0,0,1,.72-7.31c-2.55.17-4.51-2-4.8-4.55-.41-3.59,1.44-7.34,3.54-10.34a1.07,1.07,0,0,1-1-1.32,7.88,7.88,0,0,1-2.57-4.75,19.45,19.45,0,0,1-.06-2.4,24.78,24.78,0,0,0-7-1.73q-1.37.47-2.78.81a1.1,1.1,0,0,1-.31.2l-5.31,2.28a1.26,1.26,0,0,1-.3.08l-.52.38c-3,2.4-4.82,5.64-7.24,8.58a14.41,14.41,0,0,1-1.58,1.63,1,1,0,0,1-.34.58l-1.63,1.38a10.18,10.18,0,0,1-1,.89l-.76.71a1.11,1.11,0,0,1-.76.3,10.35,10.35,0,0,1-10.67-.55l-4.19-1.71a1.23,1.23,0,0,1-.36-.24c-4.07-1.8-7.81-4.4-11.64-6.66l-.27-.15a169.24,169.24,0,0,0-27.37-5.57l-.2,0-2.09-.2h-.71a1.24,1.24,0,0,1-.27,0h-2.28a1.17,1.17,0,0,1-.39-.07c-1.39-.08-2.77-.2-4.16-.37a1.23,1.23,0,0,1-.42-.14,33,33,0,0,0-5.13.58,1.21,1.21,0,0,1-.45.14h-.14l-5.62,3a1.15,1.15,0,0,1-.26.35,66,66,0,0,0-6.62,7.07c-.09.24-.19.49-.27.76a1.1,1.1,0,0,1-.85.76,24.7,24.7,0,0,0-4.6,10.66c-.89,6.07,1.78,11.65,4.95,16.75a1,1,0,0,1,.4.45c.16.33.34.65.51,1l1.72,2.62c4.23,6.39,9.49,12.32,17,14.73,7,2.28,14.76,2.73,22.08,3.66a17.13,17.13,0,0,1-.3-4.87,9.71,9.71,0,0,1-7.18,2.91,1.06,1.06,0,0,1-1-1.33,12.84,12.84,0,0,1,5.69-6.9,11.26,11.26,0,0,1-5.7-3.67c-1.63-2-1.94-5.35.49-6.92,2.13-1.37,5.1-.44,6.78,1.24a10.5,10.5,0,0,1,2.28,4.09.56.56,0,0,1,1,.36v.23h0a.16.16,0,0,1,0-.12l.1-.14c1.62-4.1,4.1-7.8,7.93-10a10.22,10.22,0,0,1-1.43-1.59l-1.87-1.36a1.43,1.43,0,0,1-.44-.51l-1.72-.61a7.28,7.28,0,0,1-3.37-2.23c-3.67-4-6.31-7.52-11.6-9.67a1.18,1.18,0,0,1-.56-.46c-.6-.11-1.19-.26-1.77-.39a13.16,13.16,0,0,1-3.83-1.21.64.64,0,0,1,.32-1.19,13.4,13.4,0,0,1,4.07.58c.58.13,1.18.25,1.76.4a1,1,0,0,1,.68,0,26.14,26.14,0,0,1,10.82,7.84c1.3,1.62,2,3.1,4.15,4.05,1.11.49,2.39.62,3.53,1.13a16.21,16.21,0,0,1,5.12,3.7c3.79-.71,10.13-.64,11.38,2.49a4,4,0,0,1,1.83,1.3l.13.06a1.05,1.05,0,0,1,.55,1c1.15,2.28,1.3,5.68,1.17,8.57a7,7,0,0,1,1.19,1.9,10.62,10.62,0,0,1,1.19-.51,19,19,0,0,1,13.47.57c.89-4.36,3.26-8.24,5.85-11.85a8,8,0,0,1,1-3.91,18.41,18.41,0,0,1,4.33-11c3.53-4.19,7.67-7.94,11.51-11.84a1.09,1.09,0,0,1,.54-.31,5.6,5.6,0,0,1,3.22-1.91.76.76,0,0,1,.58,1.38,11.53,11.53,0,0,0-2.23,1.68l-.2.24a1.1,1.1,0,0,1-.3.54l-.59.6c-.2.27-.39.53-.59.76a.52.52,0,0,1-.37.2c-2.51,2.54-5,5.07-7.52,7.64a21.31,21.31,0,0,0-5,7.29,1.24,1.24,0,0,1,0,.3,14.13,14.13,0,0,0-.23,4.66,12.33,12.33,0,0,1,8.52.33c4.16,1.55,9.5,4.55,11.45,8.86a8,8,0,0,1,.76-1.72c1.08-1.81,3.2-3.2,5.26-2.11,3.14,1.66,2.18,5.1.27,8.26Z"/><path class="cls-15" d="M1370.65,542.16q2.28-3.21,4.55-6.64a1,1,0,0,1,.72-1.23h0c6.53-10.41,11.58-22.12,10.06-34.47a111.4,111.4,0,0,1-13.46-.26,1.15,1.15,0,0,1-.8-1.94q4.38-4.62,9.1-8.84c-1.11-.09-2.21-.19-3.31-.33a1.21,1.21,0,0,1-.54-2.21,70.36,70.36,0,0,1-32.38-28.32h0c-20-7.17-46,5.07-56.29,24,0,5.21-.2,10.41-.61,15.58.49.72,1,1.42,1.52,2.11,3.79,5,8.23,9.53,11,15.23a19.07,19.07,0,0,1,1.59,13.71,1.16,1.16,0,0,1,.39.38c3.08,4.7,6.14,9.72,6.4,15.5A20.28,20.28,0,0,1,1307,553a1.15,1.15,0,0,1,.3,0,74.66,74.66,0,0,1,23.51,7.37,1,1,0,0,1,.76-.24c8,.4,16.41.76,23.73-3.12C1361.71,553.62,1366.53,547.91,1370.65,542.16Z"/><path class="cls-14" d="M1195,580l-.07.24v.41Z"/><path class="cls-14" d="M1193.73,475.13l-.71.16a.36.36,0,0,1-.3-.05l-.3.14a.5.5,0,0,1-.61-.1q.36,2.34.71,4.69a1.08,1.08,0,0,1,1,.06.66.66,0,0,1,.33.58.7.7,0,0,1-.49.64.7.7,0,0,0-.36.2.64.64,0,0,1-.21.14c.58,4,1.08,8.06,1.37,12.09.3-2.73.55-5.47.71-8.21.26-4.6.35-9.22.36-13.82v-.57a16.77,16.77,0,0,1-3.12,2.12.53.53,0,0,1-.59,0l.23,1.46a.49.49,0,0,1,.17-.14,13.1,13.1,0,0,1,2.43-1.06c.44-.12.6.44.29.68a7.9,7.9,0,0,1-.93.59h0a.21.21,0,0,1,0,.41Zm.86,1.42a.33.33,0,0,1,0,.56,4.92,4.92,0,0,1-1.68.16.45.45,0,0,1,0-.89,4.92,4.92,0,0,1,1.68.17Z"/><path class="cls-2" d="M1210,599.05a5.82,5.82,0,0,0,1.15-.51c-5.83-.36-7.07-9-6.78-13.43a36,36,0,0,1,2.78-11.74c1-2.4,2.48-6.61,5.31-7.49-.32-.08-.66-.14-1-.2a1.15,1.15,0,0,1-.76.36c-2.54.24-4.81,7.43-5.39,9.29a33.59,33.59,0,0,0-1.52,8.34,28,28,0,0,0,.91,9.06C1205.47,595.43,1207.39,598.4,1210,599.05Z"/><path class="cls-2" d="M1185.32,570.61c-3.32.33-1.37,4.08.23,5.26a14.71,14.71,0,0,0,2.43,1.46l.13.05a10.42,10.42,0,0,1-3.5-4.63c-.27-.68.69-1.1,1.15-.67a54.42,54.42,0,0,1,4.55,4.37C1189.54,573.55,1188.78,570.27,1185.32,570.61Z"/><path class="cls-2" d="M1217.72,575.49c0-2.68-.27-5.22-1.37-6.52l-1-.45a1.35,1.35,0,0,1-.92-.42l-.12-.05a4.12,4.12,0,0,0-1.14.19,1.18,1.18,0,0,1-.35,0c-1.92,1.24-3.44,5.54-4.05,7.16a34.6,34.6,0,0,0-1.69,6.17c-.68,3.87-1.27,9.57,1.57,12.78,1.9,2.15,3.38,2.11,4.46,1.18-.47-8.29,1-17.17,2.4-25.18.09-.53.95-.39.93.13-.23,5.77-.14,11.78-.41,17.7.24-1.21.47-2.41.66-3.62.16-1,.67-3.79.89-6.77l-.26-.24a1.16,1.16,0,0,1-.41-1.55A1.24,1.24,0,0,1,1217.72,575.49Zm-5.95,15.23a.52.52,0,0,1-.47.48c0,.36.08.72.11,1.08.09,1-1.3,1-1.6.22-1.77-4.55-2-10.07-1.62-14.92a.56.56,0,0,1,1.12,0c.3,2.43.71,4.86,1.1,7.29a47.56,47.56,0,0,1,1.57-11.92c.11-.43.83-.35.76.11-.49,5.87-.72,11.77-1,17.66Z"/><path class="cls-14" d="M1199.07,454.18v.07l.33-.2Z"/><path class="cls-14" d="M1197.88,336.18l-.3.15-.27.14-.11.2.76-.42Z"/><path class="cls-14" d="M1192.75,463.09a9.21,9.21,0,0,1-2.28,1.17.64.64,0,0,1-.27,0c.36,2.67.76,5.31,1.18,8a.61.61,0,0,1,.13-.13,15.53,15.53,0,0,1,3.52-1.92.34.34,0,0,1,.2,0c0-1.21-.06-2.42-.1-3.63a.33.33,0,0,1-.1.15c-1,.89-2,1.81-3,2.7a.31.31,0,0,1-.49-.38,7.75,7.75,0,0,1,3-2.9.39.39,0,0,1,.53.18v0c-.08-2.34-.15-4.68-.06-7a38.82,38.82,0,0,0-5.15,2.61,6.16,6.16,0,0,0,.11.83,9.86,9.86,0,0,1,2-1.24,8.14,8.14,0,0,1,2.34-.84c.43-.06.52.5.31.76A8,8,0,0,1,1192.75,463.09Zm.59,2c-.7.61-1.44,1.15-2.18,1.71-.18.14-.36-.17-.18-.3.76-.55,1.43-1.11,2.19-1.62a.13.13,0,0,1,.16.2Z"/><path class="cls-2" d="M1186.45,583.89a8.71,8.71,0,0,0-1.39,1.94,8.64,8.64,0,0,0,5-2.6c-.83.39-1.73.7-2.5,1A1,1,0,0,1,1186.45,583.89Z"/><path class="cls-2" d="M1194.74,584.87h0c-.27.49-1.18.55-1.28-.12v-.18h0a12.82,12.82,0,0,1-.11-1.76l0-.13c-.1.52-.18,1-.24,1.55a4.73,4.73,0,0,0,1.64,3.08C1194.67,586.45,1194.7,585.66,1194.74,584.87Z"/><path class="cls-14" d="M1195.77,575.46a.22.22,0,0,1,0,.06l.11-.14Z"/><path class="cls-14" d="M1194.85,582.37a3.43,3.43,0,0,1-.1.35v.19l.06.15A4.17,4.17,0,0,0,1194.85,582.37Z"/><path class="cls-17" d="M1193.49,590.61a.89.89,0,0,1,.15.39,11.57,11.57,0,0,0,5.51,6,20.26,20.26,0,0,0,6.83,2.33c-2.85-3.09-4.26-8.62-4.44-12.42a35.76,35.76,0,0,1,2.65-15.11c.8-1.95,1.77-4.62,3.38-6.33a15.52,15.52,0,0,0-1.81.07,12.32,12.32,0,0,0-6.67,3.75,17.8,17.8,0,0,0-3.16,4.63,4,4,0,0,1,2-.1.76.76,0,0,1,.32,1.2,10.82,10.82,0,0,0-2.28,2.81c.24,3.63.45,7.27.56,10.91a1,1,0,0,1-1,1l-.24,0a4.55,4.55,0,0,1-2.28-1.26A11.73,11.73,0,0,0,1193.49,590.61Z"/><path class="cls-2" d="M1195.33,575.82a3.11,3.11,0,0,0-.37.45v.48c.11-.18.22-.36.34-.54Z"/><path class="cls-14" d="M1205.28,444.94l-2-.2h0a10.09,10.09,0,0,1,1.14,3.54,51.83,51.83,0,0,1,2.59,11.07h0a6,6,0,0,1,.27,3.13c0,.76.09,1.52.11,2.28a1.14,1.14,0,0,1-2.28,0,6.31,6.31,0,0,0,0-.85,5.13,5.13,0,0,0-1.07.76,7.34,7.34,0,0,0,2.28,5,11.28,11.28,0,0,0,7.24,2.74,22.06,22.06,0,0,0,8.78-1.21c4.41-1.59,8.39-5.78,8.81-10.25a1.18,1.18,0,0,1-.55-.25c-3.79-3-3.88-9.1-3.45-14.41a28,28,0,0,0-6.83,4.76c-1,1-1.9,2.17-3.43,2.28s-2.33-.84-3.35-1.86a36.74,36.74,0,0,0-8-6.23A.31.31,0,0,1,1205.28,444.94Zm16,24.18a26,26,0,0,1,2.28-1.92c.15-.11.33.13.2.26a26,26,0,0,1-2.36,1.84c-.08.11-.21-.09-.11-.15Zm-11.51-.76c.76.3,1.52.76,2.28,1.11a20.7,20.7,0,0,0,2.93,1,.28.28,0,1,1-.15.55,13.82,13.82,0,0,1-5.39-2.13c-.26-.15,0-.63.33-.48Z"/><path class="cls-14" d="M1267.09,580.56a.87.87,0,0,1-.2.08V581Z"/><path class="cls-18" d="M1131,448.53a52.39,52.39,0,0,0-5.78-10,72.77,72.77,0,0,0-7.4-8.54c.57,1.06,1.15,2.12,1.74,3.16A91,91,0,0,0,1131,448.53Z"/><path class="cls-14" d="M1083.88,944.89l.39-1.81a1.09,1.09,0,0,1-.29-.25Q1083.92,943.86,1083.88,944.89Z"/><path class="cls-15" d="M1031.28,510a1.19,1.19,0,0,1,.56.21l.5.05a62.13,62.13,0,0,1-8.72-15.93c-5.67-15.4-5.31-32.61-.2-48.3-7.06-.44-15.11,6.49-19.48,11.31a47,47,0,0,0-10.57,20.09c-3.34,13.1-3,31.92,8.86,40.79C1010.43,512.14,1020.34,508.72,1031.28,510Z"/><path class="cls-15" d="M1030.26,503.18a61,61,0,0,0,5.67,8l.4.17a.9.9,0,0,1,.58,1c11.88,13.65,29.65,22,47.9,20.63a1.13,1.13,0,0,1,1.6,0h0c.63.58,1.23,1.18,1.81,1.8,14.08,1.47,25.79-10.62,35.06-19.87,5.31-5.31,10-11.1,12.07-18.42.23-.76.42-1.58.6-2.37-.45-2.76-.76-5.53-1-8.2q-1.51-15.6-1.73-31.35c-.1-.32-.2-.64-.3-1-7.4-7.9-14.15-16.24-19-26.41-.23-.47-.44-.95-.67-1.42A98.71,98.71,0,0,0,1097.76,415c-12.09-6.83-25.91-7.47-39.33-4.59-13,2.8-21.2,12.19-27.3,23.51C1019.78,455,1017.9,482.1,1030.26,503.18Z"/><path class="cls-4" d="M1031.15,632.14a22.13,22.13,0,0,0-4.21,6.49h9.81A40.11,40.11,0,0,0,1031.15,632.14Z"/><path class="cls-14" d="M1082.67,952.21a1.06,1.06,0,0,1-.19-.42v0l-1-1.1a3.64,3.64,0,0,0,1.12,2.78.94.94,0,0,1,.23-1Z"/><path class="cls-4" d="M1040.63,629.35c10.3-.65,20.1-4.55,27-12.39,6.43-7.34,10.28-16.9,12.14-26.39a67.25,67.25,0,0,0,1-7c.06-1.24.13-2.48.2-3.72a24.48,24.48,0,0,1-.89-3.45,1.2,1.2,0,0,1,.89-1.37,69.61,69.61,0,0,0-11.51-35.79,1,1,0,0,1-.66-.55,20.35,20.35,0,0,0-4.41-5.74,63.78,63.78,0,0,1-29.69-19.77,10.62,10.62,0,0,0-4.41-.73,1,1,0,0,1-.86-.36,38.12,38.12,0,0,0-25.84,8,1.1,1.1,0,0,1-1.15.89c-9.81,7.87-16.77,19.92-19.81,32.15-4.69,18.83-1.24,40.15,11.25,55.37C1005,622.17,1022.87,630.47,1040.63,629.35Z"/><path class="cls-4" d="M1144,480.16c.93,4.68,2.12,9.3,3.28,13.93.27,1.08.58,2.16.92,3.22-.54-8.38-1.18-16.75-2.2-25.11-.56-2.28-1.06-4.61-1.52-6.95l-3.27-3.21C1141.91,468.12,1142.82,474.17,1144,480.16Z"/><path class="cls-14" d="M1145.31,453.09q-.21-1.17-.44-2.33c.09.58.17,1.17.27,1.74Z"/><path class="cls-4" d="M1134,424.68a17.85,17.85,0,0,0-11.56,7,62.5,62.5,0,0,1,10.7,15.93Q1133.25,436.09,1134,424.68Z"/><path class="cls-15" d="M1083.35,544.09c1.16.55,3.61.07,4.82-.12a19,19,0,0,0,3.34-.86,32.25,32.25,0,0,0-4.35-6.2l-1.21-.2C1084.46,538.23,1080.82,542.92,1083.35,544.09Z"/><path class="cls-4" d="M1137.72,455.62c-.05-.76-.11-1.45-.17-2.18-.66-9.63-.86-19.3-.76-29h-.07q-.24,3.75-.39,7.52-.46,11-.28,22Z"/><path class="cls-4" d="M1140.88,458.73l3,2.84c-.54-3.11-1-6.23-1.42-9.33q-1.52-4.9-2.66-9.86c.13,3,.29,6,.51,9Q1140.53,455.06,1140.88,458.73Z"/><path class="cls-4" d="M1138.25,466.93c.91,7.51,1.55,15.23.71,22.75-.08.7-.19,1.37-.3,2q.46,2.87,1.13,5.67a19.05,19.05,0,0,1,6.47,3.13,133.74,133.74,0,0,1-5.12-19.58,205.59,205.59,0,0,1-3.19-22.13l-1.43-1.44A81.91,81.91,0,0,1,1138.25,466.93Z"/><path class="cls-14" d="M1086,949.87l-.17.08q-.24.76-.46,1.58l.33.34A1.06,1.06,0,0,1,1086,953a.92.92,0,0,1,.93.26l.14-.11a2.47,2.47,0,0,0,.83-1.68C1087.9,950.47,1087.15,949.2,1086,949.87Z"/><path class="cls-4" d="M1461.46,433.95a44,44,0,0,1-2.13,8.78,60.19,60.19,0,0,1-10.84,18.07,79.34,79.34,0,0,1-31.67,22.51,1.2,1.2,0,0,1-.2.3c-12.49,13.77-3.94,36.8,6.67,48.91,11.53,13.16,28.34,19.85,45.24,22.75a1.15,1.15,0,0,1,.58-.2l.76-.05a1,1,0,0,1,1.11-.08c6.78-.46,13.74-1.08,20-4,6.49-3,11.56-8.42,15.8-14.07,14.88-19.85,20.34-46.83,9.86-69.94C1506.94,445.74,1484.66,432.64,1461.46,433.95Z"/><path class="cls-4" d="M1467.9,561.86c-.52,1-2.84,4.74-1.79,5.8.81.82,4.47.27,5.6.24a39.81,39.81,0,0,0,4.25-.29,24.82,24.82,0,0,0-5.5-10A40,40,0,0,0,1467.9,561.86Z"/><path class="cls-15" d="M1251.3,951.92l-7.18,10.62-3.79,5.63c-1,1.52-2.71,3.28-3.38,5-.35.89-.92,2.94.09,3.73.59.46,2.62.36,3.41.46,1.93.24,3.86.43,5.79.61q5.8.54,11.63.76,6.18.26,12.38.17c1.77,0,1.92.37,2.67-1.4.65-1.52.25-2.35-.52-3.75a21.83,21.83,0,0,0-3.72-4.55c-5.73-5.86-11.53-11.63-17.29-17.44A1.21,1.21,0,0,1,1251.3,951.92Z"/><path class="cls-14" d="M1250.88,950.41l.15.1v-.08Z"/><path class="cls-15" d="M1409.71,809.36a.87.87,0,0,1,.32-.22,334,334,0,0,0,13-44,173.74,173.74,0,0,0,1.77-62.33,1.22,1.22,0,0,1,0-.41,305.56,305.56,0,0,0-20.48-66.05,1.28,1.28,0,0,1-.07-.2,1,1,0,0,1-.41-.45,116.62,116.62,0,0,0-12.6-19.45,1.13,1.13,0,0,1-.84-.76c-.06-.17-.11-.35-.16-.52-8.39-10.42-18.2-19.83-27.87-28.82-4.35-4.05-8.89-8-13.65-11.73l-.23-.1a1.82,1.82,0,0,1-.52-.48c-12-9.22-25.38-16.58-40.62-18.58a1.2,1.2,0,0,1-1-.76,26.26,26.26,0,0,1-2.84,4.55,33.37,33.37,0,0,1-5.86,5.75,45.51,45.51,0,0,1-4.55,4.46,39.89,39.89,0,0,1,11,.07.9.9,0,0,1,.76.53,9.38,9.38,0,0,1,4.29,2.36c.39.39-.11.88-.54.7a23.84,23.84,0,0,0-3.57-1.29c-.3-.08-.61-.13-.91-.18a1.19,1.19,0,0,1-.62.08,35.65,35.65,0,0,0-18.69,2.28c-3.69,1.52-7.21,3.33-10.9,4.77l-1.82,1a2.08,2.08,0,0,1,.4,1.59,2.53,2.53,0,0,1-1.59,1.84,17.6,17.6,0,0,1,.76,4,10.22,10.22,0,0,1,.36,1.05,1.34,1.34,0,0,1-.33,1.27c-.06,1.81-.32,4.44-2.19,5s-3.11-1.09-3.75-3.36c-.81,4.6-2.47,9.31-6.33,12.18-4.19,3.11-10.89,3.9-15.93,3.28l-.33,0a36.35,36.35,0,0,1,2.53,5,1.18,1.18,0,0,1,.07.76c.2.46.37.92.57,1.36a4.91,4.91,0,0,1,.55,2.67.65.65,0,0,1-.8.45l-.15-.06a4.93,4.93,0,0,1-1.47-2.28c-.2-.53-.44-1.07-.64-1.62l-.08-.14a34.93,34.93,0,0,0-4.44-7.53,4.06,4.06,0,0,1-.76-.76,3.87,3.87,0,0,1-.35-.59,34.89,34.89,0,0,0-2.53-2.65,4.76,4.76,0,0,1-.58-.53c-.19-.17-.38-.36-.58-.52a1,1,0,0,1-.36-.67,4.5,4.5,0,0,1-1.11-3.16c.08-.56.76-.58,1.14-.3a7.21,7.21,0,0,1,1.46,2.28,1.17,1.17,0,0,1,.49.26c.62.54,1.22,1.11,1.81,1.68a23.15,23.15,0,0,0,.29-2.34c.23-5.67-3.12-10.75-2.82-16.45a16.79,16.79,0,0,0-7.76-1.6,16.4,16.4,0,0,0-4.31.76c-.41.13-1.22.59-1.95.95a59.54,59.54,0,0,1-2,9.28,1.09,1.09,0,0,1-1.33.76,19.72,19.72,0,0,1-.91,2.75q.93-1,1.94-2c1.06-1,2.68.6,1.61,1.61a29.28,29.28,0,0,0-8.68,15.6.76.76,0,0,1-.07.62c0,.06-.05.12-.08.18a2.3,2.3,0,0,0-.07.36,1,1,0,0,1-.25.53,8.06,8.06,0,0,0,0,3c.07.44-.48.92-.84.49a4.16,4.16,0,0,1-.83-3.58,1.15,1.15,0,0,1-.33-1,31.55,31.55,0,0,1,2.61-8.34,6.18,6.18,0,0,1-2.73,0c-3.63.61-7.9-.67-11-2.28a14.11,14.11,0,0,1-6.83-6.83c-8.4-1.14-18.13-1.35-26-4.79a1.13,1.13,0,0,1-.71.06,38.53,38.53,0,0,0-25.48,3,1.12,1.12,0,0,1-1,0,37.76,37.76,0,0,0-4.33,2.12.71.71,0,0,1-.86-1.11,8.9,8.9,0,0,1,5.31-3.13,41,41,0,0,1,20.4-4,51.64,51.64,0,0,1-11.07-14.79,63,63,0,0,1-3.47-6.23c-44.38,16.06-78.21,55.79-88.52,101.63a1.07,1.07,0,0,1,.11.84c-3.79,14.93-7.4,30-8.34,45.38-.47,7.42-.56,14.87-.76,22.29-.21,7.8-.89,15.76-.08,23.51a1,1,0,0,1-.08.53,260.23,260.23,0,0,0,22.36,86,1.16,1.16,0,0,1,.08.76,178.88,178.88,0,0,0,75.85,74.47,1.12,1.12,0,0,1,.38.3,263.46,263.46,0,0,0,112.81,29.22,1.18,1.18,0,0,1,.43.1,152.51,152.51,0,0,0,65-19.6,1.1,1.1,0,0,1,.64-.15A264.27,264.27,0,0,0,1376.76,876a1.16,1.16,0,0,1,.14-.3,242.52,242.52,0,0,0,20.4-36.41,1.16,1.16,0,0,1,.12-.58q6.21-12.78,11.32-26.09A5.57,5.57,0,0,1,1409.71,809.36Z"/><path class="cls-19" d="M1232.77,383.67a2.75,2.75,0,0,1,.15-.66,1.46,1.46,0,0,1,1.24-1.11h.32l-.17-.13a9.57,9.57,0,0,0-1.18.34,11.2,11.2,0,0,0-1.29.66,1.26,1.26,0,0,1-.24.11,4.8,4.8,0,0,0-2.07,3.53,1.28,1.28,0,0,1-.05.22v.05l.08.38,3.44,0a3.66,3.66,0,0,1-.55-2.49A3.09,3.09,0,0,1,1232.77,383.67Z"/><path class="cls-14" d="M1179.68,471.37h-.24v.43Z"/><path class="cls-14" d="M1239.83,385.92h-.18a1.28,1.28,0,0,1,0,.23Z"/><path class="cls-4" d="M1178.47,506c2.65,2,4.95,4.63,2.66,7.46a4.6,4.6,0,0,1-2.85,1.62c1,1.81.92,4.15-1.41,5.15a1,1,0,0,1-.3,1.4l-.06,0a3.6,3.6,0,0,1-1.34,1.85,5,5,0,0,1-3.92.76,1.15,1.15,0,0,1-.26.38l-.13.11v.09l13.95.49h1.52a9.53,9.53,0,0,0,4.05-3.28,8.34,8.34,0,0,0,1.44-6.3,1.22,1.22,0,0,1-.17-.17l-4.45-5.68a19.66,19.66,0,0,1-4.6-5.67c-.71-1.29,1.26-2.43,2-1.15a17.78,17.78,0,0,0,3.31,4.37,1,1,0,0,1,.57.38l.33.42a17.5,17.5,0,0,0,1.52,1.12,158.8,158.8,0,0,0-4.11-19.45,1.14,1.14,0,0,1,2.19-.61q1.74,6.29,3,12.68c-.27-5.73-.35-11.48-.86-17.18-.63-7-2.28-14.23-2.6-21.32a15,15,0,0,0-2.1,2.28c-.43.58-.84,1.15-1.24,1.73a4.79,4.79,0,0,1-1.84,2.77c-2.5,3.85-4.8,7.68-8.31,11a42.23,42.23,0,0,0-6,7.25,68.14,68.14,0,0,1,5.11,9C1178.39,498,1182.38,501.27,1178.47,506Z"/><path class="cls-14" d="M1175.75,503.11a.93.93,0,0,1,.48-.11h.3l.11-.06h0v-.07a1.15,1.15,0,0,1,.76-.53c-.21-1.15-1.46-1.93-2.94-2.28A28.4,28.4,0,0,1,1175.75,503.11Z"/><path class="cls-19" d="M1242.46,382.47a5.31,5.31,0,0,1-.76,4.55,9.33,9.33,0,0,0,3-.68,1,1,0,0,1,0-.24,4.55,4.55,0,0,0,.2-2,.83.83,0,0,1,0-.34Z"/><path class="cls-20" d="M1215,419.64a128.31,128.31,0,0,1-14.08,0c1.11,2.66,2.09,5.48,4.93,6.68,2.43,1,7,.94,9.59.8a15,15,0,0,0,10-4.07,23.7,23.7,0,0,0,3.12-4.05C1224.19,420,1219.37,419.54,1215,419.64Z"/><path class="cls-19" d="M1214.2,418.21c4.66-.14,9.75-.89,14.37-.12a.39.39,0,0,1,.33.34l.6-.83h-.23c-4.85,0-9.74-1.55-14.61-1.84a46.17,46.17,0,0,0-14.8,1.76c.27.48.5,1,.76,1.52A112.19,112.19,0,0,1,1214.2,418.21Z"/><path class="cls-19" d="M1192.52,388.21a11.54,11.54,0,0,0-4.21-3c0,.08.08.17.12.25a3.86,3.86,0,0,1,.82,2.54,2.65,2.65,0,0,1-.42,1.37A19.05,19.05,0,0,0,1192.52,388.21Z"/><path class="cls-14" d="M1171.34,425.29c.64,1.19,1.27,2.39,1.91,3.59q2.94,2.68,6.07,5.05a35.65,35.65,0,0,0,4.38,2.42c1.33.46,2.65,1,4,1.52l12.48,3a1.12,1.12,0,0,1,.45.21,29,29,0,0,1,9.69,1.37.27.27,0,0,1,.13.09,3.35,3.35,0,0,1,1.3.47c.41.08.83.18,1.24.3,3.51,1,6.23.49,9.3-.11a2.72,2.72,0,0,1,1.21-.39,3.35,3.35,0,0,1,1.11-.93.82.82,0,0,1,.19-.27,7.58,7.58,0,0,1,3.11-1.64,1.12,1.12,0,0,1,.87-.46h.5a42.74,42.74,0,0,0,11.75-5.61,1,1,0,0,1,.7-.19,1.2,1.2,0,0,1,.24-.17,17.44,17.44,0,0,0,5.2-4.2c.37-2.14.8-4.25,1.24-6.33a135.45,135.45,0,0,0,2.65-37.68,9.81,9.81,0,0,1-3.79,2,4.6,4.6,0,0,1-2.88,2c-2.13.53-4.55.2-6.73.17l-8.65-.13h0a2,2,0,0,1-1-.08,1.25,1.25,0,0,1-.46,0,1.16,1.16,0,0,1-.76-1.4l.39-1.89a.94.94,0,0,1,.27-.47,6.91,6.91,0,0,1,3.88-5,15.06,15.06,0,0,1,9.1-1.46,7.78,7.78,0,0,1,1.18.06,17.32,17.32,0,0,0-3.32-.49A17,17,0,0,0,1227,382c-.39.3-.88-.36-.52-.68,6.22-5.41,16.19-5.65,23-1a1.08,1.08,0,0,1,1.17.13,118.86,118.86,0,0,0-2-11.89l-.18-.08c-.45-.24-.91-.45-1.37-.64a1,1,0,0,1-1,.57h-9.84l-8.86,2-6.36,1.79a1.15,1.15,0,0,1-1.19-1.81,15.08,15.08,0,0,1,.49-2.65,1.12,1.12,0,0,1,.76-.76l17.5-4.1a.89.89,0,0,1,.87-.33,15.69,15.69,0,0,1,5.61,1.75,1,1,0,0,1,.55.72q.8.21,1.59.5a156,156,0,0,0-25.91-28.62l-.71-.28c-1.89,0-3.79.09-5.67.26-4.84.42-11.22.91-15.25,3.94a1,1,0,0,1-1.55-.58,8.2,8.2,0,0,0-.76,1.16c-.68,1.3-2.64.15-2-1.15h0a3,3,0,0,0-.58.83.58.58,0,0,1-.76.25c0,.14-.08.28-.14.42a.83.83,0,0,1-1.52.2.86.86,0,0,1-.22-.1.64.64,0,0,1,0,.29.76.76,0,0,1-1.43.19,5,5,0,0,1-.38-1.32q-.06.61-.08,1.26a.46.46,0,0,1-.9.12,5.31,5.31,0,0,1-.24-1.88.68.68,0,0,1-.16-.3,4.74,4.74,0,0,1-.08-.56,1.09,1.09,0,0,1-.61.28,1.15,1.15,0,0,1-.42,1,3.85,3.85,0,0,1,.35.76c.17.55-.43,1.27-1,1a4.55,4.55,0,0,1-1-.64,3.46,3.46,0,0,1-1,.28c-4.64.55-7.93,5.31-10.48,10a3.9,3.9,0,0,1-.16,1.16c-.4,1.38-.88,2.73-1.41,4.06-.71,3.5-1.12,7-1.52,9.75-.12.76-.24,1.56-.35,2.34a1.16,1.16,0,0,1,.46-.1,21.09,21.09,0,0,1,2-1.16,1.14,1.14,0,0,1,.52-.63c1.8-2,7.06-1.44,10.75-.8a47.26,47.26,0,0,1,9.37,1.27,5.54,5.54,0,0,0,1.93.62,6,6,0,0,1,.76,4.55,1.15,1.15,0,0,1-2.08.27l-.14-.25a1.44,1.44,0,0,1-1-.22,1,1,0,0,1-.4.08,1.05,1.05,0,0,1-.83.1,39.11,39.11,0,0,0-4.7-1h-11c-1.52,0-3.55.41-5.1-.11a.89.89,0,0,1-.86.13c-.61,4.29-1.13,8.59-1.52,12.89a5.1,5.1,0,0,1,1-.36h.08a10.83,10.83,0,0,1,2.21-1.83,13.32,13.32,0,0,1,1.75-1c1.27-1.31,3.33-1.76,5.31-2a5,5,0,0,1,2.15-.42,7,7,0,0,1,.76-.08.37.37,0,0,1,.33.15c3.73-.25,7.43.39,10.17,3.16.37.37-.17.89-.57.57a13.07,13.07,0,0,0-9.59-2.94h-.42l-.3.16h.23a7,7,0,0,1,2.12.56,10.34,10.34,0,0,1,4.38,1.75,13,13,0,0,1,3.79,2.28,1.26,1.26,0,0,1,.76.52l0,.06a4.07,4.07,0,0,1,1,1.2,5.61,5.61,0,0,0,1.13.76,1.15,1.15,0,0,1,.41,1.55,1.17,1.17,0,0,1-1.55.41l-.1-.06a21.82,21.82,0,0,1-8.09,2.28.93.93,0,0,1-.69.44,18.2,18.2,0,0,1-11.13-1.61l-4.5-1.08a.86.86,0,0,1-.41-.1l-.71-.19c-.26,3.45-.43,6.91-.49,10.37a122.39,122.39,0,0,0,1.63,23Zm66.92-32.69c2.47-.36,4.91-1,7.39-1.2a.18.18,0,0,1,0,.35,32.23,32.23,0,0,1-7.4,1.14C1238.13,392.89,1238.08,392.6,1238.26,392.6Zm-17.62,13c.26-.31.71.09.54.41a6,6,0,0,1-1,1.37l.36-.13c.11,0,.15.14,0,.17l-.71.25c-.4.37-.93.76-1.44.49a.49.49,0,0,1-.22-.54c.1-.54.83-.68,1.24-.94A5.14,5.14,0,0,0,1220.64,405.6Zm-4.93.17c0-.81,1.33-1,1.91-1.13a2.43,2.43,0,0,1,1.65,1.16.8.8,0,0,1-.82.78l-.18,0a1.52,1.52,0,0,1-.65-.26l-.33.09a6.62,6.62,0,0,1-1.18.31.52.52,0,0,1-.41-.93Zm-6.79-6.64a4.59,4.59,0,0,1,5.83-1.16c.27.16.09.63-.22.52a5.2,5.2,0,0,0-5.48.76.09.09,0,0,1-.14-.11Zm-.71,6.07c.55-.2,1,.21,1.52.27h.76a1.55,1.55,0,0,1,.76.27.42.42,0,0,1,.16.18,1.74,1.74,0,0,1,.68.6.4.4,0,0,1-.46.58,3.16,3.16,0,0,1-.62-.28,2,2,0,0,1-1.41.35c-.71,0-1.79-.23-2-1.05a.76.76,0,0,1,.51-.94h0Zm-2.8-.4c.09-.33.52-.22.55.08a2.94,2.94,0,0,0,3.16,2.41c.58-.05.58.76.13.93a3,3,0,0,1-3.85-3.48Zm-12.14,10.1a.84.84,0,0,1,.05-.13,2.34,2.34,0,0,1,2.66-.86,1,1,0,0,1,.59,1.46,3.62,3.62,0,0,1-.35.42,6.55,6.55,0,0,0,1,.09c1,0,2-.49,2.94-.37a.5.5,0,0,1,.42.36,32.21,32.21,0,0,1,12.71-1.93c5.13.09,11.56.54,16.33,2.5a.65.65,0,0,1,.3.26l.36-.14c.3-.1.62-.14.93-.21a4.56,4.56,0,0,0,.56-.14.82.82,0,0,0,.39-.21l-.3-.21c-.53-.41-.49-1.62.4-1.52a1.85,1.85,0,0,1,.67.24c.61.22,1.27.05,1.87.28a.78.78,0,0,1,.36,1.33,1.93,1.93,0,0,1-1.59.43,1.6,1.6,0,0,1-.13.21,3.14,3.14,0,0,1-2.52.88,17.66,17.66,0,0,1-16.24,11.05c-3.08.06-9.32.19-12-1.74-2.43-1.78-3.12-6.55-4.08-9.34a.55.55,0,0,1-.23-.36,10.55,10.55,0,0,1-1.21.14,8.13,8.13,0,0,1-4-.76h0l-.22-.09a.94.94,0,0,1,.25-1.68Zm-20.4-21.74a20.79,20.79,0,0,0,6.83,2.17c.27.05.2.46-.06.46a13.65,13.65,0,0,1-7-2.28.22.22,0,1,1,.21-.39h0Z"/><path class="cls-15" d="M1083.08,546.41a3.42,3.42,0,0,1-2.67-1.21c-.93-1.45.08-4,.64-5.35a14,14,0,0,1,2.56-4,1.09,1.09,0,0,1-.11-.47q-2.28.11-4.55,0a1.2,1.2,0,0,1-.12.3,29.06,29.06,0,0,1-4.07,5.42,1.27,1.27,0,0,1-.53,1.55,71.77,71.77,0,0,1,8,22.57C1082.87,559,1083.54,552.64,1083.08,546.41Z"/><path class="cls-19" d="M1174.44,387.45a4,4,0,0,0,.32.33l.12.1.15.11.4.22a1,1,0,0,1,.51.65l.2.05a1,1,0,0,1,.66.46,15.56,15.56,0,0,0,2.8.83,5.42,5.42,0,0,1-2.44-4.29,27.3,27.3,0,0,0-2.84,1.37l.08.13h0Z"/><path class="cls-4" d="M1157.84,525.87a1,1,0,0,1,.55.76l.34-.18c.43-.24.87-.45,1.31-.65a7.58,7.58,0,0,1-1.59-1.45c-3.22-3.91-2.28-9.22-1.27-13.74a1,1,0,0,1,.56-.76,15.29,15.29,0,0,1,.76-2.79h-.2C1154.69,513.47,1150.48,521.85,1157.84,525.87Z"/><path class="cls-14" d="M1157.93,503.2a1.73,1.73,0,0,1-.32-.11l.23.3Z"/><path class="cls-14" d="M1154.88,509l.06.11q.89-1.77,1.78-3.55a31.69,31.69,0,0,1-6.3-11.81q.32,5.21.37,10.43A34.69,34.69,0,0,1,1154.88,509Z"/><path class="cls-15" d="M1145.94,503.06a22.75,22.75,0,0,0-5.46-3.1,46.27,46.27,0,0,0,6.66,14.26c.64.9-.76,1.81-1.46,1.13-4.55-4.22-7.1-9.86-8.6-15.81a.88.88,0,0,1-.49-.17c-3.6,9.15-10.48,16.14-18.07,23.25-7.86,7.36-17.34,14.57-28.22,14.5a34.17,34.17,0,0,1,3.79,6,1.16,1.16,0,0,1-.46,1.58l-.22.09a21.12,21.12,0,0,1-8,1.65h0c.7,9.47-1.27,19.25-1.9,28.69-.09,1.39-.16,2.78-.24,4.16v.2a22,22,0,0,0,11.2,12.43,1.15,1.15,0,0,1,.28.2,139.72,139.72,0,0,1,48.89-30.76,20.93,20.93,0,0,1-1.35-12.21,28.86,28.86,0,0,1,5.72-11.7,22.56,22.56,0,0,1,5.41-8,1.11,1.11,0,0,1,.59-.3,10.89,10.89,0,0,1,1.1-.76,10.37,10.37,0,0,1-2.37-4.26,1.23,1.23,0,0,1,0-.17c-1.9-3.49-1.22-7.94.76-11.89.24-.49.49-1,.76-1.47a1.15,1.15,0,0,1-1.27-.46q-.7-1-1.46-1.92a.93.93,0,0,1-.71.63c-.05,2.59-.17,5.18-.36,7.75a.52.52,0,0,1-1,0q-.31-5.13-.6-10.25-.42-.86-.83-1.75Q1147,503.8,1145.94,503.06Z"/><path class="cls-14" d="M1159.67,522.12a5.44,5.44,0,0,0,3.35,2.52,18.2,18.2,0,0,1,3.64-.7.92.92,0,0,1,.47-.09,2.85,2.85,0,0,0,1.68-.36,28.12,28.12,0,0,1-4.16-2.56c-1.19-.84-.05-2.81,1.15-2a25,25,0,0,0,4.27,2.59,5.31,5.31,0,0,0,2.49.56,2.68,2.68,0,0,0,1.74-1.18,32.69,32.69,0,0,1-3.19-3.27l-3.84-3.34c-1.11-1,.51-2.56,1.61-1.61l2.67,2.28a1,1,0,0,1,.61.38l.5.59.16.14c.48.41.95.83,1.43,1.24a3.07,3.07,0,0,1,1.4.69,2.28,2.28,0,0,0,1-1.06,2,2,0,0,0-1-1.56,1.13,1.13,0,0,1-.5-.93,3.27,3.27,0,0,1-1.2-1.68l-.05-.05a19.83,19.83,0,0,0-4.18-3.12,1.14,1.14,0,0,1,1.15-2,23,23,0,0,1,3.63,2.53l.24.22a.93.93,0,0,1,.58.16l2.93,2,.05,0a2,2,0,0,0,.33-.14c3.79-2-4-6.39-5.42-7.36a1.22,1.22,0,0,1,.09-2c-.41-1.12-.83-2.23-1.31-3.31a14.33,14.33,0,0,0-5.39,1.39,12.14,12.14,0,0,0-6.83,9.47,1.18,1.18,0,0,1-.58.89C1158.53,515,1157.73,519,1159.67,522.12Z"/><path class="cls-4" d="M1171.06,497.69a65.89,65.89,0,0,0-4-7c-2.28,3.79-4.21,7.8-6.28,11.9-.39.76-.87,1.64-1.4,2.57h0A15.17,15.17,0,0,1,1171.06,497.69Z"/><path class="cls-16" d="M1212.16,501.89a2.31,2.31,0,0,0,.5,0c1.47.06,2-1.68,2.21-3.63a6.51,6.51,0,0,0-.11-4.38,2.21,2.21,0,0,0-.93-2.14l-.21-.36a1.13,1.13,0,0,0-1.93,0c-2.13.53-2.18,3.28-2.12,5.07S1209.44,501.76,1212.16,501.89Z"/><path class="cls-16" d="M1236.21,500.5c2.43,1.62,3.79-1.24,4-3.19.32-2.28-.06-5.24-2.36-6.2a1.3,1.3,0,0,0-.25-.15,1.43,1.43,0,0,0-1.25-.42c-1.13.13-1.52,1.21-1.72,2.19C1234.17,495.08,1233.89,498.95,1236.21,500.5Z"/><path class="cls-16" d="M1207.8,515.62c5.1,19.19,39,16.44,39.17-3.79a.92.92,0,0,0,.7-1.19,4.5,4.5,0,0,0-2.79-3.12.93.93,0,0,0-1,.42c0,.07-.07.14-.09.22a.93.93,0,0,0,.42,1l.23.17a1.08,1.08,0,0,0-.17.32l-.06.18a.64.64,0,0,0,.17.64,2,2,0,0,0,.35.27c.35,8.73-6.33,14.72-14.87,15.46-8.39.76-17.79-2.68-19.93-11.63a1,1,0,0,0-.38-.61,4,4,0,0,1,1.07-.76c1.38-.49.83-2.65-.61-2.22a4.32,4.32,0,0,0-2.56,1.73,5.2,5.2,0,0,0-1.23,2.1.94.94,0,0,0,1.64.77Z"/><path class="cls-17" d="M1499.5,442.66a59.92,59.92,0,0,0-37.75-11c.41-3.91.49-7.87.52-11.81.06-7.21.07-14.55-1.62-21.61a38.06,38.06,0,0,0-10.06-17.62c-9.84-10.31-20.62-18-35-19.88-13.65-1.75-27.75,1.2-40.36,6.48a64.28,64.28,0,0,0-35.78,37.6c-6.68-8.54-17.9-10.33-28.28-9-10.88,1.42-20.4,5.61-27.19,14.29a1,1,0,0,0-.37-.09h-.14c-2-15.71-4.32-31.44-6.9-47-1.62-9.86-4.11-19.42-8.68-27.9a25.44,25.44,0,0,0-4.82-7.43,49,49,0,0,0-6.53-6.92A59.51,59.51,0,0,0,1230,302.45c-12.24-6.08-25.61-8.44-38.91-2.94a31.1,31.1,0,0,0-7.54,2.12c-6.55,2.81-12,7.87-14.15,14.66-16.69-8.53-29.06,54.19-30.16,62.85q-.81,6.42-1.12,12.89c-1.35,6.83-2.28,13.74-3,20.52q-.52,4.9-.89,9.86a20.18,20.18,0,0,0-13.3,7.58c-1.9-2-3.9-3.84-6-5.62-4.44-9.21-8-18.92-11.54-28.42a436.2,436.2,0,0,1-13.49-43.56,6.71,6.71,0,0,0,3.5-1.52c2.07-2.36-.67-6.45-2.82-9.28,21.45-1.88,39.19-18.42,44.69-39.24,6.11-23.13-1.7-49.3-19.9-65a56.89,56.89,0,0,0-32.74-13.7c-12.78-.9-25.7,3.3-37,9-10.75,5.45-19.62,13.61-23,25.47-3.32,11.62-2.06,24.4,2.28,35.59,9.56,24.85,32.89,40.26,58.4,44.8a1.05,1.05,0,0,0,1,1,1.18,1.18,0,0,0-.34,1.62,53.75,53.75,0,0,0-5.58,12.58,1.15,1.15,0,0,0,1.4,1.4l7.93-2.23a410,410,0,0,0,23.44,68.32c-.76-.58-1.52-1.14-2.23-1.69a78.7,78.7,0,0,0-17.38-10.1c-6.64-2.62-13.65-3.17-20.74-2.8-6.77.36-13.74,1.13-20.06,3.73-5.88,2.42-10.56,6.57-14.46,11.52a78.36,78.36,0,0,0-12.08,22h-.14c-7.35-.91-15.67,5.72-20.48,10.62a49.23,49.23,0,0,0-12.34,22.37c-3.55,13.95-3,33.17,9.22,42.83a60.31,60.31,0,0,0-17,23.67c-7.8,19.18-6.77,42.21,4.08,60a60,60,0,0,0,41.62,27.67,24.87,24.87,0,0,0-4.93,8.37,1.15,1.15,0,0,0,1.1,1.44h4.47a1.21,1.21,0,0,0-.06.33l-3.31,67.65c-1.07,22-3.09,44.25-1,66.24,2.08,21.63,6.52,43.08,10.15,64.47,3.36,19.83,6,40.08,12.32,59.24A111,111,0,0,0,1062,927.66a185.89,185.89,0,0,0,17.34,20.7,7.26,7.26,0,0,0,1.15,6.07,5.1,5.1,0,0,0,3,1.74,97.49,97.49,0,0,1,4.7,30.92,1.14,1.14,0,0,0,2.28,0,99.63,99.63,0,0,0-2.56-23.28,136.19,136.19,0,0,1,7.35,25.18c.27,1.43,2.47.83,2.19-.61q-.93-4.86-2.18-9.62,2.92,7.84,5.4,15.84c.43,1.4,2.63.8,2.19-.61a300.64,300.64,0,0,0-15-38.68,4.94,4.94,0,0,0,2.28-4.17,3.72,3.72,0,0,0-3.45-3.75c6.21-16.51,21.54-28,29.43-43.68a1.2,1.2,0,0,0,.11-.39,179.6,179.6,0,0,0,25.61,16.49,1.12,1.12,0,0,0,.38.32,266.12,266.12,0,0,0,107.59,30.19,1.14,1.14,0,0,0-.51.42l-12.67,18.76c-1.65,2.45-5.22,7-1.3,9.21,1.74,1,4.66.86,6.52,1.07q5.07.57,10.16.91c7.27.49,14.55.61,21.84.42a1.14,1.14,0,0,0,1-.56c2.5-5-1.16-9.5-4.55-13-5.6-5.72-11.26-11.38-16.9-17.05l2.54.11a1,1,0,0,0,.83.32,155.11,155.11,0,0,0,66.17-19,.89.89,0,0,0,1.06-.08,267.9,267.9,0,0,0,55.52-55.85,1,1,0,0,0,.2-.54,242.3,242.3,0,0,0,17.4-30.52l11.8,7.58a1.06,1.06,0,0,0,.58.18h0a2.75,2.75,0,0,0-2.13,3c.11,1.63,1.47,2.72,3,3.28q1.35,5.69,2.47,11.38a653.14,653.14,0,0,1-9,120.26c-.24,1.43,1.95,2,2.19.61q.87-5.17,1.65-10.35c-.06,1.88-.11,3.79-.1,5.66a1.14,1.14,0,1,0,2.28,0c-.11-22.41,5.19-44.32,6.93-66.58q.61-7.8.71-15.62a301,301,0,0,1-4,78.29c-.27,1.43,1.93,2,2.19.61q.59-3.22,1.1-6.44c-.86,6.88-1.77,13.73-2.7,20.53-.2,1.43,2,2,2.19.61,6.23-45.91,12.44-93.88-1.46-138.87a4.82,4.82,0,0,0,3.3-4.07,5.12,5.12,0,0,0-1.37-4c23-23,32.14-55.69,38.39-86.79a775.64,775.64,0,0,0,14.68-123.06q1.36-35.34-.51-70.7a1.21,1.21,0,0,0-.08-.36,57,57,0,0,0,8.06-.45,1.16,1.16,0,0,0,1.1-1.44,27.12,27.12,0,0,0-5.48-11.17,61,61,0,0,0,15.93-2.85A37.77,37.77,0,0,0,1503.89,544a78.88,78.88,0,0,0,18.31-33.7C1528.51,485.51,1520.71,457.83,1499.5,442.66ZM1031.43,302.22c-11.72-20.14-12.78-48.85,8.12-63.3,19.72-13.65,46.34-18,67.39-5,19.36,11.95,29.91,35.42,27.89,57.8-1.84,20.48-15.17,39-34.13,45.36a1,1,0,0,0-1-.19,25.64,25.64,0,0,1-5,.87,1.23,1.23,0,0,0-.29,0h-4.14a1,1,0,0,0-.86-.54h-1.22a1.18,1.18,0,0,0-.7-.34C1064.89,334,1043.11,322.28,1031.43,302.22Zm49.76,50.19a51.36,51.36,0,0,1,5.1-10.68h1.52c.7,1,1.39,2,2,3.09a10.26,10.26,0,0,1,1.46,2.48c.41,1.85-.34,2.38-1.84,2.81Zm284,22.56c22.47-14.41,55.37-18.54,76.48.18,5.17,4.55,10.72,9.72,13.95,15.93s4.11,13.59,4.33,20.61a136,136,0,0,1-.53,20.87,47.72,47.72,0,0,1-8.19,20.91c-14.34,21.24-39.68,33.47-65,33.23a1,1,0,0,0-1.13,0H1385l-.19-.06a1.23,1.23,0,0,0-.85-.25c-22-7-40-25.73-44.75-48.54-4.85-23.6,5.68-49.86,26-62.91Zm8.34,217.74-5.57-9.57a28.75,28.75,0,0,0,4.07-1.22,1.15,1.15,0,0,0,.68-1.67,69.14,69.14,0,0,0-4.55-7,62.62,62.62,0,0,0,14.94-5.51c.71-.36,1.42-.76,2.13-1.15q1.9,12.78,3,25.65.52,5.95.87,11.91c.12,2,.1,4.15.26,6.23-4.94-5.86-10.29-11.38-15.78-16.72a1,1,0,0,0-.08-1Zm-41.9-32.58a1,1,0,0,0-.76.24,74.66,74.66,0,0,0-23.51-7.37,1.15,1.15,0,0,0-.3,0,20.28,20.28,0,0,0,1.57-8.6c-.26-5.77-3.32-10.79-6.4-15.5a1.16,1.16,0,0,0-.39-.38,19.07,19.07,0,0,0-1.59-13.71c-2.75-5.7-7.21-10.23-11-15.23-.52-.69-1-1.4-1.52-2.11.4-5.17.58-10.36.61-15.58,10.31-19,36.26-31.17,56.29-24h0A70.36,70.36,0,0,0,1377,486.21a1.21,1.21,0,0,0,.54,2.21c1.11.14,2.21.24,3.31.33q-4.75,4.22-9.1,8.84a1.15,1.15,0,0,0,.8,2,111.4,111.4,0,0,0,13.48.29c1.52,12.36-3.53,24.07-10.06,34.47a1,1,0,0,0-.77,1.2v0c-1.47,2.28-3,4.49-4.55,6.64-4.13,5.75-8.94,11.46-15.3,14.82-7.31,3.84-15.72,3.5-23.75,3.09Zm16.26,1.78h0l-.27,8a3.76,3.76,0,0,1-.05.76,116.74,116.74,0,0,0-12.51-8.21,59.28,59.28,0,0,0,12.83-.61Zm-76.25,6.75c-2.06-1.09-4.19.3-5.26,2.11a8,8,0,0,0-.76,1.72c-1.95-4.29-7.3-7.3-11.45-8.86a12.33,12.33,0,0,0-8.49-.38,14.13,14.13,0,0,1,.21-4.63,1.24,1.24,0,0,0,0-.3,21.31,21.31,0,0,1,5-7.29c2.49-2.56,5-5.1,7.52-7.64a.52.52,0,0,0,.37-.2l.59-.76.59-.6a1.1,1.1,0,0,0,.3-.54l.2-.24a11.53,11.53,0,0,1,2.23-1.68.76.76,0,0,0-.58-1.38,5.6,5.6,0,0,0-3.22,1.91,1.09,1.09,0,0,0-.54.31c-3.84,3.9-8,7.65-11.51,11.84a18.29,18.29,0,0,0-4.33,11,8,8,0,0,0-1,3.91c-2.59,3.62-5,7.49-5.85,11.85a19,19,0,0,0-13.47-.57,10.62,10.62,0,0,0-1.19.51,7,7,0,0,0-1.19-1.9c.13-2.89,0-6.29-1.17-8.57a1.05,1.05,0,0,0-.55-1l-.13-.06a4,4,0,0,0-1.83-1.3c-1.24-3.13-7.58-3.2-11.38-2.49a16.21,16.21,0,0,0-5.12-3.7c-1.14-.5-2.41-.64-3.53-1.13-2.17-.95-2.85-2.43-4.15-4.05a26.14,26.14,0,0,0-10.79-7.86,1,1,0,0,0-.68,0c-.58-.15-1.18-.27-1.76-.4a13.4,13.4,0,0,0-4.07-.58.64.64,0,0,0-.32,1.19,13.16,13.16,0,0,0,3.89,1.19c.58.13,1.17.27,1.77.39a1.18,1.18,0,0,0,.56.46c5.31,2.14,7.92,5.62,11.6,9.67a7.28,7.28,0,0,0,3.37,2.23c.61.2,1.18.4,1.72.61a1.43,1.43,0,0,0,.44.51l1.87,1.36a10.22,10.22,0,0,0,1.43,1.59c-3.83,2.18-6.32,5.88-7.93,10l-.1.14a.16.16,0,0,0,0,.12h0v-.23a.56.56,0,0,0-1-.36,10.5,10.5,0,0,0-2.28-4.09c-1.68-1.68-4.65-2.61-6.78-1.24-2.43,1.56-2.12,4.9-.49,6.92a11.26,11.26,0,0,0,5.7,3.67,12.84,12.84,0,0,0-5.69,6.9,1.06,1.06,0,0,0,.76,1.29l.25,0a9.71,9.71,0,0,0,7.18-2.91,17.13,17.13,0,0,0,.3,4.87c-7.32-.93-15.1-1.42-22.08-3.66-7.51-2.41-12.76-8.34-17-14.73l-1.72-2.62-.51-1a1,1,0,0,0-.4-.45c-3.16-5.1-5.84-10.7-4.95-16.75a24.7,24.7,0,0,1,4.6-10.66,1.1,1.1,0,0,0,.85-.76c.08-.25.18-.49.27-.76a66,66,0,0,1,6.62-7.07,1.15,1.15,0,0,0,.26-.35q2.83-1.47,5.62-3h.14a1.21,1.21,0,0,0,.45-.14,33,33,0,0,1,5.13-.58,1.23,1.23,0,0,0,.42.14c1.38.17,2.77.3,4.16.37a1.17,1.17,0,0,0,.39.07h2.28a1.24,1.24,0,0,0,.27,0h.71l2.09.2.2,0a169.24,169.24,0,0,1,27.37,5.57l.27.15c3.79,2.28,7.58,4.86,11.64,6.66a1.23,1.23,0,0,0,.36.24l4.16,1.75a10.35,10.35,0,0,0,10.67.55,1.11,1.11,0,0,0,.76-.3l.76-.71a10.18,10.18,0,0,0,1-.89l1.62-1.47a1,1,0,0,0,.34-.58,14.41,14.41,0,0,0,1.58-1.63c2.42-2.94,4.19-6.18,7.24-8.58.17-.14.35-.25.52-.38a1.26,1.26,0,0,0,.3-.08l5.31-2.28a1.1,1.1,0,0,0,.31-.2q1.41-.34,2.78-.81a24.78,24.78,0,0,1,7,1.73,19.45,19.45,0,0,0,.06,2.4,7.88,7.88,0,0,0,2.57,4.75,1.07,1.07,0,0,0,.79,1.29l.18,0c-2.1,3-3.94,6.75-3.54,10.34.3,2.6,2.28,4.73,4.8,4.55a50.17,50.17,0,0,0-.72,7.31,2.65,2.65,0,0,0,2.21,2.84c0,2.07,2.65,3.79,5.08,3l.24.05a8.62,8.62,0,0,0,7.58-2.7,1.15,1.15,0,0,0,.93-.25c6.27-5.07,10.8-10.76,8.64-18.2a1.15,1.15,0,0,0,.61-.28,34.26,34.26,0,0,0,7.87-9.22,21.55,21.55,0,0,1,3.75,3.69,1,1,0,0,0,.58.38,19,19,0,0,1,2,8.62c-.16,6-3.52,11.42-7.8,15.41a10.31,10.31,0,0,1-.89.76,1,1,0,0,0-.76.38c-.31.37-.64.72-1,1.08-6.72,5.36-15.06,9.19-22.75,13.12l-1.29.49c1.92-3.13,2.89-6.57-.25-8.23Zm-1.08,6.18a21.7,21.7,0,0,0,.54-3.49,1,1,0,0,0-.17-.62c1,.7.22,3-.13,3.65a2.09,2.09,0,0,0-.24.43Zm0,6.07a.64.64,0,0,1-.33.3l-.33-.71.08-.06c.11-.11,0-.06.14,0a1.33,1.33,0,0,1,.29.16c.13.05.2.11.12.28Zm-2.1,6.6a6.69,6.69,0,0,0,1,1.6,5,5,0,0,1-.55,2q-.11.85-.17.11a3.91,3.91,0,0,0-.36-1.21c-.18-.63-.33-1.27-.46-1.9a.7.7,0,0,0,.55-.58Zm-.38-2.28.11.25v.14a1.77,1.77,0,0,1-.14-.42Zm.91-2.1h.14v.13Zm-1.87-2.56-.21.41q0-.16,0-.33a.87.87,0,0,0,.19-.11Zm-25.58-3c-.06-.63-1-.66-1,0,.26,8,.25,16.49,1.73,24.38a.37.37,0,0,0,0,.05l-.71,1.21a3.86,3.86,0,0,1-1.52-2c-.42-1.28.5-4.55.32-6a30.22,30.22,0,0,0-1-4.55c-1.22-4.35-2.28-8.34-1.06-12.77a147.19,147.19,0,0,0,2.57,19.52c.06.29.47.16.43-.12-1-6.55-2-13.05-2.5-19.66a.28.28,0,0,0-.31-.25h-.05v0a26.62,26.62,0,0,1,2.84-5.9c1.34,7.45,1.93,14.86,2.89,22.37a.58.58,0,0,0,1.15,0c.6-7.63-1-16.16-3.32-23.51q.61-.93,1.26-1.84a.93.93,0,0,0,.55-.76l.14-.2c7.91,10.21,4.79,22.55-.86,33,.24-7.57-.81-15.43-1.57-22.93Zm9.51,6.35a27,27,0,0,0-5.5-18.12,7,7,0,0,1,1-.46,35.42,35.42,0,0,1,3.09,29c-.95,2.87-2.59,7.85-5.6,9.17h0c3.59-6.06,6.58-12.39,6.95-19.59Zm-.12,13.44a37.17,37.17,0,0,0,2.62-10.82,37.64,37.64,0,0,0-4.6-21.65c2.81,0,5.77,1.25,8.24,2.73,2.08,1.25,4.55,2.63,5.87,4.73a8.07,8.07,0,0,1,1.08,2.89.27.27,0,0,0-.39.17,15.47,15.47,0,0,0,.55,6.86c-.28,8.29-1.52,18.35-10.5,20.94a28.73,28.73,0,0,1-7,1.1C1248.83,602.62,1250,599.7,1250.93,597.39Zm-33.58-19.83c.1.07.17.16.26.24-.23,3-.76,5.76-.89,6.77-.19,1.21-.42,2.42-.66,3.62.27-5.92.18-11.93.41-17.7,0-.52-.84-.66-.93-.13-1.35,8-2.87,16.89-2.4,25.18-1.09.93-2.56,1-4.46-1.18-2.84-3.21-2.28-8.91-1.57-12.78a34.6,34.6,0,0,1,1.69-6.17c.61-1.62,2.13-5.92,4.05-7.16a1.18,1.18,0,0,0,.35,0,4.12,4.12,0,0,1,1.14-.19l.12.05a1.35,1.35,0,0,0,.92.42l1,.45c1.1,1.3,1.41,3.85,1.37,6.52a1.24,1.24,0,0,0-.76.54,1.16,1.16,0,0,0,.39,1.59Zm-22,12.06a1,1,0,0,0,1.24-.94c-.11-3.64-.32-7.27-.56-10.91a10.82,10.82,0,0,1,2.28-2.81.76.76,0,0,0-.32-1.2,4,4,0,0,0-2,.1,17.8,17.8,0,0,1,3.16-4.63,12.32,12.32,0,0,1,6.67-3.75,15.52,15.52,0,0,1,1.81-.07c-1.61,1.71-2.59,4.38-3.38,6.33a35.76,35.76,0,0,0-2.65,15.11c.18,3.79,1.59,9.31,4.44,12.42a20.26,20.26,0,0,1-6.83-2.33,11.57,11.57,0,0,1-5.51-6,.89.89,0,0,0-.15-.39,11.73,11.73,0,0,1-.5-2.22,4.55,4.55,0,0,0,2.34,1.27Zm-2.28-5.48c.06-.51.14-1,.24-1.55l0,.13a12.82,12.82,0,0,0,.11,1.76h0v.18c.1.67,1,.61,1.28.12h0c0,.76-.08,1.59-.11,2.38a4.73,4.73,0,0,1-1.64-3Zm1.77-1.45a3.43,3.43,0,0,0,.1-.35v.7l-.06-.15a.21.21,0,0,1-.06-.18Zm.17-6v-.48a3.11,3.11,0,0,1,.37-.45v.39a3.79,3.79,0,0,0-.39.55ZM1195,580l0,.66v-.41Zm.76-4.55.14-.08-.11.14-.06,0Zm8.9,17.29a28,28,0,0,1-.88-9,33.59,33.59,0,0,1,1.52-8.34c.58-1.87,2.84-9.06,5.39-9.29a1.15,1.15,0,0,0,.76-.36c.36.05.71.12,1,.2-2.81.88-4.28,5.08-5.31,7.49a36,36,0,0,0-2.78,11.74c-.29,4.44,1,13.07,6.78,13.43a5.82,5.82,0,0,1-1.15.51C1207.39,598.4,1205.47,595.43,1204.71,592.75Zm-19-20.67c-.46-.43-1.42,0-1.15.67a10.42,10.42,0,0,0,3.5,4.63l-.13-.05a14.71,14.71,0,0,1-2.43-1.46c-1.59-1.18-3.55-4.93-.23-5.26,3.49-.34,4.19,2.94,5,5.84A54.42,54.42,0,0,0,1185.75,572.08Zm4.29,11.15a8.64,8.64,0,0,1-5,2.6,8.71,8.71,0,0,1,1.39-1.94,1,1,0,0,0,1.08.33c.77-.29,1.68-.59,2.5-1Zm3.69-108.51h0a7.9,7.9,0,0,0,.93-.59c.31-.24.15-.8-.29-.68a13.1,13.1,0,0,0-2.43,1.06.49.49,0,0,0-.17.14l-.23-1.46a.53.53,0,0,0,.59,0,16.77,16.77,0,0,0,3.12-2.12v.57c0,4.61-.11,9.22-.36,13.82-.15,2.75-.41,5.49-.71,8.21q-.44-6.05-1.37-12.09a.64.64,0,0,0,.21-.14.7.7,0,0,1,.36-.2.7.7,0,0,0,.49-.64.66.66,0,0,0-.33-.58,1.08,1.08,0,0,0-1-.06q-.35-2.34-.71-4.69a.5.5,0,0,0,.58.09l.3-.14a.36.36,0,0,0,.3.05l.71-.16a.21.21,0,0,0,0-.39Zm.66-14a8.14,8.14,0,0,0-2.34.84,9.86,9.86,0,0,0-2,1.24,6.16,6.16,0,0,0-.11-.83,38.82,38.82,0,0,1,5.15-2.61c-.09,2.32,0,4.66.06,7a.39.39,0,0,0-.51-.22h0a7.75,7.75,0,0,0-3,2.9.31.31,0,0,0,.49.38c1-.89,2-1.8,3-2.7a.33.33,0,0,0,.1-.15c0,1.21.08,2.43.1,3.63a.34.34,0,0,0-.2,0,15.53,15.53,0,0,0-3.52,1.92.61.61,0,0,0-.13.13c-.42-2.68-.82-5.35-1.18-8a.64.64,0,0,0,.27,0,9.21,9.21,0,0,0,2.28-1.17,8,8,0,0,0,2-1.58c.16-.28.11-.83-.35-.78Zm-.17,58.93a1.07,1.07,0,0,0-.14-.58,9.33,9.33,0,0,0-.19-4.32,1.24,1.24,0,0,0,.58-.76c2.49-9.1,3.15-19.13,3.58-28.53.4-8.71,1-18.48-.86-27.14a25.88,25.88,0,0,0,6.38-5,49.11,49.11,0,0,1,1.11,5.77,5.37,5.37,0,0,0-1.63,2.12,5.31,5.31,0,0,0-1.11,2.32,1.1,1.1,0,0,0-.14,1.21,9,9,0,0,0,2.06,5.72c3.75,4.55,10.46,4.85,15.82,3.79,5-1,10-3.63,12.31-8.34a11.64,11.64,0,0,0-1.19-12.55,1,1,0,0,0-.15-.66,1,1,0,0,1-.26-.58v-.32c4.41,2.11,9.22,2.28,14.09,2.22-.84,5-.42,10.37-.14,15.31a155.37,155.37,0,0,0,1.9,16.41,150.31,150.31,0,0,0,4,17.1c1.52,5.13,3,11.26,6,15.75a5.11,5.11,0,0,0,2,2.85,4.45,4.45,0,0,0,.21.52h-.17a25.23,25.23,0,0,0-15.78,7.58c-2.39,2.54-3.87,5.95-6.52,8.22-3.28,2.81-7.92,3.22-12,2.4-5.73-1.15-10.54-4.55-15.47-7.58a44.37,44.37,0,0,1,13.68,2.21c1.4.46,2-1.74.61-2.19a46.2,46.2,0,0,0-11.93-2.28l-9.06-1.33a43.73,43.73,0,0,0-10.69-3,8.58,8.58,0,0,0,3.13-6.34Zm4.85-65.5.32-.13-.33.24Zm14.41-2.65c1,1,1.81,2,3.35,1.86s2.4-1.28,3.43-2.28a28,28,0,0,1,6.83-4.76c-.43,5.31-.31,11.38,3.45,14.41a1.18,1.18,0,0,0,.55.25c-.42,4.47-4.38,8.67-8.81,10.25a22.06,22.06,0,0,1-8.78,1.21,11.28,11.28,0,0,1-7.24-2.74,7.34,7.34,0,0,1-2.28-5,5.13,5.13,0,0,1,1.07-.76,6.43,6.43,0,0,0,0,.85,1.14,1.14,0,0,0,2.28,0c0-.76-.06-1.52-.11-2.28a6,6,0,0,0-.28-3.18h0a51.83,51.83,0,0,0-2.61-11.06,10.09,10.09,0,0,0-1.14-3.54h0l2,.2a.31.31,0,0,0,.17.29,36.74,36.74,0,0,1,8,6.29Zm-6.68-6.37c.68.1,1.36.2,2,.36,1.74.39,3.42,1.06,5.15,1.52a9.25,9.25,0,0,0,2.78.85,6.55,6.55,0,0,0,2.48-.26.67.67,0,0,0,.43.08,18.92,18.92,0,0,0,4.47-1.35,32.84,32.84,0,0,1,3.09-1.26v.3a15.93,15.93,0,0,0-4.46,2.21c-1.38,1-2.57,2.88-4,3.6-3.45,1.76-5.11-1.18-7.4-3a30.48,30.48,0,0,0-4.64-3Zm22.45,3.41v-.2c.15.16.3.33.46.47l-.3-.18-.2-.09Zm28.54,58.21c-.11.41-.21.76-.29,1.12-.28-1.28-.55-2.56-.76-3.84a6.66,6.66,0,0,1,1.34,1.06l.09.14a1,1,0,0,0-.39,1.51Zm1.56,7.21a3.6,3.6,0,0,1-.31,1.1q-.27-1.47-.58-2.93a1.7,1.7,0,0,1,.9,1.81Zm.3,9.69-.44-.11a1.34,1.34,0,0,0,.08-.24,3.31,3.31,0,0,0,.37.36ZM1285,550.43c-1.34,4.18-3.42,9.72-7.94,10.8a18.64,18.64,0,0,0,2.06-4.39,27.35,27.35,0,0,0,1.46-10.62c-.08-1.46-2.35-1.46-2.28,0a25.79,25.79,0,0,1-.75,7.93,23.66,23.66,0,0,1-1.21,3.5,13.44,13.44,0,0,1-.83,1.73q-1,2.73-3.66.44a1,1,0,0,0,.36-.67,11.27,11.27,0,0,0,1.55-2.78,17.8,17.8,0,0,0,1.2-9.1c-.17-1.43-2.45-1.46-2.28,0a16.86,16.86,0,0,1-.21,5.75c-.31,1.4-.93,4.39-2.55,4.38-1.35,0-.68-.93-.57-2l.33-3,.68-5.95c.17-1.46-2.11-1.44-2.28,0-.06.5-.12,1-.2,1.52-3.64,1-2.81-4.79-2.12-6.7a20.4,20.4,0,0,1,3.23-5.71,1.28,1.28,0,0,0,.11-.18c4-.07,8,.07,11.79,1.43,2.68,1,4.89,2.68,7.43,3.7,3,6,1,10.54-2.68,14.51.59-1.36,1.08-2.75,1.52-4s-1.73-2-2.18-.63Zm99.14-61.5h.52l.76.24h0l4.38,4.85c.23.25,2.38,2.19,2.28,2.52-.35,1.08-2.77.83-3.53.89a106.59,106.59,0,0,1-13.44,0Q1379.44,493,1384.12,488.93Zm-34.28,82.41c0-2.5.14-5,.24-7.52l6.51,7.83-.05.11-.6,0a1.1,1.1,0,0,0-.76.06l-2.56.2a6.84,6.84,0,0,1-2.32.18c-.38-.15-.51,0-.53.1h0A5.42,5.42,0,0,0,1349.84,571.34Zm4.55,2.88a1,1,0,0,0,1,.61l2,3.74q-2.4-2.07-4.86-4.07c.66-.12,1.31-.24,1.85-.29Zm-3.51-13a27.84,27.84,0,0,0,4.6-1.73c6.83-3.31,12-9.16,16.46-15.17,1.62-2.21,3.23-4.5,4.76-6.83a32.91,32.91,0,0,0,10.62,7.37,96.32,96.32,0,0,0,11.95,5c-2.79,7.78-11.38,13-18.4,16.52a59.74,59.74,0,0,1-14.26,4.93,1,1,0,0,0-1.15.24,63,63,0,0,1-6.65.9l.15-.3a1.2,1.2,0,0,0-.17-1.38Zm19.19,19a27,27,0,0,1-5.88,1.24,36.41,36.41,0,0,1,1.75-7.46,66.3,66.3,0,0,1,4.11,6.22Zm-6.55-6.07a38.63,38.63,0,0,0-1.68,8l-4-7.33q2.81-.2,5.62-.63Zm2.34,9.41a1.07,1.07,0,0,0,.14.76l2.72,4.67q-2.76-2.59-5.54-5.13,1.33-.12,2.65-.31Zm21.5-18.2c6-3.6,11.79-8.41,14.08-14.9,1.05.29,2.12.55,3.19.76a33.49,33.49,0,0,0,3.88.5v0a.93.93,0,0,0-.68.39,20.25,20.25,0,0,0-4.06,8.45,1.15,1.15,0,0,0,1.1,1.44h4.36l0,.13c-6.83,28.82,2.64,57.84,2.81,86.85q-2.67-6.95-5.67-13.78a1,1,0,0,0-.41-.48,1.27,1.27,0,0,0-.07-.17,120.71,120.71,0,0,0-13.55-20.75c-1-3.79-.76-8.1-1-11.94q-.41-6.33-1-12.65-1.21-12-3-23.88Zm19-5.6a17.56,17.56,0,0,1,3.09-6,1.23,1.23,0,0,0,.18-.33,1,1,0,0,0,.45-.15,2.62,2.62,0,0,0,.62-.56c2.13,1.92,4.12,4.18,4.25,7.05Zm-2.42-11a74.74,74.74,0,0,1-14.33-5.31c-4.31-2-8.51-4.25-11.59-7.91,6.75-10.79,11.77-22.89,10.35-35.69,2.42,0,5.58.15,6.83-1.9a1.15,1.15,0,0,0,0-1.15c-1.65-2.77-4.28-5.31-6.68-7.72a81.36,81.36,0,0,0,24.46-4.23c-9.38,13.78-3,34.2,6.36,46.37a59.16,59.16,0,0,0,11.42,11.31,31.86,31.86,0,0,1-26.86,6.24ZM1284.64,412.54a1.16,1.16,0,0,0,.64-.44c6.07-8.21,14.83-12.26,24.74-13.8,10.22-1.59,22-.34,28.31,8.89a1.22,1.22,0,0,0,.21.24,63.12,63.12,0,0,0-2.78,20.93A61.53,61.53,0,0,0,1343,455c-18.79-5.36-41.78,4.6-53.59,20.87-.4-.25-.76-.52-1.15-.8-.26-11.49-1.22-23-2.37-34.37a161.61,161.61,0,0,0-1.18-19.58q-.44-3.89-.92-7.78A1.15,1.15,0,0,0,1284.64,412.54Zm1.12,75.18q.17,3.62.37,7.24-.3-.5-.57-1-.16-2.28-.33-4.6c.17-.55.34-1.1.53-1.65Zm-.93-3.92c-.17-2.38-.32-4.76-.42-7.13,0-.76-.06-1.52-.09-2.28q.45.53.93,1l.27,6.89c-.24.49-.48,1-.7,1.49Zm-.36-27.06c.25,5,.45,9.94.64,14.92a15,15,0,0,1-1-1.67q-.19-5.05-.33-10.1.36-1.58.65-3.16Zm-.88-14.08a2.1,2.1,0,0,0,0,.53q0,.76-.06,1.58v-2Zm-1.21,22.55c0,.76,0,1.52.06,2.28a12.21,12.21,0,0,1-.41-1.24c.11-.34.23-.7.34-1.05Zm-1.52,4.33a15.42,15.42,0,0,0,1.76,2.79c.06,1.7.11,3.4.18,5.1.11,3,.2,6,.28,9a32.81,32.81,0,0,0-1.08-5.07c-.09-.27-.2-.55-.3-.83a5.82,5.82,0,0,1-.18-1.06c-.46-3-.76-6.14-.93-9.23a5.32,5.32,0,0,1,.25-.72Zm-17-11.45a145.43,145.43,0,0,1,4.24,15.66c.3,1.37.55,2.74.76,4.11-1.43-4.35-2.85-8.71-4-13.18-.59-2.32-1.11-4.65-1.59-7Zm-9.59,10c.14-4.46,1-9.24.86-13.77a17.39,17.39,0,0,1,5.95,1.87c1.7,10.25,4.4,20.48,8.83,29.58.68,6.7,1,13.42,1.72,20.19a.62.62,0,1,0,1.24,0h0c1.37-10.67-.76-22.35-3-32.78q-1.39-6.33-3.34-12.51a33.84,33.84,0,0,1,2.6,3.5c3.32,5.09,7.14,10.24,9.82,15.69.17.35.33.7.48,1.05a66,66,0,0,0,4.11,16.46,126.67,126.67,0,0,0,1.36,12.95c.12.76,1.27.54,1.28-.17.07-3.39,0-6.83-.2-10.19a.76.76,0,0,0,.12-.61l-.14-.61.51.7v.44a.53.53,0,0,0,.54.53l.13,0c1.87,2.5,3.93,4.86,5.86,7.3,3.79,4.83,7.58,10.62,7.47,17-.11,6-4.12,10.62-8.34,14.46a1.21,1.21,0,0,0-.41-.11c-4.44-.36-8.12-4.09-12.51-5.13a43.46,43.46,0,0,0-11.51-.76l-.12-.12c-2.94-2.36-1.91-4.63-2.59-7.62-.35-1.52-1-1.65-2-2.56-2.09-1.76-3.38-2.52-2.51-5.64.24-.89,1.29-2.22,1.52-3.27.32-1.74-.25-1.52-1-2.87-1.11-2.16-.05-3.59.2-5a12.34,12.34,0,0,0,5-7.72c.27-1.43-1.92-2-2.19-.61a10.21,10.21,0,0,1-3.56,6.07,4.52,4.52,0,0,0-.33-.32c-1.28-1.09-2.28-1.28-2.74-3.16a8.68,8.68,0,0,1,.36-4.22c.62-2.4,1.55-4.55,1.77-7.05.13-1.46-2.15-1.45-2.28,0a41,41,0,0,1-1.68,6.57c-.44-3.46-.76-6.93-1-10.41C1254.1,479.57,1254.08,473.87,1254.25,468.15Zm-1.11,33.93c-1.35-4.6-2.47-9.28-3.42-14a4.32,4.32,0,0,0,1.65,0,.23.23,0,0,0,.15-.16c.06.87.12,1.74.2,2.62l-.42,0c-.49-.06-.49.83,0,.76l.49-.05q.51,5.6,1.43,11.15Zm-.16-47.92c-1.22,4.22-1.3,9.1-1.59,13.27a146.28,146.28,0,0,0,0,18.56c0,.57.08,1.13.12,1.7a.23.23,0,0,0-.14-.11,4.33,4.33,0,0,0-1.66,0s-.06,0-.09.06c-.09-.45-.18-.89-.27-1.33a1,1,0,0,0,.52,0,.33.33,0,0,0,0-.63,1,1,0,0,0-.65,0q-.47-2.51-.84-5a4.55,4.55,0,0,0,1.11,0,.3.3,0,0,0,0-.57,4.83,4.83,0,0,0-1.2,0c-.13-.89-.26-1.77-.38-2.65a3.47,3.47,0,0,0,2.81-.65.26.26,0,0,0-.17-.43c-.44,0-.86.17-1.3.19a13.29,13.29,0,0,1-1.35,0h-.09q-.52-4.19-.85-8.4c-.08-1-.12-2-.16-3a.47.47,0,0,0,.21.12c1.23.3,3,.22,3.85-.86.21-.27,0-.76-.36-.62-1.14.36-2,.81-3.22.51a.47.47,0,0,0-.51.18c-.11-3.44-.11-6.91-.53-10.28a55.66,55.66,0,0,1,6.75,0Zm-7.11-96a108.77,108.77,0,0,0-7.14-10.44q3.27,3.66,6.21,7.58c.33,1,.64,1.9.93,2.85Zm-4.43-9.63,1.52,1.6q.33.76.65,1.55c-1.63-2.09-3.28-4.15-5-6.17.93,1,1.89,2,2.83,3Zm5.48,13.08.08.3a120.4,120.4,0,0,0-22.91-24.81c9.44,5.65,16.51,15.51,22.82,24.51Zm-49.61-25.11.27-.14.3-.15.11.07-.76.42Zm-28.71,63.46c.05-3.46.24-6.92.49-10.37l.62.15a.86.86,0,0,0,.41.1l4.5,1.08a18.2,18.2,0,0,0,11.13,1.59.93.93,0,0,0,.69-.44,21.82,21.82,0,0,0,8.09-2.28l.1.06a1.17,1.17,0,0,0,1.55-.41,1.15,1.15,0,0,0-.41-1.55,5.61,5.61,0,0,1-1.13-.76,4.07,4.07,0,0,0-1-1.2l0-.06a1.26,1.26,0,0,0-.76-.52,13,13,0,0,0-3.79-2.28,10.34,10.34,0,0,0-4.38-1.75,7,7,0,0,0-2.12-.56h-.23l.3-.16h.42a13,13,0,0,1,9.59,2.94c.39.33.93-.19.57-.57-2.75-2.78-6.44-3.41-10.17-3.16a.37.37,0,0,0-.33-.15,7,7,0,0,0-.76.08,5,5,0,0,0-2.15.42c-1.95.27-4,.71-5.31,2a13.32,13.32,0,0,0-1.75,1,10.83,10.83,0,0,0-2.21,1.83h-.08a5.1,5.1,0,0,0-1,.36c.41-4.32.93-8.62,1.52-12.89a.89.89,0,0,0,.86-.13c1.52.52,3.61.11,5.1.11H1188a39.11,39.11,0,0,1,4.7,1,1.05,1.05,0,0,0,.83-.1,1,1,0,0,0,.4-.08,1.44,1.44,0,0,0,1,.22l.14.25a1.15,1.15,0,0,0,2.08-.27,6,6,0,0,0-.76-4.55,5.54,5.54,0,0,1-1.93-.62,47.26,47.26,0,0,0-9.37-1.27c-3.69-.64-8.95-1.21-10.75.8a1.14,1.14,0,0,0-.52.63,21.09,21.09,0,0,0-2,1.16,1.16,1.16,0,0,0-.46.1c.11-.76.23-1.56.35-2.34.42-2.78.84-6.25,1.52-9.75.52-1.33,1-2.68,1.41-4.06a3.9,3.9,0,0,0,.16-1.16c2.56-4.69,5.84-9.49,10.48-10a3.46,3.46,0,0,0,1-.28,4.55,4.55,0,0,0,1,.64c.59.24,1.2-.47,1-1a3.85,3.85,0,0,0-.35-.76,1.15,1.15,0,0,0,.42-1,1.09,1.09,0,0,0,.61-.28,4.74,4.74,0,0,0,.08.56.68.68,0,0,0,.16.3,5.31,5.31,0,0,0,.24,1.88.46.46,0,0,0,.9-.12,10.39,10.39,0,0,1,.08-1.26,5,5,0,0,0,.38,1.32.76.76,0,0,0,1.43-.19.64.64,0,0,1,0-.29.86.86,0,0,0,.22.1.83.83,0,0,0,1.52-.2c.06-.14.09-.28.14-.42a.58.58,0,0,0,.76-.25,3,3,0,0,1,.58-.83h0c-.68,1.3,1.28,2.45,2,1.15a8.2,8.2,0,0,1,.76-1.16,1,1,0,0,0,1.55.58c4-3,10.41-3.52,15.25-3.94,1.89-.17,3.79-.25,5.67-.26l.71.28a155.59,155.59,0,0,1,25.91,28.62,14.88,14.88,0,0,0-1.59-.5,1,1,0,0,0-.55-.72,15.69,15.69,0,0,0-5.61-1.75.89.89,0,0,0-.87.33l-17.5,4.1a1.12,1.12,0,0,0-.76.76,15.08,15.08,0,0,0-.49,2.65,1.15,1.15,0,0,0,1.19,1.81l6.36-1.79,8.77-2h9.81a1,1,0,0,0,1-.57c.46.2.93.41,1.37.64l.18.08a118.86,118.86,0,0,1,2,11.89,1.08,1.08,0,0,0-1.17-.13c-6.83-4.66-16.77-4.41-23,1-.36.32.13,1,.52.68a17,17,0,0,1,11.26-3.39,17.32,17.32,0,0,1,3.32.49c-.39,0-.76-.05-1.18-.06a15.06,15.06,0,0,0-9.1,1.46,6.91,6.91,0,0,0-3.88,5,.94.94,0,0,0-.27.47l-.39,1.89a1.16,1.16,0,0,0,.76,1.4,1.25,1.25,0,0,0,.46,0,2,2,0,0,0,1,.08h0l8.71.1c2.18,0,4.6.36,6.73-.17a4.6,4.6,0,0,0,2.88-2,9.81,9.81,0,0,0,3.79-2,135.45,135.45,0,0,1-2.62,37.78c-.43,2.07-.86,4.19-1.24,6.33a17.44,17.44,0,0,1-5.2,4.2,1.2,1.2,0,0,0-.24.17,1,1,0,0,0-.7.19,42.74,42.74,0,0,1-11.75,5.61h-.5a1.12,1.12,0,0,0-.87.46,7.58,7.58,0,0,0-3.11,1.64.82.82,0,0,0-.19.27,3.35,3.35,0,0,0-1.11.93,2.72,2.72,0,0,0-1.21.39c-3,.61-5.79,1.12-9.3.11-.42-.12-.83-.22-1.24-.3a3.35,3.35,0,0,0-1.3-.47.27.27,0,0,0-.13-.09,29,29,0,0,0-9.69-1.37,1.12,1.12,0,0,0-.45-.21l-12.48-3c-1.32-.55-2.65-1.05-4-1.52a35.65,35.65,0,0,1-4.38-2.42,78.32,78.32,0,0,1-6.07-5.05c-.64-1.2-1.27-2.4-1.91-3.59q-.58-1.19-1.13-2.4a122.39,122.39,0,0,1-1.67-23Zm5.72-12.64a27.3,27.3,0,0,1,2.84-1.37,5.42,5.42,0,0,0,2.44,4.29,15.56,15.56,0,0,1-2.8-.83,1,1,0,0,0-.66-.46l-.2-.05a1,1,0,0,0-.51-.65l-.4-.22-.15-.11-.12-.1a4,4,0,0,1-.32-.33h0Zm14.11-1.78c0-.08-.08-.17-.12-.25a11.54,11.54,0,0,1,4.21,3,19.05,19.05,0,0,1-3.69,1.21,2.65,2.65,0,0,0,.42-1.37,3.86,3.86,0,0,0-.82-2.56Zm56.37.64a1,1,0,0,0,0,.24,9.33,9.33,0,0,1-3,.68,5.31,5.31,0,0,0,.76-4.55l2.57,1.36a.83.83,0,0,0,0,.34,4.55,4.55,0,0,1-.21,1.93Zm-5-.22a2.7,2.7,0,0,1-.21.25,1.28,1.28,0,0,0,0-.23Zm-6.83,1.15-3.44,0-.08-.38v-.05a1.28,1.28,0,0,0,.05-.22,4.8,4.8,0,0,1,2.07-3.53,1.26,1.26,0,0,0,.24-.11,11.2,11.2,0,0,1,1.29-.66,9.57,9.57,0,0,1,1.18-.34l.17.13h-.32a1.46,1.46,0,0,0-1.24,1.11,2.75,2.75,0,0,0-.15.66,3.09,3.09,0,0,0-.29.92,3.66,3.66,0,0,0,.56,2.5Zm-53.32,84.28-.27.43v-.43Zm-5.31,10c3.5-3.35,5.81-7.17,8.31-11a4.79,4.79,0,0,0,1.84-2.77c.4-.58.81-1.16,1.24-1.73a15,15,0,0,1,2.1-2.28c.31,7.1,2,14.34,2.6,21.32.52,5.7.58,11.45.86,17.18q-1.22-6.39-3-12.68a1.14,1.14,0,0,0-2.19.61,158.8,158.8,0,0,1,4.13,19.44,17.5,17.5,0,0,1-1.52-1.12l-.33-.42a1,1,0,0,0-.57-.38,17.78,17.78,0,0,1-3.31-4.37c-.71-1.28-2.67-.14-2,1.15a19.66,19.66,0,0,0,4.6,5.67l4.45,5.68a1.22,1.22,0,0,0,.17.17,8.34,8.34,0,0,1-1.44,6.3,9.53,9.53,0,0,1-4,3.25h-1.52l-13.95-.49v-.09l.13-.11a1.15,1.15,0,0,0,.26-.38,5,5,0,0,0,3.92-.76,3.6,3.6,0,0,0,1.34-1.85,1,1,0,0,0,.4-1.38l0-.06c2.33-1,2.45-3.34,1.41-5.15a4.6,4.6,0,0,0,2.85-1.62c2.28-2.83,0-5.44-2.66-7.46,3.91-4.72-.08-8-4.95-8.34a68.14,68.14,0,0,0-5.11-9A42.23,42.23,0,0,1,1174.37,481.35Zm3.11,20.92a1.15,1.15,0,0,0-.76.53v.07h0l-.11.06h-.3a.93.93,0,0,0-.48.11q-.55-1.58-1.18-3.1c1.43.38,2.68,1.18,2.9,2.33ZM1166.39,397Zm-5.59,105.59c2.07-4.1,4-8.12,6.28-11.9a65.89,65.89,0,0,1,4,7,15.17,15.17,0,0,0-11.63,7.49h0C1160,504.22,1160.41,503.34,1160.8,502.58Zm-.93,8.13a12.14,12.14,0,0,1,6.83-9.47,14.33,14.33,0,0,1,5.39-1.39c.47,1.08.9,2.19,1.31,3.31a1.22,1.22,0,0,0-.09,2c1.39,1,9.23,5.31,5.42,7.36a2,2,0,0,1-.33.14l-.05,0-2.93-2a.93.93,0,0,0-.58-.16l-.24-.22a23,23,0,0,0-3.63-2.53,1.14,1.14,0,0,0-1.15,2,19.83,19.83,0,0,1,4.18,3.12l.05.05a3.27,3.27,0,0,0,1.2,1.68,1.13,1.13,0,0,0,.5.93,2,2,0,0,1,1,1.56,2.28,2.28,0,0,1-1,1.06,3.07,3.07,0,0,0-1.4-.69c-.49-.4-1-.83-1.43-1.24l-.16-.14-.5-.59a1,1,0,0,0-.61-.38l-2.67-2.28c-1.1-1-2.72.64-1.61,1.61l3.84,3.34a32.69,32.69,0,0,0,3.19,3.27,2.68,2.68,0,0,1-1.74,1.18,5.31,5.31,0,0,1-2.49-.56,25,25,0,0,1-4.27-2.59c-1.2-.84-2.34,1.13-1.15,2a28.12,28.12,0,0,0,4.16,2.56,2.85,2.85,0,0,1-1.68.36.92.92,0,0,0-.47.09,18.2,18.2,0,0,0-3.64.7,5.44,5.44,0,0,1-3.35-2.52c-1.94-3.17-1.15-7.1-.39-10.52a1.18,1.18,0,0,0,.54-.93Zm-1.35-3.63a15.29,15.29,0,0,0-.76,2.79,1,1,0,0,0-.56.76c-1,4.55-1.94,9.86,1.27,13.74a7.58,7.58,0,0,0,1.59,1.45c-.44.2-.88.42-1.31.65l-.34.18a1,1,0,0,0-.55-.76c-7.36-4-3.15-12.41.48-18.82Zm-.58-3.88-.09.18-.23-.3a1.73,1.73,0,0,0,.32.11Zm-1.21,2.41q-.9,1.77-1.78,3.55a.13.13,0,0,0-.06-.11,34.69,34.69,0,0,0-4.1-4.82c0-3.47-.16-6.95-.37-10.43A31.69,31.69,0,0,0,1156.73,505.62Zm-7.39,11a.52.52,0,1,0,1,0c.19-2.57.3-5.16.36-7.75a.93.93,0,0,0,.71-.63q.76.93,1.46,1.92a1.15,1.15,0,0,0,1.27.46c-.24.49-.49,1-.76,1.47-1.95,3.94-2.62,8.4-.76,11.89a1.23,1.23,0,0,0,0,.17,10.37,10.37,0,0,0,2.37,4.26c-.38.24-.76.5-1.1.76a1.11,1.11,0,0,0-.59.3,22.56,22.56,0,0,0-5.32,8,28.86,28.86,0,0,0-5.78,11.7,20.93,20.93,0,0,0,1.35,12.21,139.72,139.72,0,0,0-48.86,30.76,1.15,1.15,0,0,0-.28-.2,22,22,0,0,1-11.2-12.43v-.2c.08-1.39.14-2.78.24-4.16.62-9.44,2.59-19.22,1.9-28.69h0a21.12,21.12,0,0,0,8-1.65,1.16,1.16,0,0,0,.68-1.67,34.17,34.17,0,0,0-3.79-6c10.88.07,20.36-7.15,28.22-14.5,7.58-7.11,14.47-14.1,18.07-23.25a.88.88,0,0,0,.49.17c1.52,6,4,11.59,8.6,15.81.76.68,2.11-.23,1.46-1.13a46.27,46.27,0,0,1-6.66-14.26,22.75,22.75,0,0,1,5.46,3.1q1,.76,2,1.57.4.89.83,1.75Q1149.06,511.51,1149.34,516.64Zm-90.69,110.27a34.75,34.75,0,0,0,4.37-2.68c7.87-5.7,13.05-14.41,16.28-23.44.35-1,.67-2,1-3q-.06,4-.06,8.05a1.07,1.07,0,0,0,1,1.09h0a145.75,145.75,0,0,0-17.74,28.82q-2.7,5.82-4.85,11.85V627.17A1.24,1.24,0,0,0,1058.65,626.91Zm16.06-85.8a29.06,29.06,0,0,0,4.07-5.42,1.2,1.2,0,0,0,.12-.3q2.28.08,4.55,0a1.09,1.09,0,0,0,.11.47,14,14,0,0,0-2.56,4c-.57,1.39-1.58,3.9-.64,5.35a3.45,3.45,0,0,0,2.67,1.21c.47,6.2-.21,12.55-.92,18.84a71.77,71.77,0,0,0-8-22.57,1.27,1.27,0,0,0,.56-1.59Zm-2.1-1.12q-1.57-2.54-3.36-4.95a1.27,1.27,0,0,0-.19-.2c-.2-.27-.39-.55-.59-.81a56.13,56.13,0,0,0,7.91,1.21,26.81,26.81,0,0,1-3.77,4.76Zm13.3-3.28,1.21.2a32.25,32.25,0,0,1,4.35,6.2,19,19,0,0,1-3.34.86c-1.21.19-3.66.68-4.82.12C1080.82,542.92,1084.46,538.23,1085.92,536.71Zm-3,47.66A24.2,24.2,0,0,0,1093,593.8a146.78,146.78,0,0,0-10.54,11.67q0-10.56.47-21.09Zm62.35-131.28-.17-.58c-.09-.58-.17-1.16-.27-1.74q.22,1.16.43,2.32Zm.71,19.11c1,8.34,1.66,16.69,2.2,25.11-.33-1.07-.64-2.14-.92-3.22-1.16-4.63-2.34-9.25-3.28-13.93-1.2-6-2.1-12-2.78-18.11l3.27,3.21c.46,2.33.95,4.65,1.51,6.95Zm-3.61-20c.42,3.1.89,6.22,1.42,9.33l-3-2.84q-.36-3.67-.63-7.35c-.22-3-.38-6-.51-9Q1140.91,447.34,1142.42,452.24ZM1141.16,481a133.49,133.49,0,0,0,5.12,19.58,19.05,19.05,0,0,0-6.47-3.13q-.67-2.8-1.13-5.67c.11-.67.22-1.34.3-2,.84-7.54.2-15.26-.71-22.75a81.92,81.92,0,0,0-1.69-9.54l1.43,1.44A205.59,205.59,0,0,0,1141.16,481Zm-4.79-49q.16-3.79.39-7.52h.07c-.13,9.67.08,19.34.76,29,.05.76.11,1.45.17,2.18L1136.1,454q-.2-11,.26-22Zm-2.33-7.31q-.76,11.38-.86,22.85a62.5,62.5,0,0,0-10.7-15.93,17.85,17.85,0,0,1,11.56-6.92Zm-8.84,13.81a52.39,52.39,0,0,1,5.78,10,91,91,0,0,1-11.44-15.43c-.6-1-1.18-2.09-1.74-3.16A72.77,72.77,0,0,1,1125.19,438.49Zm-94-4.55c6.07-11.32,14.27-20.71,27.3-23.51,13.42-2.88,27.24-2.28,39.33,4.59a98.71,98.71,0,0,1,15.45,10.77c.22.47.44.95.67,1.42,4.85,10.15,11.59,18.54,19,26.41.11.32.2.64.3,1,.14,10.48.76,21,1.73,31.35.26,2.68.57,5.45,1,8.2-.17.76-.37,1.59-.6,2.37-2.1,7.32-6.76,13.12-12.07,18.42-9.27,9.24-21,21.34-35.06,19.87-.58-.61-1.18-1.22-1.81-1.8a1.13,1.13,0,0,0-1.6,0h0c-18.26,1.37-36-7-47.9-20.63a.9.9,0,0,0-.58-1l-.4-.17a61,61,0,0,1-5.68-8.07c-12.36-21.08-10.48-48.22.89-69.28Zm-37.76,43.53a47,47,0,0,1,10.57-20.09c4.38-4.85,12.42-11.75,19.49-11.32-5.11,15.65-5.47,32.89.2,48.3a62.13,62.13,0,0,0,8.72,15.93l-.5-.05a1.19,1.19,0,0,0-.56-.21c-10.94-1.28-20.86,2.15-29,8.26C990.32,509.41,990.06,490.57,993.38,477.47Zm.42,131c-12.48-15.17-15.93-36.51-11.25-55.37,3-12.23,10-24.27,19.81-32.15a1.1,1.1,0,0,0,1.15-.89,38.11,38.11,0,0,1,25.84-8,1,1,0,0,0,.89.36,10.62,10.62,0,0,1,4.43.7,63.78,63.78,0,0,0,29.66,19.78,20.35,20.35,0,0,1,4.41,5.74,1,1,0,0,0,.66.55A69.61,69.61,0,0,1,1080.93,575a1.2,1.2,0,0,0-.89,1.37,24.48,24.48,0,0,0,.89,3.45c-.07,1.24-.14,2.48-.2,3.72a67.25,67.25,0,0,1-1,7c-1.85,9.5-5.7,19.06-12.14,26.39-6.89,7.87-16.69,11.74-27,12.39C1022.87,630.47,1005,622.17,993.81,608.49Zm33.13,30.13a22.13,22.13,0,0,1,4.21-6.49,40.11,40.11,0,0,1,5.61,6.46ZM1051.37,902c-6.74-18.61-9.44-38.42-12.74-57.84-3.65-21.5-8-43-10.48-64.7-2.47-21.49-.82-43.05.23-64.58l3.59-73.66a1.17,1.17,0,0,0,0-.33h7a1.15,1.15,0,0,0,1-1.71,42.36,42.36,0,0,0-6-7.58h.15a48.73,48.73,0,0,0,22.34-3.62v25.42a1.1,1.1,0,0,0,.16.58q-1.84,6-3.15,12.14a1.12,1.12,0,0,0,.09.76c-3.6,14.13-6.91,28.37-7.95,43-.56,7.9-.64,15.84-.86,23.76s-.88,15.71-.09,23.47a1.07,1.07,0,0,0-.08.52,263.48,263.48,0,0,0,21.9,85.48,1.19,1.19,0,0,0-.11.43c-1.86,31.86-3.47,64.89,7.58,95.27-9.42-11-17.46-22.69-22.55-36.75Zm31.17,51.42a3.64,3.64,0,0,1-1.12-2.78l1,1.1v0a1.06,1.06,0,0,0,.19.42l.1.2a.94.94,0,0,0-.21,1Zm-1-7.58a1.23,1.23,0,0,0-1.45,0l-1.9-2.09v-.1c-12.89-30.34-11.71-63.84-9.86-96.11a179.76,179.76,0,0,0,17.3,25.79,1,1,0,0,0-.11.62,172.4,172.4,0,0,1,.83,37.48c-1,11.48-4.55,22.85-4.82,34.37Zm2.28-.95a19.91,19.91,0,0,1,.11-2.06,1.09,1.09,0,0,0,.29.25Zm4,6.61a2.47,2.47,0,0,1-.83,1.68l-.14.11a.92.92,0,0,0-.93-.26,1.06,1.06,0,0,0-.24-1.16l-.33-.34q.21-.8.46-1.58l.17-.08c1.15-.67,1.91.6,1.87,1.63Zm-2.09-15.28q-.86,2.37-1.62,4.76c.91-9.86,3.66-19.67,4.55-29.53a171.79,171.79,0,0,0-.58-35.12q3.17,3.79,6.54,7.36a1.2,1.2,0,0,0-.46,1.12c1.52,11.38-2.24,23-4.63,34.08Zm10.76-50.52q4,4.13,8.24,8a1.16,1.16,0,0,0-.54.87c-1,8.87-6.26,16.19-10.44,23.82q-1.68,3.08-3.19,6.25l1.76-8.09c2.24-10.12,5.23-20.44,4.19-30.87Zm17.65,16.89c-7,14.12-19.92,24.74-27.13,38.64l.93-4.26a134.31,134.31,0,0,1,9.78-20.85c3.84-6.65,7.69-13.2,8.71-20.91q4,3.56,8.23,6.9a1,1,0,0,0-.48.49Zm154.51,66.61a21.83,21.83,0,0,1,3.72,4.55c.76,1.4,1.17,2.21.52,3.75-.76,1.77-.89,1.38-2.67,1.4q-6.19.08-12.38-.17-5.83-.24-11.63-.76c-1.93-.18-3.87-.38-5.79-.61-.8-.1-2.82,0-3.41-.46-1-.76-.44-2.84-.09-3.73.68-1.72,2.34-3.47,3.38-5l3.79-5.63,7.18-10.62a1.21,1.21,0,0,0,.09-.17c5.8,5.82,11.6,11.6,17.32,17.45Zm-17.79-18.79h.19v.08Zm146.38-111.12a242.52,242.52,0,0,1-20.4,36.41,1.16,1.16,0,0,0-.14.3,264.27,264.27,0,0,1-52.38,52.85,1.1,1.1,0,0,0-.64.15,152.51,152.51,0,0,1-65,19.57,1.18,1.18,0,0,0-.43-.1,263.46,263.46,0,0,1-112.81-29.22,1.12,1.12,0,0,0-.38-.3,178.88,178.88,0,0,1-75.85-74.47,1.16,1.16,0,0,0-.08-.76,260.23,260.23,0,0,1-22.34-86,1,1,0,0,0,.08-.53c-.8-7.78-.14-15.74.08-23.51.2-7.43.3-14.87.76-22.29,1-15.43,4.55-30.45,8.34-45.38a1.07,1.07,0,0,0-.11-.84c10.32-45.85,44.14-85.58,88.52-101.63a63,63,0,0,0,3.47,6.23A51.64,51.64,0,0,0,1159,584.5a41,41,0,0,0-20.4,4,8.9,8.9,0,0,0-5.31,3.13.72.72,0,0,0,.86,1.11,37.76,37.76,0,0,1,4.33-2.12,1.12,1.12,0,0,0,1,0,38.53,38.53,0,0,1,25.48-3,1.13,1.13,0,0,0,.71-.06c7.9,3.44,17.62,3.66,26,4.79a13.94,13.94,0,0,0,6.83,6.83c3,1.59,7.33,2.87,11,2.28a6.18,6.18,0,0,0,2.73,0,31.55,31.55,0,0,0-2.61,8.34,1.15,1.15,0,0,0,.33,1,4.16,4.16,0,0,0,.83,3.58c.36.42.91-.05.84-.49a8.06,8.06,0,0,1,0-3,1,1,0,0,0,.25-.53,2,2,0,0,1,.07-.36.41.41,0,0,1,.08-.18.76.76,0,0,0,.07-.62,29.28,29.28,0,0,1,8.69-15.65c1.06-1-.55-2.62-1.61-1.61q-1,1-1.94,2a19.72,19.72,0,0,0,.91-2.75,1.09,1.09,0,0,0,1.33-.76,59.54,59.54,0,0,0,2-9.26c.76-.36,1.52-.82,1.95-.95a16.4,16.4,0,0,1,4.31-.76,16.79,16.79,0,0,1,7.76,1.6c-.3,5.7,3,10.78,2.82,16.45a23.15,23.15,0,0,1-.29,2.34c-.58-.58-1.18-1.15-1.81-1.68a1.17,1.17,0,0,0-.49-.26,7.21,7.21,0,0,0-1.46-2.28c-.35-.28-1.05-.26-1.14.3a4.5,4.5,0,0,0,1.11,3.16,1,1,0,0,0,.36.67c.2.17.38.35.58.52a4.76,4.76,0,0,0,.58.54,34.89,34.89,0,0,1,2.53,2.65,3.87,3.87,0,0,0,.35.59,4.06,4.06,0,0,0,.76.76,34.93,34.93,0,0,1,4.44,7.53l.08.14c.2.55.44,1.08.64,1.62a4.93,4.93,0,0,0,1.47,2.28.65.65,0,0,0,1-.39,4.91,4.91,0,0,0-.55-2.67c-.19-.44-.37-.9-.57-1.36a1.18,1.18,0,0,0-.07-.76,36.34,36.34,0,0,0-2.62-5l.33,0c5.07.61,11.77-.17,15.93-3.28,3.86-2.87,5.51-7.58,6.33-12.18.64,2.28,1.81,3.9,3.75,3.36s2.13-3.15,2.19-5A1.34,1.34,0,0,0,1272,588a10.22,10.22,0,0,0-.36-1.05,17.6,17.6,0,0,0-.76-4,2.53,2.53,0,0,0,1.59-1.84,2.08,2.08,0,0,0-.4-1.59l1.82-1c3.69-1.44,7.21-3.28,10.9-4.77a35.65,35.65,0,0,1,18.69-2.28,1.19,1.19,0,0,0,.62-.08q.46.07.91.18a23.84,23.84,0,0,1,3.57,1.29c.43.18.93-.31.54-.7a9.38,9.38,0,0,0-4.29-2.36.9.9,0,0,0-.76-.53,39.89,39.89,0,0,0-11-.14,45.51,45.51,0,0,0,4.55-4.46,33.37,33.37,0,0,0,5.86-5.75,26.26,26.26,0,0,0,2.84-4.55,1.2,1.2,0,0,0,1,.76c15.24,2,28.62,9.36,40.62,18.58a1.82,1.82,0,0,0,.52.48l.23.1c4.76,3.7,9.29,7.68,13.65,11.73,9.69,9,19.49,18.42,27.87,28.82.05.17.1.35.16.52a1.13,1.13,0,0,0,.84.76,116.62,116.62,0,0,1,12.6,19.45,1,1,0,0,0,.41.45,1.28,1.28,0,0,0,.07.2,305.56,305.56,0,0,1,20.48,66.05,1.22,1.22,0,0,0,0,.41A173.74,173.74,0,0,1,1423,765a334,334,0,0,1-13,44,.87.87,0,0,0-.32.22,5.57,5.57,0,0,0-1,3.25q-5.1,13.29-11.32,26.09a1.16,1.16,0,0,0-.1.72Zm.82,3.63q1.06-2.28,2.08-4.55a50.32,50.32,0,0,0,5.11,9.19Zm3.64-6.67a1.17,1.17,0,0,0-.4-.53q1.12-2.39,2.21-4.79a83.12,83.12,0,0,0,4.76,16.89,46.89,46.89,0,0,1-6.51-11.57Zm3.74-7.23a.93.93,0,0,0-.76-.76q2.06-4.69,4-9.44-.11,6.07.18,12.14c.24,4.63.16,10.33,1.22,15.43-2.22-5.52-3.44-11.5-4.57-17.37Zm4.83,27.4c-.56-.45-.89-1.08-.05-1.52a1.92,1.92,0,0,1,.82-.23v.08a1.24,1.24,0,0,0,0,.31c.06.33.11.68.17,1a1.29,1.29,0,0,0-.89.35ZM1420.68,935a304.15,304.15,0,0,0-4.19-57.33q-.3-3.25-.68-6.48c4.92,20.9,5.89,42.34,4.92,63.83Zm-5.54-42.79a248.16,248.16,0,0,1-.71,29.26c-.3,3.6-.7,7.18-1.14,10.76q1.59-20,1.9-40Zm.46-36.41a1.21,1.21,0,0,0-.23-.43c-.25-.31-.49-.62-.76-.94V854a1,1,0,0,0,.42-1.18l.17-.17a2.65,2.65,0,0,1,.45,3.12Zm48.29-163.16q-3.22,30.63-8.89,60.93c-3.13,16.77-6.66,33.56-12.31,49.69-6.07,17.31-14.83,33.71-27.94,46.67a1.1,1.1,0,0,0-1.09.36c-2.43-5.51-2.19-12.93-2.5-18.63q-.28-5.19-.26-10.38c0-1.24.76-6.48.24-8.81.15-.39.3-.76.45-1.19a1.18,1.18,0,0,0,.34-.71v-.3a334.93,334.93,0,0,0,12.92-43,1.24,1.24,0,0,0,.08-.24c.09-.43.17-.86.27-1.29s.16-.69.24-1a1.27,1.27,0,0,0,0-.21,176.87,176.87,0,0,0,1.74-60.68,1.17,1.17,0,0,0,.05-.62,307.1,307.1,0,0,0-13.48-49.3,1.06,1.06,0,0,0,.42-.85c.76-30.12-10-60.35-2.85-90.26a1.11,1.11,0,0,0-.06-.76h4.71a1.17,1.17,0,0,0,1.14-1.14c.48-3.72-1.68-6.72-4.24-9.19a34.67,34.67,0,0,0,19.77-7.85c10.34,7.21,22.75,11.48,35.19,13.65a39.4,39.4,0,0,0-3.11,5.84c-.65,1.52-2,3.84-.83,5.46a4.16,4.16,0,0,0,3.3,1.3,1.13,1.13,0,0,0-.06.43,779.45,779.45,0,0,1-3.16,122.11Zm12-125.06c-1.41.14-2.82.25-4.25.29-1.13,0-4.78.58-5.6-.24-1.05-1.06,1.27-4.79,1.79-5.8a40,40,0,0,1,2.55-4.23,24.82,24.82,0,0,1,5.56,10Zm30.82-30.69c-4.24,5.66-9.31,11-15.8,14.07-6.21,2.9-13.17,3.53-20,4a1,1,0,0,0-1.11.08l-.76.05a1.15,1.15,0,0,0-.58.2c-16.91-2.94-33.71-9.62-45.24-22.75-10.62-12.14-19.16-35.14-6.67-48.91a1.2,1.2,0,0,0,.2-.3,79.34,79.34,0,0,0,31.67-22.51,60.19,60.19,0,0,0,10.84-18.07,44,44,0,0,0,2.13-8.78c23.19-1.31,45.51,11.79,55.13,33,10.56,23.06,5.1,50-9.78,69.89Z"/><path class="cls-16" d="M1193.18,464.89c-.76.5-1.47,1.06-2.19,1.62-.18.14,0,.45.18.3a26.46,26.46,0,0,0,2.18-1.71A.13.13,0,0,0,1193.18,464.89Z"/><path class="cls-16" d="M1192.91,477.27a4.92,4.92,0,0,0,1.68-.16.33.33,0,0,0,0-.56,4.92,4.92,0,0,0-1.68-.16.45.45,0,0,0,0,.88Z"/><path class="cls-16" d="M1246.77,455.41a7.44,7.44,0,0,0,4.63-.85.24.24,0,0,0-.18-.43c-1.52.24-3,.63-4.5,1C1246.53,455.14,1246.61,455.39,1246.77,455.41Z"/><path class="cls-16" d="M1250.56,456.13c-1-.11-2-.16-3-.2a.43.43,0,0,0,0,.86c1,0,2-.09,3-.2a.22.22,0,0,0,0-.45Z"/><path class="cls-16" d="M1250.13,458.1a2.73,2.73,0,0,1-2.12.55c-.43-.08-.61.58-.18.66a2.72,2.72,0,0,0,2.59-.83C1250.57,458.28,1250.36,457.93,1250.13,458.1Z"/><path class="cls-16" d="M1249,461a7.52,7.52,0,0,0-1.65.25c-.61.13-.35,1.12.26.94a7.45,7.45,0,0,0,1.56-.55.34.34,0,0,0-.17-.64Z"/><path class="cls-16" d="M1250,467.42a2.82,2.82,0,0,1-2,.53c-.65-.14-.93.86-.27,1a2.58,2.58,0,0,0,2.82-1,.42.42,0,0,0-.57-.56Z"/><path class="cls-16" d="M1248.78,471.16a3.72,3.72,0,0,0,1.25-.49c.2-.17,0-.47-.2-.48a3.57,3.57,0,0,0-1.22.35C1248.21,470.67,1248.38,471.29,1248.78,471.16Z"/><path class="cls-16" d="M1250.22,472.46a6.25,6.25,0,0,0-2.4.58.42.42,0,0,0,.22.8,6.37,6.37,0,0,0,2.37-.92C1250.59,472.75,1250.41,472.47,1250.22,472.46Z"/><path class="cls-16" d="M1249.67,481.71a.49.49,0,1,0,0,.84l.28-.17a.3.3,0,0,0,0-.51Z"/><path class="cls-16" d="M1214.82,471.11a.28.28,0,1,0,.15-.55h0a20.7,20.7,0,0,1-2.93-1c-.76-.35-1.52-.81-2.28-1.11-.31-.11-.6.36-.33.57A13.45,13.45,0,0,0,1214.82,471.11Z"/><path class="cls-16" d="M1221.39,469.34a26,26,0,0,0,2.36-1.84c.13-.12,0-.36-.2-.26a26,26,0,0,0-2.28,1.92C1221.17,469.21,1221.3,469.41,1221.39,469.34Z"/><path class="cls-16" d="M1216.09,406.72a6.62,6.62,0,0,0,1.18-.31l.33-.09a1.52,1.52,0,0,0,.65.26.8.8,0,0,0,1-.76,2,2,0,0,0-1.65-1.16c-.58.13-1.93.32-1.91,1.13a.52.52,0,0,0,.4.93Z"/><path class="cls-16" d="M1209.64,407.16a2,2,0,0,0,1.41-.35,3.16,3.16,0,0,0,.62.28.4.4,0,0,0,.46-.58,1.74,1.74,0,0,0-.68-.6.42.42,0,0,0-.16-.18,1.55,1.55,0,0,0-.76-.27h-.76c-.54-.06-1-.47-1.52-.27a.76.76,0,0,0-.53.93h0C1207.85,406.93,1208.93,407.11,1209.64,407.16Z"/><path class="cls-16" d="M1209,399.26a5.13,5.13,0,0,1,5.48-.76c.31.11.48-.35.22-.52a4.59,4.59,0,0,0-5.83,1.16.09.09,0,0,0,.13.11Z"/><path class="cls-16" d="M1209.26,408.19c.45-.18.46-1-.13-.93a2.94,2.94,0,0,1-3.16-2.41c0-.3-.46-.41-.55-.08a3,3,0,0,0,3.84,3.42Z"/><path class="cls-16" d="M1218.16,407.63a.49.49,0,0,0,.22.54c.51.3,1-.12,1.44-.49l.71-.25c.11,0,.06-.21,0-.17l-.36.13a6,6,0,0,0,1-1.37c.18-.33-.28-.76-.54-.41a5.14,5.14,0,0,1-1.23,1.09C1219,406.95,1218.26,407.09,1218.16,407.63Z"/><path class="cls-16" d="M1172.69,393.49a13.65,13.65,0,0,0,7,2.28c.26,0,.33-.42.06-.46a20.79,20.79,0,0,1-6.83-2.17.2.2,0,0,0-.2.36Z"/><path class="cls-16" d="M1238.29,392.88a32.23,32.23,0,0,0,7.4-1.14c.18-.06.17-.36,0-.35-2.48.19-4.93.84-7.39,1.2C1238.08,392.6,1238.13,392.89,1238.29,392.88Z"/><path class="cls-16" d="M1212,572.94a47.56,47.56,0,0,0-1.57,11.92c-.39-2.43-.76-4.86-1.1-7.29a.56.56,0,1,0-1.12,0h0c-.42,4.85-.14,10.33,1.62,14.92.3.76,1.69.76,1.6-.22a10.38,10.38,0,0,0-.11-1.08.52.52,0,0,0,.47-.48c.25-5.89.48-11.79,1-17.67C1212.81,572.59,1212.1,572.51,1212,572.94Z"/><path class="cls-16" d="M1247.73,587.15c-.33-5.64-1.93-11.3-3.53-16.69a.37.37,0,0,0-.71.2c1.24,5.5,2,11.15,3.49,16.59a.39.39,0,0,0,.75-.1Z"/><path class="cls-16" d="M1193.1,416.55l.22.09h0a8.13,8.13,0,0,0,4,.76,10.55,10.55,0,0,0,1.21-.14.55.55,0,0,0,.23.36c1,2.79,1.65,7.58,4.08,9.34,2.63,1.94,8.87,1.81,12,1.74A17.66,17.66,0,0,0,1231,417.63a3.14,3.14,0,0,0,2.52-.88,1.6,1.6,0,0,0,.13-.21,1.93,1.93,0,0,0,1.59-.43c.51-.42.15-1.14-.36-1.33s-1.27-.07-1.87-.28a1.85,1.85,0,0,0-.67-.24c-.89-.11-.94,1.08-.4,1.52l.3.21a.82.82,0,0,1-.39.21,4.56,4.56,0,0,1-.56.14c-.31.07-.62.11-.93.21l-.36.14a.65.65,0,0,0-.3-.26c-4.77-2-11.2-2.4-16.33-2.5a32.21,32.21,0,0,0-12.71,1.93.5.5,0,0,0-.42-.36c-1-.11-1.95.37-2.94.37a6.55,6.55,0,0,1-1-.09,3.62,3.62,0,0,0,.35-.42,1,1,0,0,0-.59-1.46,2.32,2.32,0,0,0-2.66.86.84.84,0,0,0-.05.13.94.94,0,0,0-.19,1.66Zm32.29,6.52a15,15,0,0,1-10,4.07c-2.64.14-7.15.24-9.59-.8-2.84-1.21-3.79-4-4.93-6.68a134.22,134.22,0,0,0,14.08,0c4.41-.11,9.23.33,13.55-.62A23.69,23.69,0,0,1,1225.38,423.06Zm-10.73-7.33c4.88.29,9.76,1.83,14.61,1.84h.23q-.31.42-.6.83a.39.39,0,0,0-.33-.34c-4.62-.76-9.7,0-14.37.12a126.7,126.7,0,0,0-13.65.76,14.14,14.14,0,0,0-.76-1.52,46.17,46.17,0,0,1,14.87-1.69Z"/><text class="cls-21" transform="translate(495.11 581.59)">a g<tspan class="cls-22" x="47.37" y="0">r</tspan><tspan x="59.79" y="0">aphic </tspan><tspan class="cls-23" x="151.11" y="0">d</tspan><tspan x="170.46" y="0">esign</tspan><tspan class="cls-24" x="250.11" y="0">e</tspan><tspan x="267.75" y="0">r </tspan><tspan class="cls-25" x="289.92" y="0">a</tspan><tspan class="cls-26" x="308.19" y="0">n</tspan><tspan x="325.98" y="0">d </tspan><tspan class="cls-27" x="0" y="48">c</tspan><tspan x="16.68" y="48">ompu</tspan><tspan class="cls-28" x="102.15" y="48">t</tspan><tspan class="cls-24" x="112.95" y="48">e</tspan><tspan x="130.59" y="48">r p</tspan><tspan class="cls-29" x="172.56" y="48">r</tspan><tspan x="184.98" y="48">og</tspan><tspan class="cls-22" x="223.53" y="48">r</tspan><tspan x="235.95" y="48">amm</tspan><tspan class="cls-24" x="311.58" y="48">e</tspan><tspan class="cls-30" x="329.22" y="48">r</tspan><tspan x="339.69" y="48">.</tspan></text><text class="cls-31" transform="translate(387.12 377.88)"><tspan class="cls-32">H</tspan><tspan x="34.94" y="0">i! Im</tspan></text><text class="cls-33" transform="translate(385.12 507.36)">Sheena,</text><circle class="cls-1" cx="521.96" cy="714.91" r="26.84"/><text class="cls-34" transform="translate(512.89 722.03)">envelope</text><circle class="cls-1" cx="774.44" cy="714.91" r="25.3"/><text class="cls-35" transform="translate(767.16 721.62)">facebook</text><circle class="cls-1" cx="691.6" cy="714.91" r="26.84"/><text class="cls-36" transform="translate(684 722.03)">instagram</text><circle class="cls-1" cx="607.61" cy="714.91" r="26.15"/><text class="cls-37" transform="translate(600.2 721.85)">linkedin</text><polygon class="cls-38" points="1810.27 98.43 1810.27 982.74 111.73 982.74 111.73 1081 1921 1081 1921 98.43 1810.27 98.43"/></svg>