<svg xmlns="http://www.w3.org/2000/svg" viewBox="0 0 300 300"><defs><style>.cls-1{fill:#fff;}.cls-2,.cls-4{fill:#1bb39e;}.cls-3{isolation:isolate;}.cls-4{stroke:#1bb39e;stroke-miterlimit:10;}</style></defs><title>FASTERbear-outline</title><g id="body"><path class="cls-1" d="M101,246a14.41,14.41,0,0,1,0,6c-.48,2.19-1.1,2.38-2,5a18,18,0,0,0-1,9c.34,2,.62,3.7,2,5,2.78,2.62,7.59,1.34,9,1,2.54-.61,3.89-1.71,6-3a46.62,46.62,0,0,1,12-5,48,48,0,0,1,16-2,46.13,46.13,0,0,1,7,1c6.4,1.41,10.94,3.81,17,7a59.87,59.87,0,0,1,7,4c4.95,3.62,6.32,6.6,11,8,2.93.88,4.4.3,5,0,.43-.22,1.83-1,3-4a19.07,19.07,0,0,0,1-8c-.17-8.26.28-6.37,0-12-.14-2.91-.43-6.65-1-11a49.74,49.74,0,0,1,13,3,30.69,30.69,0,0,0,7,2c2.58.39,6.68,1,8-1,.89-1.36.2-3.42,0-4a7.29,7.29,0,0,0-2-3,51.14,51.14,0,0,0-7-6c-8.3-5.14-11.56-7.33-19-11-2.95-1.45-5.23-2.49-8-2-2.24.4-3.12,1.49-6,3a34.29,34.29,0,0,1-9,3c-5.39,1.26-9.63,1.16-15,1a114.06,114.06,0,0,1-18-2c-11.12-2.11-11-3.62-17-4-6.84-.43-11.72,1.21-20,4-2.17.73-14.15,4.88-21,13-1.27,1.51-2.52,3.33-2,5,.62,2,3.6,3.18,6,3a6.85,6.85,0,0,0,3-1C88.16,248.7,92.3,247.13,101,246Z"/><path class="cls-2" d="M99.55,246.4c1.18,7.17-9.75,24.21,2.73,27.41,4,1,8.34-.42,11.74-2.42a54.48,54.48,0,0,1,21.42-7.62c12.77-1.53,24.22,3.59,35.09,9.83,5.22,3,15.5,15.93,22.09,8.1,4-4.73,2.72-11.67,2.87-17.34a114.58,114.58,0,0,0-1-17.36l-1.5,1.5a58.5,58.5,0,0,1,13.38,3.25c3.54,1.27,7.9,2.59,11.73,2.11,6.37-.78,5.39-7.18,1.95-10.92-4.66-5.06-10.74-8.48-16.57-11.95s-14.38-9.92-21.5-6.49c-4.77,2.3-8.83,4.46-14.15,5.43-6,1.09-12.36.75-18.43.26-8.92-.71-16.95-3.32-25.55-5.19-7.7-1.67-15.28.55-22.53,3a62.17,62.17,0,0,0-17.8,8.81c-4.1,3.07-12.88,11.24-4.6,15,3.29,1.49,5.9.35,8.88-1,4.23-2,9-2.64,13.59-3.27,1.9-.27,1.09-3.16-.8-2.9a62.85,62.85,0,0,0-15.11,4c-2.46,1-8.88,2.26-5.43-4.5a13.38,13.38,0,0,1,3-3.1,44.84,44.84,0,0,1,9.46-6.22c9.5-4.82,22-9.41,32.56-6.29,13.21,3.9,28,6.72,41.82,4.65a44.52,44.52,0,0,0,11-2.92c3.93-1.7,6.81-4.7,11.41-3.21,6.9,2.24,13.49,7.08,19.6,10.88a40.55,40.55,0,0,1,5.22,3.72,26.91,26.91,0,0,1,4.37,4.16c2.4,3.24-.7,5.38-4.06,5-7.33-.91-14-4.32-21.44-5.19a1.5,1.5,0,0,0-1.5,1.5,107.78,107.78,0,0,1,1,16.64c-.19,6.1,1.48,21.76-9.23,16-2.71-1.44-4.76-4-7.15-5.91a44.36,44.36,0,0,0-6.92-4.29c-6.56-3.5-13.11-6.91-20.48-8.26-10.56-1.94-21.83.06-31.42,4.79-3.14,1.55-5.84,3.86-9.31,4.69-1.87.44-4.51.84-6.26-.26-2.32-1.47-2.56-5.26-2.44-7.7.14-3.15,1.4-5.52,2.48-8.39a16.29,16.29,0,0,0,.66-8.75C102.13,243.7,99.24,244.51,99.55,246.4Z"/></g><g id="scarf"><path class="cls-2" d="M111,230c-.55,4.63,10.09,8.49,34,19,17.89,7.86,25.59,11.7,31,8,2.53-1.73,5.31-5.63,7-8a31.75,31.75,0,0,0,5-9c1.79-5.49,2.14-13.42-1-15-1.67-.84-3.8.37-5,1-14,7.36-33.58,5.35-37,5a122.87,122.87,0,0,1-16-3c-7.13-1.8-12.55-3.84-16-1A5,5,0,0,0,111,230Z"/></g><g id="head"><g class="cls-3"><path class="cls-1" d="M234.5,174.5c-4.7,22.83-22,35.29-26,38-15.87,10.77-32.08,10.51-64.5,10-20.23-.32-30.34-.48-43.5-5-11-3.79-40.81-14-49-40-11-34.8,26.35-67.59,28-69,24.29-20.76,53.14-20.21,64.5-20,8.65.16,54.63,1,78.5,36C226.13,129.82,239.62,149.58,234.5,174.5Z"/></g><path class="cls-1" d="M49.5,169.5c-23.62-8.63-32.59-35.49-23-53,9.39-17.14,36-24.24,56-10a100.76,100.76,0,0,1,25-13c33.15-11.65,63.29-2.35,75,2,20.24-19.9,51.17-18.24,66-2,16.06,17.59,13,52.09-13,69-.56,9.08-3,24.7-14,38-20,24.05-53.5,22.86-78,22-13.15-.46-73.07-2.58-90-39A47.64,47.64,0,0,1,49.5,169.5Z"/><path class="cls-2" d="M49.9,168.05c-18.4-7.06-31.31-28.64-23.44-48,8.86-21.74,37.79-24.26,55.28-12.29a1.5,1.5,0,0,0,1.52,0c29.23-20.5,65.81-23,98.84-10.85a1.49,1.49,0,0,0,1.46-.39c11-10.47,26.1-16,41.23-13.58,12.94,2,24.28,9.81,29.18,22.17,4.7,11.85,3.49,25.7-2.16,37a48.79,48.79,0,0,1-12.83,16c-1.69,1.38-4.19,2.33-5,4.38-1.05,2.71-.64,6.77-1.2,9.68-3.09,16.06-11.94,30.62-26.19,39.06-12.24,7.25-26.7,9.49-40.71,10-18.4.66-37.53-.21-55.62-3.84C83.79,212.07,55.15,198.92,51,169.1c-.27-1.9-3.16-1.09-2.9.8,5.71,40.47,52.74,51.42,87,53.69,18.58,1.23,38.16,2.08,56.28-2.82,24.21-6.53,40.94-25.51,44.83-50.28.31-1.94.06-4.73.78-6.52s4.2-3.67,5.77-5.06a51,51,0,0,0,17.07-41.33c-1.39-20.14-15.8-35.16-35.8-37.73a51.26,51.26,0,0,0-31.72,6.4,52.53,52.53,0,0,0-6.29,4.25c-2.68,2.1-2.9,3.56-6,2.49a126.19,126.19,0,0,0-13.49-3.8C139,83.11,109.9,87.05,86,102.34c-1,.63-2.38,2-3.54,2s-2.66-1.4-3.67-1.94A43.67,43.67,0,0,0,70.42,99,42.35,42.35,0,0,0,53.77,97.7c-9.9,1.19-19.53,5.89-25.76,13.82-12.39,15.78-6.63,39.38,7.85,51.73A45.29,45.29,0,0,0,49.1,171C50.9,171.64,51.69,168.74,49.9,168.05Z"/></g><g id="left_ear" data-name="left ear"><path class="cls-2" d="M51.5,148.5c-2.64,0-4.45-7-5-9-1-3.76-2.25-8.13,0-12s7-5.07,11-6c2.49-.57,8.76-2.13,10,0S64,126.54,59,135C54.17,143.21,53.81,148.53,51.5,148.5Z"/></g><g id="right_ear" data-name="right ear"><path class="cls-2" d="M207.5,108.5c.71-3.35,9.92-4.33,16.12-3.67,3.76.4,8.32.88,11.13,4.49,3.15,4,2.08,9.34,1.46,12.44-1,5-4.16,12.86-7.71,12.74-3.2-.11-3-6.52-9.5-14.5C212.79,112.41,206.91,111.27,207.5,108.5Z"/></g><g id="face"><path class="cls-4" d="M50,169l25.5-8.5a4.45,4.45,0,0,0,1,2c2,2.28,5.74,1,14,0,7.6-.9,10.66-.54,11.5-2.5a3.73,3.73,0,0,0-1-4,3.41,3.41,0,0,0-2.5-.5c-5.48.57-8.22.85-9,1-6.09,1.16-6.89.77-10,2a26.09,26.09,0,0,0-4,2"/><path class="cls-4" d="M235.5,162.5l-23-3a16,16,0,0,0-10-4c-15.37-.81-27-3.43-29,1a3.63,3.63,0,0,0,0,3c.8,1.53,3,1.86,4,2,9.24,1.28,17.8.88,24,1a19,19,0,0,0,7-1,18.24,18.24,0,0,0,4-2"/><path class="cls-4" d="M127.5,171.89c-.6,1.08.8,2.41,2,3.55,1,.95,3.86,3.67,8,3.56,3.22-.09,5.23-1.84,8-4.27,1.43-1.25,2.36-2.09,2-2.84-.58-1.19-4-1.31-8-1.43C133.87,170.31,128.47,170.15,127.5,171.89Z"/></g><g id="logo"><polygon class="cls-2" points="76.5 34.5 172.5 20.5 160.5 37.5 91.5 46.5 76.5 34.5"/><path class="cls-2" d="M99,54l55-7L143,61c-1.52.22-3.57.55-6,1-2.18.41-2.92.6-3,1s.78,1.35,5,3l-8,12Z"/></g></svg>