<svg xmlns="http://www.w3.org/2000/svg" xmlns:xlink="http://www.w3.org/1999/xlink" viewBox="0 0 600.5 600"><defs><style>.cls-1,.cls-26{fill:none;}.cls-2{fill:#1a1a1a;}.cls-3{clip-path:url(#clip-path);}.cls-29,.cls-4{fill:#71100a;}.cls-5{fill:#fbb03b;}.cls-6{clip-path:url(#clip-path-2);}.cls-7{clip-path:url(#clip-path-3);}.cls-8{clip-path:url(#clip-path-4);}.cls-9{clip-path:url(#clip-path-5);}.cls-10{clip-path:url(#clip-path-6);}.cls-11{clip-path:url(#clip-path-7);}.cls-12{clip-path:url(#clip-path-8);}.cls-13{clip-path:url(#clip-path-9);}.cls-14{clip-path:url(#clip-path-10);}.cls-15{clip-path:url(#clip-path-11);}.cls-16{clip-path:url(#clip-path-12);}.cls-17{clip-path:url(#clip-path-13);}.cls-18{clip-path:url(#clip-path-14);}.cls-19{clip-path:url(#clip-path-15);}.cls-20{clip-path:url(#clip-path-16);}.cls-21{opacity:0.27;}.cls-22{stroke:#000;}.cls-22,.cls-23,.cls-24,.cls-25,.cls-26,.cls-27,.cls-28,.cls-29,.cls-30{stroke-miterlimit:10;}.cls-23{fill:#d62b24;}.cls-23,.cls-24,.cls-25,.cls-26,.cls-27,.cls-28,.cls-29,.cls-30{stroke:#71100a;}.cls-24,.cls-31{fill:#fff;}.cls-25{fill:#fbceae;}.cls-27{fill:#915444;}.cls-28{fill:#fe9a81;opacity:0.5;}</style><clipPath id="clip-path"><rect class="cls-1" x="451.25" y="150" width="150" height="150"/></clipPath><clipPath id="clip-path-2"><rect class="cls-1" x="301.25" y="450" width="150" height="150"/></clipPath><clipPath id="clip-path-3"><rect class="cls-1" x="151.25" y="450" width="150" height="150"/></clipPath><clipPath id="clip-path-4"><rect class="cls-1" x="451.25" y="450" width="150" height="150"/></clipPath><clipPath id="clip-path-5"><rect class="cls-1" x="451.25" y="300" width="150" height="150"/></clipPath><clipPath id="clip-path-6"><rect class="cls-1" x="301.25" y="300" width="150" height="150"/></clipPath><clipPath id="clip-path-7"><rect class="cls-1" x="151.25" y="300" width="150" height="150"/></clipPath><clipPath id="clip-path-8"><rect class="cls-1" x="301.25" y="150" width="150" height="150"/></clipPath><clipPath id="clip-path-9"><rect class="cls-1" x="151.25" y="150" width="150" height="150"/></clipPath><clipPath id="clip-path-10"><rect class="cls-1" x="151.25" width="150" height="150"/></clipPath><clipPath id="clip-path-11"><rect class="cls-1" x="301.25" width="150" height="150"/></clipPath><clipPath id="clip-path-12"><rect class="cls-1" x="451.25" width="150" height="150"/></clipPath><clipPath id="clip-path-13"><rect class="cls-1" x="1.25" width="150" height="150"/></clipPath><clipPath id="clip-path-14"><rect class="cls-1" x="1.25" y="150" width="150" height="150"/></clipPath><clipPath id="clip-path-15"><rect class="cls-1" x="1.25" y="300" width="150" height="150"/></clipPath><clipPath id="clip-path-16"><rect class="cls-1" x="1.25" y="450" width="150" height="150"/></clipPath></defs><title>too many cooks</title><g id="background"><rect class="cls-2" x="151" y="0.5" width="412.5" height="600"/><g class="cls-3"><rect class="cls-4" x="451.25" y="150" width="150" height="150"/><rect class="cls-5" x="454.25" y="153" width="144" height="144"/></g><g class="cls-6"><rect class="cls-4" x="301.25" y="450" width="150" height="150"/><rect class="cls-5" x="304.25" y="453" width="144" height="144"/></g><g class="cls-7"><rect class="cls-4" x="151.25" y="450" width="150" height="150"/><rect class="cls-5" x="154.25" y="453" width="144" height="144"/></g><g class="cls-8"><rect class="cls-4" x="451.25" y="450" width="150" height="150"/><rect class="cls-5" x="454.25" y="453" width="144" height="144"/></g><g class="cls-9"><rect class="cls-4" x="451.25" y="300" width="150" height="150"/><rect class="cls-5" x="454.25" y="303" width="144" height="144"/></g><g class="cls-10"><rect class="cls-4" x="301.25" y="300" width="150" height="150"/><rect class="cls-5" x="304.25" y="303" width="144" height="144"/></g><g class="cls-11"><rect class="cls-4" x="151.25" y="300" width="150" height="150"/><rect class="cls-5" x="154.25" y="303" width="144" height="144"/></g><g class="cls-12"><rect class="cls-4" x="301.25" y="150" width="150" height="150"/><rect class="cls-5" x="304.25" y="153" width="144" height="144"/></g><g class="cls-13"><rect class="cls-4" x="151.25" y="150" width="150" height="150"/><rect class="cls-5" x="154.25" y="153" width="144" height="144"/></g><g class="cls-14"><rect class="cls-4" x="151.25" width="150" height="150"/><rect class="cls-5" x="154.25" y="3" width="144" height="144"/></g><g class="cls-15"><rect class="cls-4" x="301.25" width="150" height="150"/><rect class="cls-5" x="304.25" y="3" width="144" height="144"/></g><g class="cls-16"><rect class="cls-4" x="451.25" width="150" height="150"/><rect class="cls-5" x="454.25" y="3" width="144" height="144"/></g><g class="cls-17"><rect class="cls-4" x="1.25" width="150" height="150"/><rect class="cls-5" x="4.25" y="3" width="144" height="144"/></g><g class="cls-18"><rect class="cls-4" x="1.25" y="150" width="150" height="150"/><rect class="cls-5" x="4.25" y="153" width="144" height="144"/></g><g class="cls-19"><rect class="cls-4" x="1.25" y="300" width="150" height="150"/><rect class="cls-5" x="4.25" y="303" width="144" height="144"/></g><g class="cls-20"><rect class="cls-4" x="1.25" y="450" width="150" height="150"/><rect class="cls-5" x="4.25" y="453" width="144" height="144"/></g></g><g id="shadow"><ellipse class="cls-21" cx="358.25" cy="513.5" rx="76" ry="37.5"/></g><g id="left_leg" data-name="left leg"><path class="cls-22" d="M350.75,486.5c.75-.66,5.05-4.36,9-3a7.36,7.36,0,0,1,4,4c4.42,9.13-1.31,24.75,4,32s22.62,7.55,30,0c4.76-4.87.58-8.09,4-33.09a57,57,0,0,0,0-18.91,52,52,0,0,0-2-7.78h-42"/></g><g id="right_leg" data-name="right leg"><path class="cls-22" d="M362.75,486.5a8.88,8.88,0,0,0-6-2,9.06,9.06,0,0,0-5.7,3c-6.77,6.88,2.47,23.23-4.11,32-5.43,7.24-23.19,7.55-30.77,0-4.88-4.87-.59-8.09-4.1-33.09a55.88,55.88,0,0,1,0-18.91,52.27,52.27,0,0,1,2.05-7.78H357.2"/></g><g id="torso"><path class="cls-23" d="M312.28,458.31l-.63,7.77,91.1-.58c-.12-3.26-.23-6.53-.35-9.79-11.38-18.77-30.91-29-50.57-26.31C326.77,432.8,313.84,455.47,312.28,458.31Z"/><path class="cls-24" d="M359.07,365.5c.82-.92,6-6.64,13.83-6.19,6.6.38,12.5,5,15.33,12,2.06,5.91,4.77,14.16,7.52,24.16s5.26,19.1,7,31a192.47,192.47,0,0,1,2,30h-18Q372.91,411,359.07,365.5Z"/><path class="cls-24" d="M336.51,365,320.75,396.5a74,74,0,0,0-13.23,37,72.3,72.3,0,0,0,2.58,24.66l62.16-.87a77.34,77.34,0,0,0,8.14-19.59c8.93-34.3-8.55-64.9-12.88-72Z"/><ellipse class="cls-24" cx="344.6" cy="441.85" rx="3.89" ry="3.5" transform="translate(-116.35 760.45) rotate(-86.7)"/><ellipse class="cls-24" cx="344.89" cy="418.53" rx="3.89" ry="3.5" transform="translate(-92.8 738.75) rotate(-86.7)"/><ellipse class="cls-24" cx="346.23" cy="397.15" rx="3.89" ry="3.5" transform="translate(-70.19 719.95) rotate(-86.7)"/><ellipse class="cls-24" cx="367.2" cy="397.3" rx="3.89" ry="3.5" transform="translate(-50.58 741.03) rotate(-86.7)"/><ellipse class="cls-24" cx="369.91" cy="418.8" rx="3.89" ry="3.5" transform="translate(-69.49 763.99) rotate(-86.7)"/><ellipse class="cls-24" cx="369.63" cy="442.12" rx="3.89" ry="3.5" transform="translate(-93.04 785.69) rotate(-86.7)"/></g><g id="left_limb" data-name="left limb"><g id="left_arm" data-name="left arm"><path class="cls-24" d="M388.75,393.5c.51,1,1.22,2.34,2,4,2.6,5.31,4.45,9.9,5.34,12.34a113.58,113.58,0,0,1,5.81,23.66l20.07-24a72.43,72.43,0,0,0-8.92-14c-5.85-7.16-7.22-7.11-8.92-11a29.05,29.05,0,0,0-2.42-5,28.25,28.25,0,0,0-3.16-4,32.67,32.67,0,0,0-5.57-5c-5.13-3.25-11.95-1.65-14.27-1"/><path class="cls-24" d="M388.56,400.5a23.32,23.32,0,0,1,14.49-5c10.3.16,19.52,7.67,20.08,14,.14,1.67-.34,3,0,7s1,5.06,1.11,7c.22,4.77-3.37,10.81-8.92,13-6.7,2.64-16.2-.34-21.19-8a25.8,25.8,0,0,1-7.8-16A23.75,23.75,0,0,1,388.56,400.5Z"/></g><g id="left_hand" data-name="left hand"><path class="cls-25" d="M395.25,407.5a7.94,7.94,0,0,1,2.28-1.62,8.72,8.72,0,0,1,1.06-.38c1.76-.55,3.72,0,5.58,0s-3.82-.55-5.58,0a8.72,8.72,0,0,0-1.06.38,7.94,7.94,0,0,0-2.28,1.62,6.27,6.27,0,0,0,1.11,6,6.93,6.93,0,0,0,3.35,2,37.68,37.68,0,0,0,14.49-3,33,33,0,0,0,3.84-1.86,6.22,6.22,0,0,0,2.85-3.14c1.27-3.42-1.13-7.88-4.46-9-1.76-.59-2.35.52-6.69,1-3.19.36-4.14-.06-7.8,0a48.75,48.75,0,0,0-8.92,1,13.25,13.25,0,0,0-4.46,6,12,12,0,0,0,0,8,4.72,4.72,0,0,0,5.57,2,4,4,0,0,0,2.23-3,6.47,6.47,0,0,1-1.11-2A6.26,6.26,0,0,1,395.25,407.5Z"/><path class="cls-25" d="M420.89,414.5a4.5,4.5,0,0,0-3.34-3c-1.24-.19-2.19.41-3.35,1a27.07,27.07,0,0,1-11.15,3,16.15,16.15,0,0,1-5.23-.8,5.8,5.8,0,0,0-2.57,4.8,5.64,5.64,0,0,0,2.23,4,25.46,25.46,0,0,0,16.72,0C417.86,422.14,421.87,417.71,420.89,414.5Z"/><path class="cls-25" d="M408.63,432.5c-2.72.22-7.07.58-10-2-2.58-2.24-3.46-6.13-2.23-7,.73-.51,1.71.35,4.46,1a23.62,23.62,0,0,0,10,0c3.94-.95,5-2.64,6.69-2s2.76,3.12,2.23,5C418.6,431.69,409.93,432.39,408.63,432.5Z"/><path class="cls-25" d="M398.59,436.5a3.3,3.3,0,0,1,0-4c1.71-1.76,5.18.78,11.15,0,5-.65,7.61-3,8.92-2,1,.76.78,2.73,0,4-.28.46-1.39,2.07-7.8,3C403.69,438.54,400,438.46,398.59,436.5Z"/></g></g><g id="right_limb" data-name="right limb"><g id="right_arm" data-name="right arm"><path class="cls-24" d="M324.75,394.5a54.41,54.41,0,0,0-3.6,4.73,71.9,71.9,0,0,0-5.74,10.87,114.06,114.06,0,0,0-8,24.2q-5.83-12.41-11.68-24.8c-1.78.59-2.61.4-3,0-1.56-1.6,1.63-8.8,6.54-13.93,2.14-2.24,7.44-7.12,9.09-10.25,2.13-4,1.14-4.84,3.25-8,.14-.2.35-.52.65-.92a19,19,0,0,1,11.42-7l11.05,2.08"/><path class="cls-24" d="M324,402.45a19.69,19.69,0,0,0-12.58-6c-9.22-.53-18,6.33-19,12.6-.25,1.65.07,3-.52,7s-1.3,5-1.53,6.91c-.56,4.73,2.2,11,7,13.56,5.79,3.09,14.51.75,19.55-6.54a27,27,0,0,0,8.18-15.43A26.11,26.11,0,0,0,324,402.45Z"/></g><g id="right_hand" data-name="right hand"><path class="cls-25" d="M317.48,409a7.19,7.19,0,0,0-1.92-1.77,6.61,6.61,0,0,0-.92-.45c-1.53-.67-3.32-.25-5-.38s3.45-.29,5,.38a6.61,6.61,0,0,1,.92.45,7.19,7.19,0,0,1,1.92,1.77,6.83,6.83,0,0,1-1.45,5.91,6.23,6.23,0,0,1-3.14,1.77,31.09,31.09,0,0,1-12.74-4,27.5,27.5,0,0,1-3.28-2.12,6,6,0,0,1-2.32-3.32c-.88-3.49,1.6-7.78,4.66-8.67,1.63-.48,2.07.67,5.91,1.44,2.83.58,3.71.22,7,.53a39.27,39.27,0,0,1,7.9,1.6,13.13,13.13,0,0,1,2.94,14.26,3.62,3.62,0,0,1-6.91-1.52,6.78,6.78,0,0,0,1.15-1.92A7.06,7.06,0,0,0,317.48,409Z"/><path class="cls-25" d="M294,414.23a4.25,4.25,0,0,1,3.22-2.77c1.12-.1,1.92.55,2.91,1.23a22.44,22.44,0,0,0,9.75,3.74,12.8,12.8,0,0,0,4.74-.45,6,6,0,0,1,1.94,5,5.76,5.76,0,0,1-2.3,3.83,20.55,20.55,0,0,1-14.95-1.13C296.15,422.05,292.91,417.36,294,414.23Z"/><path class="cls-25" d="M303.63,433c2.41.4,6.28,1.05,9.13-1.32,2.48-2.06,3.56-5.88,2.52-6.83-.61-.56-1.56.24-4.06.7a19.06,19.06,0,0,1-9-.68c-3.45-1.22-4.24-3-5.83-2.45s-2.7,2.92-2.37,4.84C294.77,431.52,302.48,432.81,303.63,433Z"/><path class="cls-25" d="M312.31,437.67a3.62,3.62,0,0,0,.3-4c-1.39-1.87-4.69.43-10-.75-4.43-1-6.58-3.49-7.83-2.6-1,.69-.9,2.67-.3,4,.22.48,1.09,2.17,6.75,3.52C307.6,439.36,310.89,439.53,312.31,437.67Z"/></g></g><g id="neck"><g id="scarf"><path class="cls-23" d="M312.75,376.5c-.22-2-.52-7.52,3-12,3.07-3.91,7.32-4.95,13-6,8.26-1.52,16.48-3,24,2a23.87,23.87,0,0,1,9,12c-13.91,9.17-21,9.17-25,7a18,18,0,0,0-4.48-2.11c-1.64-.49-2.24-.38-3.52-.89-2.24-.89-3-2.3-4-3C323.18,372.37,320,372.22,312.75,376.5Z"/><path class="cls-23" d="M399.75,376.5a17.06,17.06,0,0,0-3-10c-2.85-4-6.77-5.31-12-7-7.53-2.43-15.27-4.94-19-1-3.32,3.51-1.56,10.12-1,12,9,6.71,12.49,7.1,14,6,.63-.46.75-1.06,2-2a10.51,10.51,0,0,1,6-2,14.19,14.19,0,0,1,5,1A81,81,0,0,1,399.75,376.5Z"/></g><g id="neck_base" data-name="neck base"><path class="cls-25" d="M345.75,357.5c-.52,2.14,1,3.24,2,7a20.85,20.85,0,0,1,0,10,40.51,40.51,0,0,0,18,0,31.75,31.75,0,0,1,3-18c-1.11-1.09-5.59-5.24-12-5C352.52,351.66,346.66,353.75,345.75,357.5Z"/><path class="cls-23" d="M345.75,357.5c.34,1.24,4.19,1.15,10,1,6.3-.16,12.71-.32,13-2s-5.8-5.36-12-5C350.77,351.85,345.3,355.88,345.75,357.5Z"/></g><g id="ribbon"><path class="cls-23" d="M346.94,369.5a11.85,11.85,0,0,1,3.35,1,10.5,10.5,0,0,1,4.46,4c.66,3.72-.63,5.54-1,6-2.52,3.19-9.37,3.49-16-1"/><path class="cls-23" d="M367.75,369.5a9.79,9.79,0,0,0-3,1,9.93,9.93,0,0,0-4,4,12.13,12.13,0,0,0,7,5,12.41,12.41,0,0,0,12-4"/><path class="cls-23" d="M351.75,374.5c-3.21,2.39-2.81,9.4,0,11,.74.42,2.14.28,4.95,0,2.16-.22,3.26-.34,4.12-1a5.8,5.8,0,0,0,1.95-4c.06-.45.47-4.15-2-6a6.52,6.52,0,0,0-4-1C355.35,373.45,353.26,373.37,351.75,374.5Z"/><path class="cls-23" d="M356,379.39c-1.59-1.28-7.94-6.1-15.78-4.8-4.26.7-7.23,3.14-11.34,6.43a51.35,51.35,0,0,0-9.13,9.48,32.54,32.54,0,0,0,9.52,2.56,43.69,43.69,0,0,0,10-.5C341.55,392.19,348.74,390.49,356,379.39Z"/><path class="cls-23" d="M355.75,379.5c4.28-3,12-7.32,19-5,3.08,1,6.05,3.34,12,8,2.56,2,4.61,3.76,6,5a28.34,28.34,0,0,1-13,4,27.52,27.52,0,0,1-9-1A28.63,28.63,0,0,1,355.75,379.5Z"/></g></g><g id="head"><g id="head_base" data-name="head base"><path class="cls-25" d="M352.75,191c-8-.24-21.79.69-35,9-8.17,5.14-13.08,11.18-17,16-8.8,10.83-12.91,21.11-16,29a106,106,0,0,0-6,21c-2.48,14.56-.15,24.64,2,25h5c-5.65-.38-10.66,3.15-12,8-1.6,5.78,2.28,12.47,9,14,1.8,6.69,7.26,23.24,23,34.5,13.93,10,28.11,10.21,45,10.5,19.19.33,41.28.69,57-15,9.27-9.25,12.63-20.44,14-27,7.82-2.91,11.82-10.67,10-17-1.93-6.73-9.59-8.89-10-9a64.78,64.78,0,0,0,4-25c-.74-17.87-9-30.64-15-40-5.34-8.29-10-15.45-19-22C375.76,191.42,358.74,191.18,352.75,191Z"/><path class="cls-26" d="M281.75,298a7,7,0,0,1,3,5,3.64,3.64,0,0,1-1,3,3.24,3.24,0,0,1-4,0c-1-.85-1.54-2.51-1-3s1.73,0,3,1"/><path class="cls-26" d="M423.75,296c-1.3,1-4.31,3.47-4.89,7.4-.15,1.05-.4,2.74.66,3.92a4.28,4.28,0,0,0,5.28.45c2.56-1.72,2.14-6.25.95-6.77-.45-.19-1.29.06-3,2"/></g><g id="facial_hair" data-name="facial hair"><path class="cls-27" d="M290.75,302a23.57,23.57,0,0,0-7,12c-2.23,9.92,3.08,17.7,4,19,3.62,4.06,27.59,30,67,30,5.44,0,40.75-.6,67-30a26.35,26.35,0,0,0,1-16,26,26,0,0,0-6-11c-2.5,3.86-20.11,30.14-53,34C335.15,343.35,306.41,328.42,290.75,302Z"/><path class="cls-26" d="M295.75,310a21.87,21.87,0,0,0-6,7,23.26,23.26,0,0,0-2,16"/><path class="cls-26" d="M323.75,333a53.35,53.35,0,0,0-6,22"/><path class="cls-26" d="M303.75,319a34,34,0,0,0-9,21"/><path class="cls-26" d="M411.61,313a24,24,0,0,1,6.14,9,24.37,24.37,0,0,1,1,14"/><path class="cls-26" d="M403.58,321.24A22.51,22.51,0,0,1,410.75,333a22.15,22.15,0,0,1,0,10"/><path class="cls-26" d="M394.75,328a27.69,27.69,0,0,1,7.77,21.08"/><path class="cls-26" d="M386.75,333a32.26,32.26,0,0,1,6,21"/><path class="cls-26" d="M376.86,337a36,36,0,0,1,3.89,22"/><path class="cls-26" d="M363.75,340a41.08,41.08,0,0,1,3,22"/><path class="cls-26" d="M351.76,340.5a71.14,71.14,0,0,0-2,22.5"/><path class="cls-26" d="M336.75,338a64,64,0,0,0-4,22"/><path class="cls-26" d="M312.75,326a33.11,33.11,0,0,0-5,9,33.51,33.51,0,0,0-2,13"/><path class="cls-27" d="M314.75,332.5a36.68,36.68,0,0,1,8-14.5,38.79,38.79,0,0,1,15-10c7.3-2.71,13.38-2.37,20-2,6.16.34,12.07.67,19,4a39.39,39.39,0,0,1,20,22c-4.8,2.93-11.41,5.78-18,4-11.5-3.1-12.72-17.54-21-18-8.91-.49-11.83,16.25-25,19C326,338.42,319.49,335.51,314.75,332.5Z"/><path class="cls-26" d="M374.75,309a43.74,43.74,0,0,1,12,27"/><path class="cls-26" d="M365.75,307a36.8,36.8,0,0,0,2,13,37.29,37.29,0,0,0,11,16"/><path class="cls-26" d="M357.75,306v12"/><path class="cls-26" d="M349.75,306a33.53,33.53,0,0,1-1,11,35.84,35.84,0,0,1-13,19"/><path class="cls-26" d="M340.75,307a46.12,46.12,0,0,0-15,30"/><path class="cls-27" d="M326.67,243a12.89,12.89,0,0,1,4.27,4.49,13.06,13.06,0,0,1,1.61,7.62,92.26,92.26,0,0,0-14.29,3.16,90.76,90.76,0,0,0-15,6.12,51.82,51.82,0,0,1,.39-6.83,50.77,50.77,0,0,1,1.36-6.9,81.15,81.15,0,0,1,11.24-4.84A79.78,79.78,0,0,1,326.67,243Z"/><path class="cls-27" d="M309.75,260.94l-1-12.05"/><path class="cls-27" d="M314.35,246.48q1,6,2,12"/><line class="cls-27" x1="320.01" y1="244.54" x2="323" y2="256.91"/><line class="cls-27" x1="325.71" y1="243.09" x2="328.7" y2="255.45"/><path class="cls-27" d="M382.56,243a13.22,13.22,0,0,0-4.5,4.43,12.28,12.28,0,0,0-1.7,7.53,101,101,0,0,1,15.07,3.12,99.09,99.09,0,0,1,15.82,6,46.3,46.3,0,0,0-.42-6.74,47.8,47.8,0,0,0-1.42-6.82,90.07,90.07,0,0,0-11.85-4.77A91.13,91.13,0,0,0,382.56,243Z"/><path class="cls-27" d="M400.4,260.74l1.07-11.89"/><path class="cls-27" d="M395.55,246.46q-1.05,5.91-2.09,11.82"/><line class="cls-27" x1="389.58" y1="244.55" x2="386.43" y2="256.76"/><line class="cls-27" x1="383.57" y1="243.12" x2="380.42" y2="255.33"/></g><g id="face"><path class="cls-25" d="M352.75,290.5a9.26,9.26,0,0,1,7,0c.75.28,4.78,1.77,6,6a8.9,8.9,0,0,1-1,7,9.31,9.31,0,0,1-7,4,9.62,9.62,0,0,1-8-3,9.33,9.33,0,0,1-2-8A9.22,9.22,0,0,1,352.75,290.5Z"/><path class="cls-28" d="M352.75,290.5a9.26,9.26,0,0,1,7,0c.75.28,4.78,1.77,6,6a8.9,8.9,0,0,1-1,7,9.31,9.31,0,0,1-7,4,9.62,9.62,0,0,1-8-3,9.33,9.33,0,0,1-2-8A9.22,9.22,0,0,1,352.75,290.5Z"/><path class="cls-29" d="M362.75,324c.25,2.56-2.46,4.79-5,5-3,.25-6.24-2.36-6-5,.21-2.32,3-4,5.5-4S362.51,321.5,362.75,324Z"/><path class="cls-24" d="M313.77,308c3.75.15,6.45-1.9,10.18-4.62a27,27,0,0,0,8.32-9.25c1.14-2.13,4.26-8.18,2.77-15.72-.5-2.53-1.84-9.86-7.39-12-3.8-1.48-7.63.2-9.25.92-7.45,3.28-10.69,10.54-12.95,15.72-2.82,6.49-5,11.42-2.77,16.65C304.44,303.88,308.82,307.79,313.77,308Z"/><path class="cls-29" d="M335,278.4a26.31,26.31,0,0,1-1.85,13.87,26.84,26.84,0,0,1-12,13c-4.87-6.16-5.14-14.55-.92-20.35C325.4,277.79,334.52,278.36,335,278.4Z"/><path class="cls-30" d="M333.75,290.5c-1.49,4.1-5.36,11.62-8.91,11-2.5-.42-4.34-4.78-4.12-8.32.51-7.92,11.45-13.64,14-11.7C336.53,282.84,334.64,288.06,333.75,290.5Z"/><path class="cls-31" d="M331.69,286.26a1.5,1.5,0,0,0,0-3,1.5,1.5,0,0,0,0,3Z"/><path class="cls-24" d="M398.08,308.07c-3.5.15-6-1.91-9.52-4.63a26.29,26.29,0,0,1-7.79-9.24,24.91,24.91,0,0,1-2.6-15.73c.47-2.53,1.73-9.86,6.93-12,3.55-1.47,7.13.21,8.65.93,7,3.28,10,10.53,12.12,15.72,2.65,6.49,4.65,11.42,2.6,16.64C406.82,304,402.72,307.87,398.08,308.07Z"/><path class="cls-29" d="M378.17,278.47a28.18,28.18,0,0,0,1.73,13.88,26.06,26.06,0,0,0,11.26,12.94c4.55-6.15,4.81-14.54.86-20.34C387.2,277.86,378.66,278.43,378.17,278.47Z"/><path class="cls-30" d="M379.75,291.5c1.25,3.41,4.71,10.61,8,10.09,2.38-.37,4.19-4.74,3.86-8.32-.68-7.33-10.43-12.52-12.83-10.77C376.93,283.82,379,289.37,379.75,291.5Z"/><path class="cls-31" d="M380.44,286.26a1.5,1.5,0,0,0,0-3,1.5,1.5,0,0,0,0,3Z"/></g><g id="hair"><path class="cls-27" d="M366.75,192c.11-.43,6.71.94,7,1,12.88,2.69,23.41,13.32,27,17a83.24,83.24,0,0,1,20,34c1.88,6.49-.23,2.09,4,32,1,6.93,2,13.32-1,20.5a29.12,29.12,0,0,1-7,10,56,56,0,0,0,0-23.5c-7.83-35.88-4.8-40.59-13-56-9.82-18.47-24.13-30.35-32-33C370.91,193.72,366.66,192.35,366.75,192Z"/><path class="cls-27" d="M366.75,192c.05-.23,1.88,0,2,0,23.78,6.09,36,18,36,18,4.33,4.22,16.07,15.95,20,34,2.56,11.78-.11,17.47,4,32a84.54,84.54,0,0,0,8,19,23.15,23.15,0,0,1-11-5c-8.27-7.08-7.4-18-10-32a104.73,104.73,0,0,0-13-35s-11.05-18.27-27-27c-2.41-1.32-4-2-4-2C368.91,192.78,366.7,192.25,366.75,192Z"/><path class="cls-27" d="M347.75,191c-4.61-.55-36.15-3.83-55.26,17.32-10.82,12-13.18,26.83-14.74,36.68-1.31,8.25-4,25,2,41,1.64,4.39,3.85,8.43,4,15,.26,11.33-5.78,19.57-5,20s6.18-6,11.13-16.47c2.19-4.6,12.58-26.5,9.87-50.53a48.35,48.35,0,0,1,0-15,54,54,0,0,1,6-16C316.35,204.57,346.17,191.67,347.75,191Z"/><path class="cls-27" d="M343.75,191c-12.07-.64-37.72,0-55.26,17.32-12,11.87-20.77,32.14-21.74,50.68-.46,8.78.17,29.74-8,42-.67,1-2.47,3.55-2,4,.89.85,9.85-6.06,17-15a81.77,81.77,0,0,0,5.11-7.23c9.88-16.18,7.44-44.88,13.21-59.94C296.29,211.81,308.46,198.85,343.75,191Z"/><path class="cls-27" d="M367.75,192c-5.86-1.72-29-7.75-53.55,4.13-23.08,11.17-32.74,31.08-35.45,36.87a92.42,92.42,0,0,0-8,30c-.39,4.71-3.71,16.11-2,32,1.66,15.35,6.71,29.26,8,29,.88-.17-.59-6.81,0-18a114.66,114.66,0,0,1,3-20c4.7-21.59,9.39-21.88,14-42,2.27-9.91,2.11-14,6-21a52.34,52.34,0,0,1,13-15,71.49,71.49,0,0,1,27-14A72.91,72.91,0,0,1,367.75,192Z"/><path class="cls-27" d="M368.75,192c-3.26-.81-41-9.63-65,13-11.29,10.64-16.41,25.25-17,27-8.56,25.4-11.17,44.69-11,61,.18,17.64,2.68,25,8,30a25.31,25.31,0,0,0,12,6,29.63,29.63,0,0,1-9-12s-5-12.75,7-46c.13-.35.26-.71.38-1.06l.14-.38c6.05-17.34,2.05-27.09,4.48-37.56,2-8.81,7.71-14.14,15-21C334.3,191.66,361.47,191.75,368.75,192Z"/><path class="cls-27" d="M366.75,192c.11-.43,6.71.94,7,1,12.88,2.69,23.41,13.32,27,17a83.24,83.24,0,0,1,20,34c2.42,8.38,1.59,10.81,4,32,1.42,12.45,2.95,22.53,4,29-1.8-3.66-4.26-8.78-7-15a296.61,296.61,0,0,1-11-28c-7-22.06-1.1-21.55-7-35-7.83-17.85-23.23-30.05-32-33C370.91,193.72,366.66,192.35,366.75,192Z"/></g></g><g id="hat"><path class="cls-24" d="M311,191.26c-2.74-2.34-5.44-7-5.85-7.82A49.58,49.58,0,0,1,300.84,171a120.84,120.84,0,0,1,37.2-7.33,130.68,130.68,0,0,1,60.9,12.85,60.78,60.78,0,0,1-5.84,12.62,62.86,62.86,0,0,1-7.06,9.45c-15.25-9.66-27.42-11.2-35.86-10.72C333.56,188.8,319.22,198.26,311,191.26Z"/><path class="cls-24" d="M305.59,157.14a10.16,10.16,0,0,1-.71,3.48c-.86,2.66-2.1,4.55-4.36,7.91-.54.81-1.28,1.9-1.66,2.4-3.13,4.2-10.5,8.25-15.53,9.56-12,3.11-28.78-4.59-37.41-16.5-9.58-13.23-8.1-30.3.7-41.94,8.63-11.42,21.92-14.46,25.69-15.2A51.34,51.34,0,0,1,279,75.93c1.85-3.14,11.9-21,30.77-24.1a42,42,0,0,1,16.9,1c5.68,1.44,14.06,4.77,17.66,8.73a24.63,24.63,0,0,0,6.75,5.73,8.61,8.61,0,0,0,1,.59c.07-.09-7.9-3.67-7.74-6.32.3-5.26,33-13.73,50.67-1.58a47.39,47.39,0,0,1,15.53,18.52c.12.3.22.54.28.71a40.49,40.49,0,0,1-.16,29.72c2.31-.44,13-2.21,22.35,3.81,11.21,7.2,11.69,20.47,11.84,23.31.67,12.57-6,27.93-19.83,32.89s-27-3.3-27.53-3.64-3.48-2.63-3.52-2.67h0l.08.07c4,4.08,7,5.26,7,5.26,3,1.24,4.49.32,5,1.21s-.59,3.16-7.36,8.7a98.48,98.48,0,0,0-96.26-2.94c-1.2-.66-3.16-2-3.19-3.59a4.26,4.26,0,0,1,1.34-2.76C304.71,163.78,305.26,157,305.59,157.14Z"/><polyline class="cls-24" points="308.41 172.11 305.86 169.24 303.31 166.37"/><line class="cls-24" x1="318.18" y1="152.17" x2="327.36" y2="166.78"/><path class="cls-24" d="M349.89,145.81l-1.66,17.8"/><path class="cls-24" d="M370.77,166.36l5.14-13.17"/><line class="cls-24" x1="398.12" y1="165.79" x2="390.8" y2="173.5"/></g></svg>