<svg id="Layer_2" data-name="Layer 2" xmlns="http://www.w3.org/2000/svg" viewBox="0 0 1920 1080"><defs><style>.cls-1{fill:#b3dfe1;}.cls-2{opacity:0.2;}.cls-3{fill:#fff;}.cls-4{opacity:0.5;}.cls-5{opacity:0.8;}</style></defs><title>background</title><rect class="cls-1" x="1.99" width="1918.01" height="1080"/><g class="cls-2"><ellipse class="cls-3" cx="0.63" cy="17.89" rx="61.64" ry="54.89"/><ellipse class="cls-3" cx="75.12" cy="22.87" rx="60.26" ry="53.66"/><ellipse class="cls-3" cx="93.57" cy="59.99" rx="64.43" ry="57.37"/><rect class="cls-3" x="-92.67" y="36.57" width="169.42" height="76.85"/></g><g class="cls-4"><ellipse class="cls-3" cx="585.06" cy="63.42" rx="56.87" ry="50.64"/><ellipse class="cls-3" cx="627.4" cy="37.02" rx="56.87" ry="50.64"/><ellipse class="cls-3" cx="686.83" cy="16.3" rx="61.64" ry="54.89"/><ellipse class="cls-3" cx="761.31" cy="21.28" rx="60.26" ry="53.66"/><ellipse class="cls-3" cx="779.76" cy="58.41" rx="64.43" ry="57.37"/><rect class="cls-3" x="593.52" y="34.98" width="169.42" height="76.85"/></g><g class="cls-2"><ellipse class="cls-3" cx="1156.86" cy="67.26" rx="56.87" ry="50.64"/><ellipse class="cls-3" cx="1199.2" cy="40.86" rx="56.87" ry="50.64"/><ellipse class="cls-3" cx="1258.63" cy="20.14" rx="61.64" ry="54.89"/><ellipse class="cls-3" cx="1333.12" cy="25.12" rx="60.26" ry="53.66"/><ellipse class="cls-3" cx="1351.57" cy="62.25" rx="64.43" ry="57.37"/><rect class="cls-3" x="1165.32" y="38.82" width="169.42" height="76.85"/></g><g class="cls-2"><ellipse class="cls-3" cx="1590.89" cy="181.61" rx="56.87" ry="50.64"/><ellipse class="cls-3" cx="1633.23" cy="155.2" rx="56.87" ry="50.64"/><ellipse class="cls-3" cx="1692.65" cy="134.49" rx="61.64" ry="54.89"/><ellipse class="cls-3" cx="1767.14" cy="139.47" rx="60.26" ry="53.66"/><ellipse class="cls-3" cx="1785.59" cy="176.59" rx="64.43" ry="57.37"/><rect class="cls-3" x="1599.35" y="153.17" width="169.42" height="76.85"/></g><g class="cls-4"><ellipse class="cls-3" cx="1862.38" cy="533.23" rx="56.87" ry="50.64"/><ellipse class="cls-3" cx="1904.72" cy="506.82" rx="56.87" ry="50.64"/><ellipse class="cls-3" cx="1964.15" cy="486.11" rx="61.64" ry="54.89"/><rect class="cls-3" x="1870.84" y="504.79" width="169.42" height="76.85"/></g><g class="cls-2"><ellipse class="cls-3" cx="1569.01" cy="991.9" rx="56.87" ry="50.64"/><ellipse class="cls-3" cx="1611.35" cy="965.49" rx="56.87" ry="50.64"/><ellipse class="cls-3" cx="1670.78" cy="944.78" rx="61.64" ry="54.89"/><ellipse class="cls-3" cx="1745.26" cy="949.76" rx="60.26" ry="53.66"/><ellipse class="cls-3" cx="1763.72" cy="986.88" rx="64.43" ry="57.37"/><rect class="cls-3" x="1577.47" y="963.46" width="169.42" height="76.85"/></g><g class="cls-2"><ellipse class="cls-3" cx="930.2" cy="1051.77" rx="56.87" ry="50.64"/><ellipse class="cls-3" cx="972.54" cy="1025.36" rx="56.87" ry="50.64"/><ellipse class="cls-3" cx="1031.97" cy="1004.65" rx="61.64" ry="54.89"/><ellipse class="cls-3" cx="1106.46" cy="1009.63" rx="60.26" ry="53.66"/><ellipse class="cls-3" cx="1124.91" cy="1046.75" rx="64.43" ry="57.37"/><rect class="cls-3" x="938.66" y="1023.33" width="169.42" height="76.85"/></g><g class="cls-2"><ellipse class="cls-3" cx="540.79" cy="1088.89" rx="56.87" ry="50.64"/><ellipse class="cls-3" cx="583.13" cy="1062.48" rx="56.87" ry="50.64"/><ellipse class="cls-3" cx="642.56" cy="1041.77" rx="61.64" ry="54.89"/><ellipse class="cls-3" cx="717.04" cy="1046.75" rx="60.26" ry="53.66"/><ellipse class="cls-3" cx="735.5" cy="1083.88" rx="64.43" ry="57.37"/><rect class="cls-3" x="549.25" y="1060.45" width="169.42" height="76.85"/></g><g class="cls-2"><ellipse class="cls-3" cx="113.04" cy="954.34" rx="56.87" ry="50.64"/><ellipse class="cls-3" cx="155.38" cy="927.93" rx="56.87" ry="50.64"/><ellipse class="cls-3" cx="214.81" cy="907.22" rx="61.64" ry="54.89"/><ellipse class="cls-3" cx="289.29" cy="912.2" rx="60.26" ry="53.66"/><ellipse class="cls-3" cx="307.75" cy="949.32" rx="64.43" ry="57.37"/><rect class="cls-3" x="121.5" y="925.9" width="169.42" height="76.85"/></g><g class="cls-4"><ellipse class="cls-3" cx="-23.93" cy="599.14" rx="56.87" ry="50.64"/><ellipse class="cls-3" cx="35.5" cy="578.43" rx="61.64" ry="54.89"/><ellipse class="cls-3" cx="109.99" cy="583.41" rx="60.26" ry="53.66"/><ellipse class="cls-3" cx="128.44" cy="620.53" rx="64.43" ry="57.37"/><rect class="cls-3" x="-57.81" y="597.11" width="169.42" height="76.85"/></g><g class="cls-4"><ellipse class="cls-3" cx="1814.95" cy="138.89" rx="56.87" ry="50.64"/><ellipse class="cls-3" cx="1857.29" cy="112.48" rx="56.87" ry="50.64"/><ellipse class="cls-3" cx="1916.72" cy="91.77" rx="61.64" ry="54.89"/><rect class="cls-3" x="1823.41" y="110.45" width="169.42" height="76.85"/></g><g class="cls-4"><ellipse class="cls-3" cx="1656.95" cy="1088.89" rx="56.87" ry="50.64"/><ellipse class="cls-3" cx="1699.29" cy="1062.48" rx="56.87" ry="50.64"/><ellipse class="cls-3" cx="1758.72" cy="1041.77" rx="61.64" ry="54.89"/><ellipse class="cls-3" cx="1833.2" cy="1046.75" rx="60.26" ry="53.66"/><ellipse class="cls-3" cx="1851.66" cy="1083.88" rx="64.43" ry="57.37"/><rect class="cls-3" x="1665.41" y="1060.45" width="169.42" height="76.85"/></g><g class="cls-4"><ellipse class="cls-3" cx="189.78" cy="1011.71" rx="56.87" ry="50.64"/><ellipse class="cls-3" cx="232.12" cy="985.3" rx="56.87" ry="50.64"/><ellipse class="cls-3" cx="291.55" cy="964.59" rx="61.64" ry="54.89"/><ellipse class="cls-3" cx="366.04" cy="969.57" rx="60.26" ry="53.66"/><ellipse class="cls-3" cx="384.49" cy="1006.7" rx="64.43" ry="57.37"/><rect class="cls-3" x="198.24" y="983.27" width="169.42" height="76.85"/></g><g class="cls-4"><ellipse class="cls-3" cx="-38.79" cy="1005.11" rx="56.87" ry="50.64"/><ellipse class="cls-3" cx="20.64" cy="984.4" rx="61.64" ry="54.89"/><ellipse class="cls-3" cx="95.12" cy="989.38" rx="60.26" ry="53.66"/><ellipse class="cls-3" cx="113.58" cy="1026.51" rx="64.43" ry="57.37"/><rect class="cls-3" x="-72.67" y="1003.08" width="169.42" height="76.85"/></g><g class="cls-5"><ellipse class="cls-3" cx="-22.33" cy="146.14" rx="56.87" ry="50.64"/><ellipse class="cls-3" cx="20.01" cy="119.73" rx="56.87" ry="50.64"/><ellipse class="cls-3" cx="79.43" cy="99.02" rx="61.64" ry="54.89"/><ellipse class="cls-3" cx="153.92" cy="104" rx="60.26" ry="53.66"/><ellipse class="cls-3" cx="172.37" cy="141.13" rx="64.43" ry="57.37"/><rect class="cls-3" x="-13.87" y="117.7" width="169.42" height="76.85"/></g><g class="cls-5"><ellipse class="cls-3" cx="427.06" cy="138.24" rx="56.87" ry="50.64"/><ellipse class="cls-3" cx="469.4" cy="111.83" rx="56.87" ry="50.64"/><ellipse class="cls-3" cx="528.83" cy="91.12" rx="61.64" ry="54.89"/><ellipse class="cls-3" cx="603.31" cy="96.1" rx="60.26" ry="53.66"/><ellipse class="cls-3" cx="621.76" cy="133.22" rx="64.43" ry="57.37"/><rect class="cls-3" x="435.52" y="109.8" width="169.42" height="76.85"/></g><g class="cls-5"><ellipse class="cls-3" cx="1727.01" cy="240.25" rx="56.87" ry="50.64"/><ellipse class="cls-3" cx="1769.35" cy="213.84" rx="56.87" ry="50.64"/><ellipse class="cls-3" cx="1828.78" cy="193.13" rx="61.64" ry="54.89"/><ellipse class="cls-3" cx="1903.26" cy="198.11" rx="60.26" ry="53.66"/><ellipse class="cls-3" cx="1921.72" cy="235.23" rx="64.43" ry="57.37"/><rect class="cls-3" x="1735.47" y="211.81" width="169.42" height="76.85"/></g><g class="cls-5"><ellipse class="cls-3" cx="1769.71" cy="627.13" rx="56.87" ry="50.64"/><ellipse class="cls-3" cx="1812.05" cy="600.72" rx="56.87" ry="50.64"/><ellipse class="cls-3" cx="1871.48" cy="580.01" rx="61.64" ry="54.89"/><ellipse class="cls-3" cx="1945.96" cy="584.99" rx="60.26" ry="53.66"/><ellipse class="cls-3" cx="1964.42" cy="622.12" rx="64.43" ry="57.37"/><rect class="cls-3" x="1778.17" y="598.69" width="169.42" height="76.85"/></g><g class="cls-5"><ellipse class="cls-3" cx="1411.01" cy="1069.08" rx="56.87" ry="50.64"/><ellipse class="cls-3" cx="1453.35" cy="1042.67" rx="56.87" ry="50.64"/><ellipse class="cls-3" cx="1512.78" cy="1021.96" rx="61.64" ry="54.89"/><ellipse class="cls-3" cx="1587.26" cy="1026.94" rx="60.26" ry="53.66"/><ellipse class="cls-3" cx="1605.72" cy="1064.07" rx="64.43" ry="57.37"/><rect class="cls-3" x="1419.47" y="1040.64" width="169.42" height="76.85"/></g><g class="cls-5"><ellipse class="cls-3" cx="-18.86" cy="1100.82" rx="56.87" ry="50.64"/><ellipse class="cls-3" cx="23.48" cy="1074.42" rx="56.87" ry="50.64"/><ellipse class="cls-3" cx="82.91" cy="1053.7" rx="61.64" ry="54.89"/><ellipse class="cls-3" cx="157.4" cy="1058.68" rx="60.26" ry="53.66"/><ellipse class="cls-3" cx="175.85" cy="1095.81" rx="64.43" ry="57.37"/><rect class="cls-3" x="-10.4" y="1072.38" width="169.42" height="76.85"/></g><g class="cls-5"><ellipse class="cls-3" cx="-25.5" cy="675.42" rx="61.64" ry="54.89"/><ellipse class="cls-3" cx="48.98" cy="680.41" rx="60.26" ry="53.66"/><ellipse class="cls-3" cx="67.44" cy="717.53" rx="64.43" ry="57.37"/><rect class="cls-3" x="-118.81" y="694.1" width="169.42" height="76.85"/></g></svg>