<svg id="Layer_2" data-name="Layer 2" xmlns="http://www.w3.org/2000/svg" viewBox="0 0 800.96 1004.4"><defs><style>.cls-1{fill:#feece4;}.cls-2{fill:#ffdb55;}.cls-3{fill:#99d6d0;}.cls-4{fill:#fccaab;}.cls-5{fill:#b2ddde;}.cls-6{fill:#fff;}.cls-7{fill:#231f20;}.cls-8{fill:#b4a8d2;}.cls-9{fill:#fff9d5;}.cls-10{fill:#381116;}</style></defs><title>Artboard 1</title><circle class="cls-1" cx="400.37" cy="408.3" r="389.39"/><path class="cls-2" d="M553.23,477.95A35.65,35.65,0,0,0,561,476.3a87.4,87.4,0,0,0-5.44-8.19A48,48,0,0,0,553.23,477.95Z"/><path class="cls-2" d="M546.31,465.62l-.2.39a83,83,0,0,0,8.77-1.19,1.25,1.25,0,0,1,1.52-.31,78.77,78.77,0,0,0,18.8-6.5c9.28-4.61,20.58-11.52,24.26-21.78a127,127,0,0,1-15.75-6.55c-5.3-2.53-10.11-5.44-14-9.72-2,3.1-4.14,6.11-6.28,9-5.84,8-12.67,15.66-21.7,20a36.71,36.71,0,0,1-6.07,2.28l10.4,12.51A1.58,1.58,0,0,1,546.31,465.62Z"/><path class="cls-3" d="M614.5,440a3.46,3.46,0,0,1-.82.74,1.3,1.3,0,0,1-.59.2,1.62,1.62,0,0,1-.24.43,23.15,23.15,0,0,0-4.08,7.92H620.1C619.94,445.56,617.31,442.58,614.5,440Z"/><path class="cls-3" d="M625.84,411.62c-12.28-16.05-20.76-43-8.39-61.14a107.27,107.27,0,0,1-32.25,5.58c3.17,3.2,6.65,6.53,8.81,10.18a1.51,1.51,0,0,1,0,1.51c-1.59,2.71-5.76,2.53-9,2.51,1.86,16.88-4.76,32.83-13.65,47.06,4.06,4.83,9.6,7.8,15.28,10.43,6.09,2.82,12.32,5.55,18.89,7A42,42,0,0,0,641,426.57,78,78,0,0,1,625.84,411.62Z"/><path class="cls-2" d="M413.5,377.54l-.12-.19a8.78,8.78,0,0,0-1.77-1.4c.3,1.69.66,3.38,1,5.06.1-.45.24-.94.38-1.48A1.3,1.3,0,0,1,413.5,377.54Z"/><path class="cls-4" d="M375.33,302.52v.26a1.62,1.62,0,0,1,.23.12l.39.24C375.72,302.95,375.52,302.73,375.33,302.52Z"/><path class="cls-2" d="M413.89,386.62q.42,1.93.77,3.86a4.75,4.75,0,0,0,.41-1.45A2.24,2.24,0,0,0,413.89,386.62Z"/><path class="cls-4" d="M449.76,443.21c4.88-5.24,7.48-11.27,3.53-19.13-3.34-1.35-6.26-3.6-9.8-4.88-5-1.8-10.3-2-15.55-1.89a1.69,1.69,0,0,1-.15.24,26.9,26.9,0,0,0-4.26,7.53c-.92,2.52-2,10.14,2.79,8.83.09-.67.18-1.35.26-2,.22-1.9,3.22-1.92,3,0l-.89,7.84-.44,3.92c-.15,1.37-1,2.58.75,2.59,2.13,0,3-3.94,3.36-5.78a22.23,22.23,0,0,0,.28-7.58c-.23-1.92,2.77-1.89,3,0a23.47,23.47,0,0,1-1.58,12,14.86,14.86,0,0,1-2.05,3.67,1.32,1.32,0,0,1-.47.88q3.49,3,4.82-.58a17.73,17.73,0,0,0,1.09-2.28A31.2,31.2,0,0,0,439,442a34,34,0,0,0,1-10.42c-.1-1.93,2.9-1.92,3,0a36.06,36.06,0,0,1-1.92,14,24.58,24.58,0,0,1-2.71,5.79c6-1.42,8.69-8.73,10.47-14.24.59-1.83,3.49-1,2.89.8S450.54,441.42,449.76,443.21Z"/><path class="cls-4" d="M414.87,401.68l.58.14a4.36,4.36,0,0,1-.48-.45A1.77,1.77,0,0,1,414.87,401.68Z"/><path class="cls-2" d="M585.37,367.18c1-.07,4.2.25,4.66-1.17.14-.42-2.71-3-3-3.32l-5.75-6.35h0l-1-.31-.68,0q-6.18,5.35-11.89,11.17A140.53,140.53,0,0,0,585.37,367.18Z"/><path class="cls-2" d="M535,465.87c.72.29,2.23-.18,3.06-.24l3.38-.27a1.45,1.45,0,0,1,1-.08l.79-.06.07-.14-8.58-10.32c-.13,3.3-.27,6.61-.32,9.91a7.15,7.15,0,0,1-.1,1.35h0C534.3,465.93,534.47,465.67,535,465.87Z"/><path class="cls-4" d="M393.39,173l-2-2.11c-1.24-1.34-2.5-2.66-3.76-4,2.25,2.66,4.44,5.38,6.59,8.13Q393.84,174,393.39,173Z"/><path class="cls-4" d="M404.45,359c-.65.09-.65-1.1,0-1l.55.06c-.1-1.15-.17-2.3-.26-3.45a.3.3,0,0,1-.2.21,5.69,5.69,0,0,1-2.18,0c1.25,6.2,2.73,12.36,4.51,18.44l.11.34q-1.21-7.32-1.88-14.7Z"/><path class="cls-2" d="M409.94,364.91c.81-3,2-5.91,2.21-8.66.17-1.91,3.17-1.92,3,0-.29,3.31-1.52,6.13-2.34,9.3a11.45,11.45,0,0,0-.47,5.57c.59,2.48,1.92,2.72,3.61,4.17.17.14.3.28.44.42a13.46,13.46,0,0,0,4.69-8c.36-1.9,3.25-1.09,2.89.8a16.27,16.27,0,0,1-6.58,10.17c-.34,1.81-1.74,3.69-.27,6.54.94,1.82,1.69,1.49,1.27,3.78-.25,1.38-1.63,3.13-2,4.31-1.13,4.13.57,5.13,3.31,7.44,1.41,1.19,2.24,1.36,2.7,3.37.9,3.94-.46,6.94,3.42,10.05a1.59,1.59,0,0,1,.16.16c5.07-.13,10.22-.14,15.18,1,5.77,1.38,10.64,6.3,16.49,6.77a1.59,1.59,0,0,1,.54.14c5.59-5.05,10.87-11.2,11-19.07.16-8.43-4.82-16-9.85-22.39-2.54-3.22-5.25-6.34-7.73-9.63a.7.7,0,0,1-.88-.67c0-.19,0-.39,0-.58-.22-.31-.45-.61-.67-.92l.19.8a1,1,0,0,1-.16.8c.22,4.49.35,9,.27,13.44,0,.94-1.53,1.21-1.69.23a167,167,0,0,1-1.79-17.07,87,87,0,0,1-5.42-21.7c-.19-.47-.4-.93-.63-1.39-3.54-7.19-8.57-14-12.95-20.68a44.62,44.62,0,0,0-3.43-4.62q2.56,8.13,4.4,16.49c3,13.75,5.8,29.15,4,43.22a.82.82,0,0,1-1.64,0c-1-8.92-1.39-17.78-2.27-26.62-5.84-12-9.4-25.49-11.64-39a22.93,22.93,0,0,0-7.84-2.47c.19,6-1,12.27-1.13,18.16-.23,7.54-.21,15.06.28,22.59C408.9,355.78,409.36,360.35,409.94,364.91Z"/><path class="cls-4" d="M397.78,310c.55,4.46.55,9,.7,13.56a.62.62,0,0,1,.67-.24c1.63.4,2.75-.19,4.25-.67.51-.16.75.47.48.82-1.13,1.42-3.46,1.53-5.08,1.13a.62.62,0,0,1-.28-.16c0,1.31.11,2.62.21,3.91q.43,5.56,1.12,11.08l.12,0a17.53,17.53,0,0,0,1.78,0c.58,0,1.13-.22,1.71-.25a.34.34,0,0,1,.23.57,4.58,4.58,0,0,1-3.7.86c.15,1.17.32,2.33.5,3.5a6.37,6.37,0,0,1,1.58,0,.39.39,0,0,1,0,.75,6,6,0,0,1-1.46.05c.34,2.22.7,4.44,1.11,6.65a1.37,1.37,0,0,1,.86,0,.43.43,0,0,1,0,.83,1.27,1.27,0,0,1-.68,0c.11.59.23,1.17.35,1.76,0,0,.07-.07.12-.08a5.71,5.71,0,0,1,2.19,0,.3.3,0,0,1,.18.15c-.05-.75-.12-1.49-.16-2.24a192.86,192.86,0,0,1,0-24.47c.38-5.53.49-11.94,2.1-17.5C403.72,309.95,400.75,310,397.78,310Zm5.45,24.86a8.4,8.4,0,0,1-3.12,1.21.55.55,0,0,1-.29-1.05,8.24,8.24,0,0,1,3.17-.76C403.25,334.3,403.49,334.67,403.23,334.88Zm-2.35-3.14a4.71,4.71,0,0,1,1.61-.46c.29,0,.53.42.26.63a4.9,4.9,0,0,1-1.65.65C400.58,332.74,400.36,331.92,400.88,331.74Zm2.62-3.35c-.64,1.28-2.46,1.55-3.72,1.28-.86-.18-.49-1.5.36-1.32,1,.22,1.72-.28,2.61-.7A.55.55,0,0,1,403.5,328.39Zm-.85,19-.37.22a.64.64,0,1,1,0-1.11l.37.22A.39.39,0,0,1,402.65,347.38Zm-1-27.42a9.82,9.82,0,0,1-2.06.73c-.8.23-1.15-1.07-.34-1.24a9.91,9.91,0,0,1,2.17-.33A.45.45,0,0,1,401.69,320Zm1.57-4.11a3.58,3.58,0,0,1-3.41,1.1c-.56-.09-.33-1,.24-.87a3.6,3.6,0,0,0,2.79-.72C403.19,315.13,403.47,315.59,403.25,315.84Zm.2-2.51c-1.33.15-2.66.21-4,.27a.57.57,0,0,1,0-1.13c1.34.06,2.67.12,4,.27A.29.29,0,0,1,403.45,313.33Zm1.11-2.65a9.81,9.81,0,0,1-6.11,1.12c-.22,0-.31-.36-.06-.42,2-.44,3.95-1,5.93-1.27A.31.31,0,0,1,404.57,310.69Z"/><path class="cls-4" d="M398.76,188.49l-.11-.39c-8.32-11.86-17.6-24.87-30.1-32.31A158.74,158.74,0,0,1,398.76,188.49Z"/><path class="cls-4" d="M397.27,183.55c-.4-1.25-.81-2.49-1.24-3.74q-3.87-5.2-8.19-10A143.41,143.41,0,0,1,397.27,183.55Z"/><path class="cls-2" d="M427.57,341.38c-.3-1.81-.63-3.61-1-5.42a191.73,191.73,0,0,0-5.63-20.62l-.71-.56c.63,3.09,1.33,6.16,2.1,9.22C423.81,329.89,425.69,335.64,427.57,341.38Z"/><path class="cls-4" d="M361.49,306.25c1.87-1,3.44-3.48,5.25-4.75a21,21,0,0,1,5.88-2.91l0-.4a43.3,43.3,0,0,0-4.07,1.66,24.94,24.94,0,0,1-5.9,1.78.89.89,0,0,1-.57-.1,8.64,8.64,0,0,1-3.27.34,12.2,12.2,0,0,1-3.67-1.12c-2.28-.59-4.49-1.48-6.79-2-.89-.2-1.78-.34-2.68-.47a40.19,40.19,0,0,1,6,4C354.75,304.69,356.94,308.57,361.49,306.25Z"/><path class="cls-4" d="M449,333.22c-.25-6.56-.52-13.11-.85-19.67q-.38,2.08-.86,4.14.18,6.66.44,13.32A19.84,19.84,0,0,0,449,333.22Z"/><path class="cls-5" d="M450.07,292.38c1.51,15,2.78,30.16,3.12,45.31.49.37,1,.73,1.52,1.06,15.57-21.45,45.89-34.58,70.66-27.51a81.13,81.13,0,0,1-9.57-35.1,83.22,83.22,0,0,1,3.66-27.59,1.61,1.61,0,0,1-.28-.31c-8.31-12.16-23.85-13.81-37.33-11.72-13.07,2-24.62,7.37-32.62,18.19a8.23,8.23,0,0,0-1.92,1.61q.63,5.13,1.21,10.26A213.08,213.08,0,0,1,450.07,292.38Z"/><path class="cls-4" d="M450.36,364q-.27-4.77-.49-9.55c-.25.72-.48,1.44-.7,2.17q.23,3,.44,6.06C449.85,363.08,450.11,363.52,450.36,364Z"/><path class="cls-4" d="M447,295.69c0-.23,0-.47-.06-.7l-.06.12q0,1.33,0,2.66Q447,296.73,447,295.69Z"/><path class="cls-4" d="M445.4,324.71c-.15.47-.3.94-.46,1.4q.23.83.54,1.63C445.45,326.73,445.43,325.72,445.4,324.71Z"/><path class="cls-2" d="M325.09,404.89a57.66,57.66,0,0,1,14.09,4l11.94,1.76a60.91,60.91,0,0,1,15.73,3c1.83.6,1,3.5-.8,2.89A58.5,58.5,0,0,0,348,413.61c6.51,4,12.84,8.51,20.4,10,5.39,1.08,11.52.55,15.84-3.17,3.49-3,5.44-7.5,8.6-10.84a33.27,33.27,0,0,1,20.8-10h.22c-.11-.23-.2-.46-.28-.69a6.74,6.74,0,0,1-2.66-3.76c-4-5.92-5.93-14-7.89-20.76a198.18,198.18,0,0,1-5.17-22.54,204.84,204.84,0,0,1-2.51-21.64c-.39-6.52-.94-13.64.18-20.19-6.42.05-12.77-.15-18.58-2.93v.06s0,.06,0,.14.05.47,0,.22a1.33,1.33,0,0,0,.34.77,1.28,1.28,0,0,1,.2.87A15.35,15.35,0,0,1,379,325.72c-3,6.22-9.66,9.75-16.23,11-7.08,1.37-15.92,1-20.86-5a11.87,11.87,0,0,1-2.72-7.54,1.45,1.45,0,0,1,.18-1.59,7,7,0,0,1,1.47-3.06,7.08,7.08,0,0,1,2.15-2.79,64.75,64.75,0,0,0-1.47-7.61,34.12,34.12,0,0,1-8.41,6.55c2.5,11.41,1.67,24.29,1.14,35.78-.57,12.4-1.44,25.6-4.72,37.62a1.63,1.63,0,0,1-.77,1,12.3,12.3,0,0,1,.25,5.7,1.41,1.41,0,0,1,.18.76A11.31,11.31,0,0,1,325.09,404.89ZM382.49,361c.27-1.29.78-2.71,2.27-2.89a1.89,1.89,0,0,1,1.65.55,1.71,1.71,0,0,1,.33.2c3,1.27,3.53,5.13,3.11,8.18-.36,2.58-2.1,6.35-5.31,4.21C381.47,369.21,381.84,364.11,382.49,361Zm-30.27-1.83a1.49,1.49,0,0,1,2.54,0l.28.48a2.91,2.91,0,0,1,1.22,2.82,8.58,8.58,0,0,1,.14,5.77c-.22,2.57-1,4.87-2.91,4.79a3.05,3.05,0,0,1-.66,0c-3.59-.17-3.32-4.75-3.4-7.22S349.4,359.87,352.21,359.17Zm-7.29,30.91a6.85,6.85,0,0,1,1.62-2.77,5.69,5.69,0,0,1,3.38-2.28c1.9-.56,2.62,2.28.81,2.93a5.24,5.24,0,0,0-1.41,1,1.38,1.38,0,0,1,.5.8c2.82,11.81,15.22,16.29,26.28,15.34,11.26-1,20.06-8.88,19.61-20.38a2.6,2.6,0,0,1-.46-.36.85.85,0,0,1-.22-.84l.08-.24a1.42,1.42,0,0,1,.23-.42l-.3-.23a1.23,1.23,0,0,1-.56-1.37c0-.1.08-.2.12-.29a1.22,1.22,0,0,1,1.37-.56,5.93,5.93,0,0,1,3.68,4.12,1.21,1.21,0,0,1-.92,1.57c-.25,26.7-44.92,30.33-51.65,5A1.24,1.24,0,0,1,344.93,390.08Z"/><path d="M421.6,479.16a20.4,20.4,0,0,1-.73-9.05c0-.25.3-.31.51-.23a10.64,10.64,0,0,0-1.43-3.81c-1.76-2.76-5-4.58-7.74-6.23-3.26-2-7.16-3.67-10.87-3.6a49.62,49.62,0,0,1,6.06,28.54A49,49,0,0,1,403.94,499c-1.25,3-2.76,6.86-5.36,9.18a37.88,37.88,0,0,0,9.18-1.45C419.64,503.35,421.23,490.09,421.6,479.16Z"/><path class="cls-4" d="M426.51,482.95c0,.17.08.35.12.52,0-.06,0-.13,0-.19Z"/><path class="cls-6" d="M429.59,476.76a1.76,1.76,0,0,0-.38-.21c-.16,0,0-.1-.18,0l-.11.08q.23.47.43.94a.85.85,0,0,0,.43-.39C429.89,477,429.79,476.93,429.59,476.76Z"/><path class="cls-6" d="M430.31,463.82a1.3,1.3,0,0,1,.22.82,28.61,28.61,0,0,1-.71,4.6c.11-.2.23-.4.33-.61C430.6,467.74,431.57,464.75,430.31,463.82Z"/><path class="cls-6" d="M402.26,495a46.7,46.7,0,0,0-4.07-38.2,9.29,9.29,0,0,0-1.37.6,35.61,35.61,0,0,1,7.25,23.89c-.48,9.5-4.43,17.84-9.2,25.82h0C398.84,505.32,401,498.75,402.26,495Z"/><path class="cls-6" d="M394.75,459.56l-.19.26a1.22,1.22,0,0,1-.73,1q-.85,1.19-1.66,2.42c3,9.65,5.18,20.89,4.38,31a.76.76,0,0,1-1.52,0c-1.27-9.9-2-19.67-3.81-29.49a35.1,35.1,0,0,0-3.75,7.78l0,.06a.37.37,0,0,1,.47.32c.67,8.72,2,17.29,3.3,25.92.05.36-.48.53-.57.16a194.07,194.07,0,0,1-3.41-25.71c-1.63,5.85-.21,11.11,1.4,16.84a39.85,39.85,0,0,1,1.33,6c.24,2-1,6.25-.42,7.94a5.09,5.09,0,0,0,2,2.66q.47-.79.93-1.59a.49.49,0,0,1,0-.07c-2-10.39-1.94-21.58-2.28-32.14,0-.87,1.24-.83,1.33,0,1,9.88,2.39,20.25,2.08,30.23C401.06,489.29,405.18,473,394.75,459.56Zm-.62,4.2a.49.49,0,0,1,.94-.26c2.11,7.1,4.21,14.57,4.65,22a.51.51,0,0,1-1,.14C396.8,478.47,395.76,471,394.12,463.77Z"/><path class="cls-4" d="M427.71,480.18l.2.22,0-.17Z"/><path class="cls-6" d="M426.86,489.17a5.16,5.16,0,0,1,.47,1.6q.08,1,.22-.14a6.53,6.53,0,0,0,.72-2.58,8.82,8.82,0,0,1-1.26-2.11.92.92,0,0,1-.76.72C426.42,487.5,426.63,488.33,426.86,489.17Z"/><path class="cls-2" d="M520.28,288.58c6.21,30.13,30,54.81,59,64a1.62,1.62,0,0,1,1.12.33l.25.08h.15a1.28,1.28,0,0,1,1.49,0c33.41.31,66.81-15.86,85.72-43.81a62.92,62.92,0,0,0,10.8-27.62c1.11-9,1-18.42.7-27.52-.29-9.25-1.37-18.85-5.71-27.17-4.25-8.16-11.58-14.92-18.39-21-27.84-24.69-71.21-19.25-100.83-.24C527.76,222.91,513.88,257.53,520.28,288.58Z"/><path class="cls-2" d="M193.46,169.2c-.24-1.09-1.35-2.34-1.93-3.27-.85-1.39-1.76-2.74-2.69-4.07q-1,0-2,0A67.72,67.72,0,0,0,180.15,176L191,172.9C193,172.34,194,171.64,193.46,169.2Z"/><path class="cls-2" d="M189.35,156H191a1.36,1.36,0,0,1,1.2.64l.35,0h5.11a1.62,1.62,0,0,1,.38,0,33.81,33.81,0,0,0,6.61-1.15,1.36,1.36,0,0,1,1.28.25c25-8.34,42.55-32.79,45-59.81,2.66-29.54-11.24-60.49-36.77-76.24-27.76-17.12-62.83-11.43-88.85,6.57-27.55,19.05-26.16,56.91-10.7,83.46s44.12,41.9,73.88,45.76A1.56,1.56,0,0,1,189.35,156Z"/><path class="cls-2" d="M514.85,453a153.91,153.91,0,0,1,16.49,10.76c0-.36.06-.7.07-1l.35-10.59h0A78.16,78.16,0,0,1,514.85,453Z"/><path class="cls-5" d="M433.3,471.35c10.14-5.19,21.14-10.23,30-17.3.42-.47.86-.93,1.26-1.42a1.26,1.26,0,0,1,1-.5c.39-.35.79-.69,1.18-1,5.65-5.26,10.07-12.41,10.29-20.32a25,25,0,0,0-2.66-11.33,1.28,1.28,0,0,1-.77-.5,28.42,28.42,0,0,0-4.94-4.87,45.17,45.17,0,0,1-10.38,12.16,1.52,1.52,0,0,1-.81.37c2.85,9.84-3.12,17.33-11.39,24a1.52,1.52,0,0,1-1.23.33,11.36,11.36,0,0,1-10,3.56,1.7,1.7,0,0,1-.31-.07c-3.2,1-6.69-1.29-6.7-4a3.5,3.5,0,0,1-2.92-3.74,66.15,66.15,0,0,1,.95-9.64c-3.36.22-5.94-2.58-6.33-6-.54-4.73,1.9-9.68,4.67-13.63a1.41,1.41,0,0,1-1.27-1.74,10.39,10.39,0,0,1-3.39-6.26,25.64,25.64,0,0,1-.08-3.16,32.67,32.67,0,0,0-9.21-2.28q-1.81.62-3.67,1.07a1.45,1.45,0,0,1-.41.26l-7,3a1.66,1.66,0,0,1-.39.11c-.23.17-.46.33-.69.5-4,3.17-6.35,7.44-9.54,11.31a19,19,0,0,1-2.08,2.15,1.38,1.38,0,0,1-.45.77L383.88,425a13.42,13.42,0,0,1-1.29,1.17l-1,.93a1.46,1.46,0,0,1-1,.4,13.65,13.65,0,0,1-14.07-.73L361,424.51a1.62,1.62,0,0,1-.47-.31c-5.36-2.37-10.3-5.8-15.35-8.78l-.36-.2a223.14,223.14,0,0,0-36.08-7.35l-.27-.06-2.76-.27h-.94a1.64,1.64,0,0,1-.36,0l-1.4,0h-1.6a1.54,1.54,0,0,1-.51-.09c-1.83-.1-3.65-.26-5.48-.49a1.62,1.62,0,0,1-.55-.18,43.48,43.48,0,0,0-6.76.76,1.6,1.6,0,0,1-.59.19l-.19,0q-3.68,2-7.41,4a1.51,1.51,0,0,1-.34.46,87,87,0,0,0-8.73,9.32c-.12.32-.25.64-.36,1a1.45,1.45,0,0,1-1.12,1,32.57,32.57,0,0,0-6.07,14.06c-1.18,8,2.35,15.36,6.52,22.09a1.36,1.36,0,0,1,.53.59c.21.44.45.86.67,1.3.76,1.17,1.52,2.33,2.27,3.46,5.58,8.42,12.51,16.24,22.41,19.42,9.19,3,19.46,3.6,29.11,4.82a22.58,22.58,0,0,1-.4-6.42,12.8,12.8,0,0,1-9.47,3.84,1.4,1.4,0,0,1-1.33-1.75,16.93,16.93,0,0,1,7.5-9.1,14.85,14.85,0,0,1-7.52-4.84c-2.15-2.66-2.56-7.06.64-9.12,2.81-1.8,6.73-.58,8.94,1.64a13.84,13.84,0,0,1,3,5.39.74.74,0,0,1,1.29.47c0,.1,0,.2,0,.3v0a.21.21,0,0,1,0-.16,1.38,1.38,0,0,1,.13-.19c2.14-5.4,5.41-10.28,10.46-13.15a13.48,13.48,0,0,1-1.89-2.1l-2.46-1.79a1.89,1.89,0,0,1-.58-.67c-.73-.27-1.47-.53-2.27-.8a9.6,9.6,0,0,1-4.44-2.94c-4.84-5.33-8.32-9.92-15.29-12.75a1.56,1.56,0,0,1-.74-.6c-.79-.15-1.57-.34-2.33-.51A17.35,17.35,0,0,1,303,432.4a.85.85,0,0,1,.42-1.57,17.67,17.67,0,0,1,5.36.76c.77.17,1.55.33,2.32.53a1.29,1.29,0,0,1,.89.06,34.46,34.46,0,0,1,14.26,10.34c1.71,2.13,2.61,4.09,5.47,5.34,1.47.64,3.15.82,4.65,1.49a21.37,21.37,0,0,1,6.75,4.88c5-.94,13.36-.85,15,3.28a5.26,5.26,0,0,1,2.41,1.72l.17.08a1.39,1.39,0,0,1,.72,1.31c1.51,3,1.71,7.49,1.54,11.3a9.24,9.24,0,0,1,1.57,2.51,14,14,0,0,1,1.57-.67,25.05,25.05,0,0,1,17.76.75c1.17-5.75,4.3-10.86,7.71-15.63a10.55,10.55,0,0,1,1.33-5.16c.49-5.59,2-10.06,5.71-14.49,4.65-5.52,10.11-10.47,15.17-15.61a1.44,1.44,0,0,1,.71-.41,7.38,7.38,0,0,1,4.25-2.52,1,1,0,0,1,.77,1.82,15.2,15.2,0,0,0-2.94,2.21l-.27.31a1.45,1.45,0,0,1-.4.71l-.78.79c-.26.35-.51.7-.78,1a.69.69,0,0,1-.49.26c-3.31,3.35-6.63,6.69-9.92,10.07a28.1,28.1,0,0,0-6.63,9.61,1.63,1.63,0,0,1,0,.39A18.63,18.63,0,0,0,397,454a16.26,16.26,0,0,1,11.23.44c5.48,2.05,12.53,6,15.1,11.68a10.54,10.54,0,0,1,1-2.27c1.42-2.38,4.22-4.22,6.94-2.78,4.14,2.19,2.87,6.72.36,10.89Z"/><path class="cls-5" d="M561.79,426.18c2-2.82,4-5.74,6-8.75a1.33,1.33,0,0,1,1-1.64c8.61-13.72,15.27-29.17,13.26-45.45A146.87,146.87,0,0,1,564.3,370a1.52,1.52,0,0,1-1.06-2.56q5.78-6.09,12-11.65c-1.46-.12-2.92-.25-4.37-.43-1.62-.2-1.86-2.41-.71-2.91a92.76,92.76,0,0,1-42.69-37.34h0c-26.41-9.45-60.64,6.69-74.22,31.65,0,6.87-.27,13.73-.8,20.54.65.95,1.33,1.87,2,2.78,5,6.59,10.85,12.56,14.48,20.08,3.17,6.56,3.61,12.57,2.1,18.08a1.53,1.53,0,0,1,.52.5c4.06,6.2,8.09,12.82,8.44,20.43a26.74,26.74,0,0,1-2.09,11.31,1.51,1.51,0,0,1,.4,0,98.43,98.43,0,0,1,31,9.72,1.33,1.33,0,0,1,1-.31c10.59.53,21.64,1,31.29-4.12C550,441.29,556.35,433.76,561.79,426.18Z"/><path class="cls-4" d="M330.24,476.1l-.09.32q0,.27,0,.54Z"/><path class="cls-4" d="M328.53,337.8l-.94.21a.47.47,0,0,1-.39-.07l-.39.19A.66.66,0,0,1,326,338q.48,3.09.94,6.18a1.43,1.43,0,0,1,1.29.08.87.87,0,0,1,.44.76.92.92,0,0,1-.65.85.92.92,0,0,0-.48.27.84.84,0,0,1-.28.19c.76,5.31,1.42,10.63,1.81,15.94.39-3.6.73-7.21.93-10.83.34-6.07.46-12.15.48-18.22,0-.25,0-.5,0-.75a22.11,22.11,0,0,1-4.12,2.79.7.7,0,0,1-.78,0l.3,1.92a.65.65,0,0,1,.23-.19,17.27,17.27,0,0,1,3.21-1.4c.58-.16.79.58.38.89a10.42,10.42,0,0,1-1.22.78h0A.28.28,0,0,1,328.53,337.8Zm1.14,1.87a.43.43,0,0,1,0,.74,6.49,6.49,0,0,1-2.22.21.59.59,0,0,1,0-1.17A6.49,6.49,0,0,1,329.67,339.67Z"/><path class="cls-6" d="M350,501.19a7.68,7.68,0,0,0,1.52-.67c-7.68-.48-9.32-11.85-8.94-17.71a47.52,47.52,0,0,1,3.67-15.48c1.35-3.17,3.27-8.71,7-9.87-.42-.1-.87-.19-1.35-.26a1.51,1.51,0,0,1-1,.48c-3.35.31-6.34,9.79-7.1,12.25a44.29,44.29,0,0,0-2,11A36.89,36.89,0,0,0,343,492.88C344,496.42,346.54,500.33,350,501.19Z"/><path class="cls-6" d="M317.44,463.69c-4.38.43-1.8,5.38.3,6.93a19.4,19.4,0,0,0,3.2,1.93l.17.07a13.74,13.74,0,0,1-4.62-6.1c-.35-.9.91-1.45,1.52-.88a71.75,71.75,0,0,1,6,5.76C323,467.57,322,463.24,317.44,463.69Z"/><path class="cls-6" d="M360.15,470.13c.05-3.54-.36-6.88-1.81-8.6l-1.28-.59a1.78,1.78,0,0,1-1.21-.55l-.16-.07a5.43,5.43,0,0,0-1.5.25,1.55,1.55,0,0,1-.46.06c-2.53,1.64-4.54,7.31-5.34,9.44a45.62,45.62,0,0,0-2.23,8.13c-.9,5.1-1.68,12.62,2.07,16.85,2.51,2.83,4.45,2.78,5.88,1.56-.62-10.93,1.38-22.64,3.16-33.2.12-.7,1.25-.52,1.23.17-.3,7.61-.18,15.53-.54,23.33.32-1.59.62-3.18.87-4.77.21-1.35.88-5,1.18-8.93-.12-.1-.22-.21-.34-.31a1.53,1.53,0,0,1-.54-2.05A1.63,1.63,0,0,1,360.15,470.13Zm-7.84,20.08a.69.69,0,0,1-.62.63c.05.47.11.95.15,1.42.12,1.31-1.71,1.32-2.11.29-2.33-6-2.69-13.28-2.14-19.67a.74.74,0,0,1,1.48,0c.4,3.2.94,6.41,1.45,9.61a62.7,62.7,0,0,1,2.07-15.72c.15-.57,1.09-.46,1,.14C352.94,474.65,352.64,482.43,352.31,490.2Z"/><path class="cls-4" d="M335.57,310.18l0,.09L336,310Z"/><path class="cls-4" d="M334,154.61l-.4.2-.35.18-.14.26,1-.55Z"/><path class="cls-4" d="M327.23,321.93a12.14,12.14,0,0,1-3,1.54.84.84,0,0,1-.35,0c.47,3.52,1,7,1.55,10.58a.8.8,0,0,1,.17-.17,20.48,20.48,0,0,1,4.64-2.53.45.45,0,0,1,.26,0c0-1.59-.08-3.19-.13-4.79a.44.44,0,0,1-.13.2c-1.32,1.18-2.64,2.38-4,3.56a.41.41,0,0,1-.64-.5,10.22,10.22,0,0,1,4-3.83.52.52,0,0,1,.71.27c-.11-3.08-.2-6.17-.08-9.23a51.18,51.18,0,0,0-6.79,3.44c0,.36.09.73.14,1.09a13,13,0,0,1,2.69-1.64,10.73,10.73,0,0,1,3.08-1.11c.57-.08.68.66.41,1A10.56,10.56,0,0,1,327.23,321.93Zm.78,2.64c-.92.8-1.9,1.52-2.87,2.26-.24.18-.47-.22-.24-.4,1-.73,1.89-1.47,2.89-2.13C328,324.19,328.16,324.44,328,324.57Z"/><path class="cls-6" d="M318.93,481.2a11.48,11.48,0,0,0-1.83,2.56,11.39,11.39,0,0,0,6.56-3.43c-1.09.52-2.28.92-3.3,1.3A1.33,1.33,0,0,1,318.93,481.2Z"/><path class="cls-6" d="M329.86,482.49l-.06,0c-.36.65-1.56.72-1.69-.16,0-.08,0-.16,0-.24h0v0a16.9,16.9,0,0,1-.14-2.32l-.06-.17c-.13.69-.24,1.38-.32,2.05a6.23,6.23,0,0,0,2.16,4.06C329.77,484.58,329.81,483.53,329.86,482.49Z"/><path class="cls-4" d="M331.22,470.09a.29.29,0,0,1,0,.08l.15-.18Z"/><path class="cls-4" d="M330,479.19a4.52,4.52,0,0,1-.13.46c0,.08,0,.17,0,.25l.08.2C330,479.8,330,479.5,330,479.19Z"/><path class="cls-7" d="M328.21,490.06a1.17,1.17,0,0,1,.2.51,15.25,15.25,0,0,0,7.26,7.87,26.71,26.71,0,0,0,9,3.07c-3.76-4.08-5.62-11.37-5.86-16.37a47.15,47.15,0,0,1,3.49-19.92c1.05-2.57,2.34-6.09,4.46-8.35a20.46,20.46,0,0,0-2.39.09,16.24,16.24,0,0,0-8.79,4.94,23.47,23.47,0,0,0-4.17,6.11,5.3,5.3,0,0,1,2.7-.13,1,1,0,0,1,.42,1.58,14.27,14.27,0,0,0-3,3.7c.32,4.79.59,9.59.74,14.38a1.3,1.3,0,0,1-1.63,1.24,6,6,0,0,1-3-1.66A15.46,15.46,0,0,0,328.21,490.06Z"/><path class="cls-6" d="M330.63,470.56a4.1,4.1,0,0,0-.49.59c0,.21,0,.42,0,.63.14-.24.29-.47.45-.71Z"/><path class="cls-4" d="M343.76,298l-2.67-.26h0a13.31,13.31,0,0,1,1.5,4.67A68.33,68.33,0,0,1,346,317v0a7.91,7.91,0,0,1,.36,4.13c.06,1,.12,2,.14,3,0,1.93-3,1.93-3,0,0-.38,0-.75-.05-1.12a6.76,6.76,0,0,0-1.41,1,9.68,9.68,0,0,0,3,6.61c2.55,2.47,6.11,3.38,9.55,3.61a29.08,29.08,0,0,0,11.58-1.6c5.82-2.09,11.06-7.62,11.61-13.51a1.55,1.55,0,0,1-.72-.33c-5-4-5.12-12-4.55-19a36.86,36.86,0,0,0-9,6.28c-1.36,1.3-2.51,2.86-4.52,3s-3.07-1.11-4.42-2.45A48.44,48.44,0,0,0,344,298.41.41.41,0,0,1,343.76,298Zm21.07,31.88a34.23,34.23,0,0,1,3-2.53c.2-.14.43.17.26.34a34.23,34.23,0,0,1-3.11,2.43C364.88,330.27,364.7,330,364.84,329.92Zm-15.17-1c1,.39,2,1,3,1.46a27.29,27.29,0,0,0,3.86,1.38.37.37,0,0,1-.2.72c-2.36-.54-5.17-1.28-7.1-2.81C348.88,329.43,349.25,328.8,349.66,329Z"/><path class="cls-4" d="M425.25,476.81a1.15,1.15,0,0,1-.27.11q0,.21,0,.43Z"/><path class="cls-8" d="M245.78,302.74a69.07,69.07,0,0,0-7.62-13.25,95.94,95.94,0,0,0-9.75-11.26c.75,1.4,1.51,2.79,2.3,4.16A120,120,0,0,0,245.78,302.74Z"/><path class="cls-4" d="M183.7,957.16l.52-2.38a1.44,1.44,0,0,1-.38-.33Q183.75,955.8,183.7,957.16Z"/><path class="cls-5" d="M114.35,383.77a1.57,1.57,0,0,1,.74.28l.66.07a81.92,81.92,0,0,1-11.5-21c-7.47-20.31-7-43-.26-63.68-9.31-.58-19.92,8.56-25.68,14.91a62,62,0,0,0-13.93,26.49c-4.4,17.27-4,42.08,11.68,53.78C86.85,386.6,99.92,382.09,114.35,383.77Z"/><path class="cls-5" d="M113,374.79a80.36,80.36,0,0,0,7.47,10.61l.53.22a1.19,1.19,0,0,1,.76,1.29c15.66,18,39.09,29,63.16,27.2a1.49,1.49,0,0,1,2.11-.06c.83.76,1.62,1.56,2.38,2.37,18.56,1.94,34-14,46.22-26.2,7-7,13.14-14.63,15.91-24.28.3-1,.55-2.08.79-3.13-.59-3.64-1-7.29-1.34-10.81-1.33-13.71-2.1-27.51-2.28-41.33-.13-.42-.26-.84-.4-1.26C238.55,299,229.66,288,223.27,274.59c-.3-.62-.58-1.25-.88-1.87A130.15,130.15,0,0,0,202,258.51c-15.94-9-34.16-9.85-51.86-6.05-17.19,3.69-27.95,16.07-36,31C99.18,311.22,96.7,347,113,374.79Z"/><path class="cls-2" d="M114.17,544.82a29.18,29.18,0,0,0-5.55,8.56l12.94,0A52.88,52.88,0,0,0,114.17,544.82Z"/><path class="cls-4" d="M182.1,966.81a1.4,1.4,0,0,1-.25-.56l0-.05-1.38-1.45a4.8,4.8,0,0,0,1.48,3.66,1.24,1.24,0,0,1,.3-1.35Z"/><path class="cls-2" d="M126.67,541.13c13.58-.86,26.5-6,35.58-16.34,8.48-9.68,13.55-22.28,16-34.8a88.67,88.67,0,0,0,1.29-9.21c.08-1.64.17-3.27.27-4.91a32.27,32.27,0,0,1-1.17-4.55,1.58,1.58,0,0,1,1.18-1.81,91.78,91.78,0,0,0-15.17-47.19,1.31,1.31,0,0,1-.87-.72,26.83,26.83,0,0,0-5.81-7.57,84.09,84.09,0,0,1-39.15-26.07A14,14,0,0,0,113,387a1.29,1.29,0,0,1-1.13-.47c-12.94-.87-24.47,3.32-34.07,10.54a1.45,1.45,0,0,1-1.52,1.18c-12.93,10.38-22.11,26.27-26.12,42.39-6.18,24.83-1.63,52.93,14.83,73C79.76,531.67,103.25,542.61,126.67,541.13Z"/><path class="cls-2" d="M263,344.44c1.23,6.17,2.8,12.26,4.33,18.36.36,1.43.77,2.85,1.21,4.25-.71-11.05-1.56-22.08-2.9-33.1-.74-3-1.4-6.08-2-9.16l-4.31-4.23C260.21,328.56,261.41,336.54,263,344.44Z"/><path class="cls-4" d="M264.69,308.75q-.28-1.54-.58-3.07c.12.77.22,1.54.35,2.3Z"/><path class="cls-2" d="M249.82,271.29a23.54,23.54,0,0,0-15.24,9.17,82.4,82.4,0,0,1,14.11,21Q248.78,286.33,249.82,271.29Z"/><path class="cls-5" d="M183,428.73c1.53.72,4.76.09,6.35-.16a25,25,0,0,0,4.4-1.13,42.52,42.52,0,0,0-5.73-8.18q-.79-.11-1.59-.26C184.46,421,179.66,427.18,183,428.73Z"/><path class="cls-2" d="M254.68,312.08c-.07-1-.15-1.91-.22-2.87-.87-12.7-1.14-25.45-1-38.2h-.09q-.31,4.95-.52,9.92-.6,14.47-.37,29Z"/><path class="cls-2" d="M258.85,316.18l3.89,3.75c-.71-4.1-1.32-8.21-1.87-12.3q-2-6.46-3.51-13c.17,4,.38,7.94.67,11.92Q258.38,311.34,258.85,316.18Z"/><path class="cls-2" d="M255.38,327c1.2,9.9,2.05,20.08.94,30-.1.92-.25,1.8-.39,2.69q.61,3.78,1.49,7.48a25.12,25.12,0,0,1,8.53,4.13c-3.08-8.38-5.06-17.42-6.75-25.81A271.06,271.06,0,0,1,255,316.31l-1.88-1.9A108,108,0,0,1,255.38,327Z"/><path class="cls-4" d="M186.52,963.72l-.23.1q-.32,1-.6,2.08l.43.45a1.4,1.4,0,0,1,.31,1.53,1.21,1.21,0,0,1,1.23.34l.18-.14a3.26,3.26,0,0,0,1.09-2.22C189,964.51,188,962.84,186.52,963.72Z"/><path class="cls-2" d="M681.52,283.51a58.06,58.06,0,0,1-2.81,11.58,79.36,79.36,0,0,1-14.29,23.82,104.6,104.6,0,0,1-41.75,29.68,1.59,1.59,0,0,1-.26.4c-16.47,18.16-5.2,48.52,8.79,64.48,15.2,17.35,37.37,26.17,59.65,30a1.51,1.51,0,0,1,.77-.26l1-.07a1.37,1.37,0,0,1,1.47-.1c8.94-.6,18.11-1.43,26.31-5.26,8.56-4,15.24-11.1,20.83-18.55,19.62-26.17,26.82-61.74,13-92.21C741.48,299.06,712.1,281.79,681.52,283.51Z"/><path class="cls-2" d="M690,452.15c-.69,1.34-3.75,6.25-2.36,7.65,1.07,1.08,5.89.35,7.38.31,1.87,0,3.74-.18,5.6-.38a32.72,32.72,0,0,0-7.25-13.16A52.7,52.7,0,0,0,690,452.15Z"/><path class="cls-5" d="M404.43,966.43l-9.47,14-5,7.42c-1.37,2-3.57,4.32-4.46,6.59-.46,1.18-1.21,3.88.12,4.92.78.61,3.45.48,4.5.6,2.54.31,5.09.57,7.64.81q7.65.71,15.33,1,8.15.34,16.32.23c2.34,0,2.53.49,3.52-1.85.86-2,.33-3.1-.68-4.94a28.78,28.78,0,0,0-4.9-6c-7.55-7.72-15.2-15.33-22.8-23A1.6,1.6,0,0,1,404.43,966.43Z"/><path class="cls-4" d="M403.88,964.44l.2.13,0-.11Z"/><path class="cls-5" d="M613.29,778.47a1.15,1.15,0,0,1,.42-.29,440.32,440.32,0,0,0,17.1-58A229.07,229.07,0,0,0,633.14,638a1.61,1.61,0,0,1,0-.54,402.87,402.87,0,0,0-27-87.09,1.69,1.69,0,0,1-.09-.26,1.38,1.38,0,0,1-.54-.59,153.75,153.75,0,0,0-16.61-25.65,1.49,1.49,0,0,1-1.11-1c-.08-.23-.14-.46-.21-.69-11.06-13.74-24-26.14-36.75-38-5.74-5.34-11.72-10.59-18-15.47a3,3,0,0,1-.3-.13,2.4,2.4,0,0,1-.69-.63c-15.82-12.16-33.46-21.86-53.55-24.5a1.58,1.58,0,0,1-1.29-1,34.62,34.62,0,0,1-3.75,6,44,44,0,0,1-7.72,7.58,60,60,0,0,1-6,5.88A52.59,52.59,0,0,1,474,462a1.18,1.18,0,0,1,1,.7,12.37,12.37,0,0,1,5.66,3.11c.51.51-.14,1.16-.71.92a31.43,31.43,0,0,0-4.71-1.7c-.4-.1-.8-.17-1.2-.24a1.57,1.57,0,0,1-.82.1,47,47,0,0,0-24.64,3c-4.87,2-9.51,4.39-14.37,6.29l-2.4,1.29a2.74,2.74,0,0,1,.53,2.1,3.33,3.33,0,0,1-2.1,2.43,23.2,23.2,0,0,1,1,5.33,13.48,13.48,0,0,1,.48,1.39,1.77,1.77,0,0,1-.44,1.68c-.08,2.39-.42,5.86-2.89,6.55s-4.1-1.44-4.95-4.43c-1.07,6.06-3.25,12.28-8.34,16.06-5.53,4.1-14.36,5.14-21,4.32l-.44-.06A47.92,47.92,0,0,1,397,517.4a1.56,1.56,0,0,1,.09,1c.26.6.49,1.21.75,1.79a6.48,6.48,0,0,1,.72,3.52.86.86,0,0,1-1.26.51,6.5,6.5,0,0,1-1.94-3c-.27-.7-.58-1.41-.85-2.13a1.56,1.56,0,0,1-.1-.18,46.06,46.06,0,0,0-5.85-9.93,5.36,5.36,0,0,1-1-1,5.1,5.1,0,0,1-.46-.78,46,46,0,0,0-3.33-3.5A6.27,6.27,0,0,1,383,503c-.25-.23-.5-.47-.76-.69a1.3,1.3,0,0,1-.48-.88c-.87-1.24-1.7-2.62-1.47-4.17.11-.74,1-.77,1.5-.4a9.5,9.5,0,0,1,1.92,3,1.54,1.54,0,0,1,.64.34c.82.71,1.61,1.46,2.38,2.22a30.52,30.52,0,0,0,.38-3.08c.3-7.47-4.12-14.17-3.72-21.69a22.14,22.14,0,0,0-10.23-2.11,21.62,21.62,0,0,0-5.68,1c-.54.17-1.61.78-2.57,1.25a78.5,78.5,0,0,1-2.59,12.24,1.44,1.44,0,0,1-1.76,1,26,26,0,0,1-1.2,3.63q1.22-1.37,2.56-2.65c1.4-1.33,3.53.79,2.12,2.12a38.6,38.6,0,0,0-11.44,20.57,1,1,0,0,1-.09.82c0,.08-.07.16-.11.24s-.06.31-.09.47a1.34,1.34,0,0,1-.33.7,10.63,10.63,0,0,0,.06,3.95c.09.58-.63,1.21-1.11.65a5.49,5.49,0,0,1-1.09-4.72,1.52,1.52,0,0,1-.43-1.36,41.6,41.6,0,0,1,3.44-11,8.15,8.15,0,0,1-3.6,0c-4.79.81-10.42-.88-14.46-3-4.54-2.36-7.43-5.4-9-9-11.08-1.5-23.9-1.78-34.31-6.32a1.49,1.49,0,0,1-.93.08,50.8,50.8,0,0,0-33.59,4,1.48,1.48,0,0,1-1.27,0,49.79,49.79,0,0,0-5.71,2.79c-1,.56-1.8-.69-1.14-1.47a11.73,11.73,0,0,1,7-4.13,54.1,54.1,0,0,1,26.9-5.33,68.08,68.08,0,0,1-14.59-19.5,83.08,83.08,0,0,1-4.58-8.22c-58.51,21.17-103.11,73.55-116.71,134a1.41,1.41,0,0,1,.14,1.11c-5,19.68-9.75,39.49-11,59.83-.62,9.78-.74,19.6-1,29.39-.28,10.29-1.17,20.78-.11,31a1.38,1.38,0,0,1-.1.7,343.1,343.1,0,0,0,29.48,113.38,1.53,1.53,0,0,1,.1,1,235.84,235.84,0,0,0,100,98.19,1.48,1.48,0,0,1,.5.4,347.36,347.36,0,0,0,148.73,38.52,1.55,1.55,0,0,1,.57.13,201.08,201.08,0,0,0,85.71-25.84,1.45,1.45,0,0,1,.84-.2,348.43,348.43,0,0,0,69.12-69.67,1.53,1.53,0,0,1,.19-.4,319.74,319.74,0,0,0,26.89-48,1.53,1.53,0,0,1,.16-.77q8.19-16.85,14.92-34.4A7.34,7.34,0,0,1,613.29,778.47Z"/><path class="cls-9" d="M380,217.22a3.63,3.63,0,0,1,.2-.87,1.92,1.92,0,0,1,1.64-1.47l.42,0a1.33,1.33,0,0,1-.23-.17,12.62,12.62,0,0,0-1.55.45,14.77,14.77,0,0,0-1.7.87,1.66,1.66,0,0,1-.31.15,6.33,6.33,0,0,0-2.73,4.65,1.69,1.69,0,0,1-.07.29l0,.07.11.5,4.54.05a4.82,4.82,0,0,1-.73-3.28A4.08,4.08,0,0,1,380,217.22Z"/><path class="cls-4" d="M310,332.85h-.32c0,.19,0,.38,0,.57Z"/><path class="cls-4" d="M389.3,220.19l-.24,0a1.69,1.69,0,0,1,0,.3A3.56,3.56,0,0,0,389.3,220.19Z"/><path class="cls-2" d="M308.4,378.49c3.5,2.66,6.52,6.1,3.51,9.83a6.06,6.06,0,0,1-3.76,2.14c1.37,2.38,1.21,5.47-1.86,6.79a1.34,1.34,0,0,1-.48,1.9,4.75,4.75,0,0,1-1.77,2.44,6.63,6.63,0,0,1-5.17,1,1.52,1.52,0,0,1-.34.5l-.17.15,0,.12,18.39.64h2a12.56,12.56,0,0,0,5.34-4.33,11,11,0,0,0,1.9-8.3,1.61,1.61,0,0,1-.22-.23l-5.87-7.49a25.92,25.92,0,0,1-6.06-7.48c-.93-1.7,1.66-3.21,2.59-1.51a23.44,23.44,0,0,0,4.36,5.76,1.28,1.28,0,0,1,.75.5l.44.56a23.07,23.07,0,0,0,2,1.48,209.37,209.37,0,0,0-5.42-25.64,1.5,1.5,0,0,1,2.89-.8q2.3,8.29,3.9,16.72c-.36-7.55-.46-15.13-1.14-22.65-.83-9.2-3-18.76-3.43-28.11a19.71,19.71,0,0,0-2.77,3c-.57.76-1.11,1.52-1.63,2.28a6.32,6.32,0,0,1-2.43,3.65c-3.29,5.08-6.33,10.12-10.95,14.54a55.68,55.68,0,0,0-7.9,9.56,89.84,89.84,0,0,1,6.74,11.92C308.3,368,313.56,372.27,308.4,378.49Z"/><path class="cls-4" d="M304.82,374.69a1.23,1.23,0,0,1,.63-.14h.26l.14,0,.14-.08,0,0,.05,0,0-.09a1.52,1.52,0,0,1,1-.7c-.28-1.51-1.93-2.54-3.87-3Q304.1,372.61,304.82,374.69Z"/><path class="cls-9" d="M392.78,215.64a7,7,0,0,1-1,6,12.3,12.3,0,0,0,4-.89,1.25,1.25,0,0,1,.06-.31,6,6,0,0,0,.26-2.6,1.09,1.09,0,0,1,.05-.45Z"/><path class="cls-4" d="M292.48,234.79h0v0Z"/><path class="cls-10" d="M356.51,264.65c-6.16.15-12.42.53-18.57,0,1.47,3.51,2.75,7.22,6.5,8.81,3.21,1.37,9.17,1.24,12.65,1.06a19.71,19.71,0,0,0,13.19-5.37,31.24,31.24,0,0,0,4.11-5.34C368.68,265.09,362.33,264.51,356.51,264.65Z"/><path class="cls-9" d="M355.52,262.76c6.15-.19,12.86-1.18,18.95-.16a.52.52,0,0,1,.43.45q.39-.56.79-1.1l-.3,0h0c-6.4,0-12.84-2.05-19.26-2.43a60.87,60.87,0,0,0-19.51,2.32c.35.63.66,1.29,1,2C343.48,262.93,349.55,262.95,355.52,262.76Z"/><path class="cls-9" d="M326.93,223.2a15.21,15.21,0,0,0-5.55-3.9c.06.11.11.22.16.33a5.09,5.09,0,0,1,1.08,3.35,3.5,3.5,0,0,1-.55,1.81A25.12,25.12,0,0,0,326.93,223.2Z"/><path class="cls-4" d="M299,272.1c.85,1.57,1.68,3.15,2.52,4.73q3.87,3.53,8,6.66a47,47,0,0,0,5.78,3.19c1.75.61,3.5,1.27,5.24,2l16.46,3.89a1.48,1.48,0,0,1,.59.28,38.19,38.19,0,0,1,12.77,1.8.36.36,0,0,1,.17.12,4.41,4.41,0,0,1,1.71.62c.54.11,1.09.24,1.64.4,4.63,1.33,8.22.65,12.26-.15a3.58,3.58,0,0,1,1.6-.52,4.42,4.42,0,0,1,1.47-1.22,1.08,1.08,0,0,1,.25-.36,10,10,0,0,1,4.1-2.16,1.47,1.47,0,0,1,1.15-.61l.66,0a56.35,56.35,0,0,0,15.49-7.4,1.33,1.33,0,0,1,.92-.25,1.58,1.58,0,0,1,.32-.23,23,23,0,0,0,6.86-5.54c.49-2.82,1.06-5.61,1.63-8.35a178.58,178.58,0,0,0,3.49-49.68,12.94,12.94,0,0,1-5,2.66,6.07,6.07,0,0,1-3.8,2.61c-2.81.7-6,.26-8.87.23L375,224.65h0a1.51,1.51,0,0,1-.89,0,1.5,1.5,0,0,1-.39-.1,1.65,1.65,0,0,1-.6,0,1.53,1.53,0,0,1-1-1.85l.52-2.49a1.24,1.24,0,0,1,.35-.62,9.11,9.11,0,0,1,5.11-6.57,19.86,19.86,0,0,1,12-1.93c.52,0,1,0,1.55.08a22.84,22.84,0,0,0-4.38-.64,22.41,22.41,0,0,0-14.84,4.47c-.51.39-1.16-.47-.69-.89,8.2-7.13,21.34-7.45,30.3-1.31a1.43,1.43,0,0,1,1.54.17,156.72,156.72,0,0,0-2.6-15.68l-.24-.1c-.59-.31-1.2-.59-1.81-.85a1.36,1.36,0,0,1-1.27.75H384.68L373,199.71l-8.39,2.36a1.52,1.52,0,0,1-1.57-2.39,19.88,19.88,0,0,1,.65-3.49,1.48,1.48,0,0,1,1-1l23.07-5.4a1.18,1.18,0,0,1,1.15-.43,20.69,20.69,0,0,1,7.4,2.31,1.32,1.32,0,0,1,.72.95q1.06.28,2.09.66c-10-13.95-21.1-26.69-34.16-37.74l-.93-.37c-2.49,0-5,.12-7.47.34-6.38.56-14.79,1.2-20.1,5.2a1.28,1.28,0,0,1-2.05-.77,10.81,10.81,0,0,0-1,1.53c-.9,1.71-3.48.2-2.59-1.51l0,0a4,4,0,0,0-.76,1.09.77.77,0,0,1-1,.33c-.06.19-.11.37-.19.56a1.09,1.09,0,0,1-2,.27,1.13,1.13,0,0,1-.29-.13c0,.13,0,.25-.06.38a1,1,0,0,1-1.89.25,6.56,6.56,0,0,1-.5-1.74q-.08.81-.1,1.66a.61.61,0,0,1-1.19.16,7,7,0,0,1-.32-2.48.9.9,0,0,1-.21-.4,6.25,6.25,0,0,1-.1-.74,1.44,1.44,0,0,1-.8.37,1.51,1.51,0,0,1-.55,1.34,5.08,5.08,0,0,1,.46,1c.23.73-.57,1.67-1.35,1.35a6,6,0,0,1-1.38-.84,4.56,4.56,0,0,1-1.29.37c-6.12.73-10.45,7-13.82,13.24a5.14,5.14,0,0,1-.21,1.53c-.53,1.82-1.16,3.6-1.86,5.35-.93,4.62-1.48,9.2-2,12.86-.16,1-.31,2.06-.46,3.09a1.53,1.53,0,0,1,.61-.13,27.81,27.81,0,0,1,2.61-1.53,1.5,1.5,0,0,1,.69-.83c2.37-2.65,9.31-1.9,14.17-1.06a62.31,62.31,0,0,1,12.36,1.68,7.3,7.3,0,0,0,2.54.82,7.93,7.93,0,0,1,1,6,1.52,1.52,0,0,1-2.74.36l-.18-.33a1.9,1.9,0,0,1-1.3-.29,1.26,1.26,0,0,1-.53.11,1.39,1.39,0,0,1-1.1.13,51.56,51.56,0,0,0-6.2-1.26H306.4c-2,0-4.68.54-6.73-.14a1.17,1.17,0,0,1-1.14.17c-.8,5.66-1.49,11.33-2,17a6.73,6.73,0,0,1,1.29-.47h.11a14.28,14.28,0,0,1,2.91-2.41,17.56,17.56,0,0,1,2.31-1.33c1.68-1.73,4.39-2.32,7-2.67a6.61,6.61,0,0,1,2.84-.56,9.28,9.28,0,0,1,1-.11.49.49,0,0,1,.43.2c4.92-.33,9.79.51,13.41,4.17.49.49-.23,1.17-.75.75-3.76-3.11-7.84-4.13-12.65-3.88l-.56,0-.4.21.3,0a9.29,9.29,0,0,1,2.8.74,13.63,13.63,0,0,1,5.78,2.31,17.17,17.17,0,0,1,5,3,1.66,1.66,0,0,1,1,.69l.06.08a5.37,5.37,0,0,1,1.38,1.58,7.4,7.4,0,0,0,1.49,1,1.51,1.51,0,0,1,.54,2.05,1.54,1.54,0,0,1-2.05.54l-.13-.08a28.77,28.77,0,0,1-10.66,3,1.23,1.23,0,0,1-.91.58,24,24,0,0,1-14.67-2.12l-5.93-1.42a1.13,1.13,0,0,1-.54-.13L296,225c-.34,4.55-.57,9.11-.65,13.67a161.37,161.37,0,0,0,2.15,30.29Q298.26,270.54,299,272.1ZM387.23,229c3.25-.47,6.47-1.33,9.74-1.58.28,0,.3.38.06.46a42.49,42.49,0,0,1-9.75,1.5C387.06,229.38,387,229,387.23,229ZM364,246.13c.34-.41.94.12.71.54a7.84,7.84,0,0,1-1.37,1.81l.48-.17c.14-.05.2.18.06.23l-.93.33c-.53.49-1.23,1-1.9.65a.65.65,0,0,1-.29-.71c.13-.71,1.09-.9,1.63-1.24A6.78,6.78,0,0,0,364,246.13Zm-6.5.23c0-1.07,1.75-1.32,2.52-1.49a1,1,0,0,1,1,.29,1,1,0,0,1,.26.24,1,1,0,0,1,.92,1,1.06,1.06,0,0,1-1.32,1,2,2,0,0,1-.86-.34l-.43.12a8.73,8.73,0,0,1-1.56.41A.68.68,0,0,1,357.49,246.36Zm-8.95-8.75a6.05,6.05,0,0,1,7.68-1.53c.35.21.12.83-.29.68-2.49-.92-5.18-.84-7.22,1A.12.12,0,0,1,348.54,237.61Zm-.93,8c.73-.26,1.29.28,2,.36.34,0,.68,0,1,0a2.05,2.05,0,0,1,1,.36.56.56,0,0,1,.21.24,2.3,2.3,0,0,1,.9.79.53.53,0,0,1-.6.77,4.17,4.17,0,0,1-.82-.37,2.59,2.59,0,0,1-1.86.46c-.94-.06-2.36-.3-2.58-1.39A1,1,0,0,1,347.61,245.57Zm-3.69-.53c.12-.44.68-.29.73.1a3.88,3.88,0,0,0,4.16,3.18c.77-.07.76,1,.17,1.23A3.89,3.89,0,0,1,343.92,245Zm-16,13.32a1.11,1.11,0,0,1,.07-.17c.77-1.26,2.15-1.41,3.51-1.14a1.31,1.31,0,0,1,.78,1.92,4.77,4.77,0,0,1-.46.56,8.64,8.64,0,0,0,1.35.12c1.31,0,2.62-.64,3.88-.49a.66.66,0,0,1,.56.48c5.23-2.15,11.17-2.64,16.76-2.54,6.76.12,15.24.71,21.53,3.29a.86.86,0,0,1,.4.34,3.67,3.67,0,0,1,.47-.18c.4-.13.82-.19,1.22-.28a6,6,0,0,0,.74-.18,1.08,1.08,0,0,0,.52-.28l-.39-.28c-.7-.54-.65-2.13.53-2a2.44,2.44,0,0,1,.88.31c.8.29,1.67.07,2.47.37s1.13,1.2.47,1.76a2.55,2.55,0,0,1-2.1.57,2.11,2.11,0,0,1-.17.28,4.14,4.14,0,0,1-3.32,1.16,23.29,23.29,0,0,1-21.41,14.57c-4.06.08-12.29.25-15.76-2.3-3.2-2.35-4.11-8.63-5.38-12.32a.72.72,0,0,1-.3-.47,13.91,13.91,0,0,1-1.6.19,10.72,10.72,0,0,1-5.22-1h0l-.29-.12A1.24,1.24,0,0,1,328,258.36Zm-26.9-28.66a27.41,27.41,0,0,0,9,2.86c.36.07.26.61-.08.61a18,18,0,0,1-9.18-3A.27.27,0,0,1,301.05,229.7Z"/><path class="cls-5" d="M182.64,431.79c-1.43-.14-2.84-.53-3.52-1.6-1.22-1.91.1-5.23.85-7.05a18.46,18.46,0,0,1,3.37-5.3,1.44,1.44,0,0,1-.15-.62q-3,.15-6,0a1.58,1.58,0,0,1-.16.4,38.32,38.32,0,0,1-5.37,7.14,1.67,1.67,0,0,1-.7,2.05,94.63,94.63,0,0,1,10.51,29.76C182.36,448.33,183.25,440,182.64,431.79Z"/><path class="cls-9" d="M303.09,222.2a5.32,5.32,0,0,0,.42.43l.16.13.2.14a5.41,5.41,0,0,0,.53.29,1.31,1.31,0,0,1,.67.86l.27.07a1.34,1.34,0,0,1,.87.6,20.51,20.51,0,0,0,3.69,1.1,7.14,7.14,0,0,1-3.22-5.66,36,36,0,0,0-3.75,1.8l.11.17,0,0Z"/><path class="cls-2" d="M281.2,404.7a1.32,1.32,0,0,1,.72,1l.45-.24c.57-.31,1.15-.59,1.73-.86a10,10,0,0,1-2.09-1.91c-4.24-5.15-3-12.15-1.68-18.12a1.29,1.29,0,0,1,.74-1,20.16,20.16,0,0,1,1-3.68l-.27,0C277.06,388.35,271.5,399.4,281.2,404.7Z"/><path class="cls-4" d="M281.33,374.81a2.28,2.28,0,0,1-.42-.14l.3.39Z"/><path class="cls-4" d="M277.31,382.5s.05.09.08.14c.78-1.56,1.56-3.12,2.35-4.68a41.78,41.78,0,0,1-8.31-15.57c.28,4.58.45,9.17.49,13.75A45.74,45.74,0,0,1,277.31,382.5Z"/><path class="cls-5" d="M265.52,374.63a30,30,0,0,0-7.2-4.09,61,61,0,0,0,8.78,18.8c.84,1.19-1,2.39-1.93,1.49-6-5.56-9.36-13-11.34-20.84a1.16,1.16,0,0,1-.65-.22c-4.75,12.06-13.82,21.28-23.83,30.65-10.36,9.7-22.86,19.21-37.21,19.12a45.05,45.05,0,0,1,5,7.93,1.53,1.53,0,0,1-.9,2.2,27.85,27.85,0,0,1-10.52,2.17h0c.92,12.49-1.67,25.38-2.5,37.83-.12,1.83-.21,3.66-.32,5.49,0,.09,0,.18,0,.27a29,29,0,0,0,14.77,16.39,1.51,1.51,0,0,1,.37.26,184.21,184.21,0,0,1,64.46-40.55,27.59,27.59,0,0,1-1.78-16.1A38.05,38.05,0,0,1,268.26,420a29.75,29.75,0,0,1,7.13-10.52,1.47,1.47,0,0,1,.78-.4c.46-.36.95-.7,1.45-1a13.67,13.67,0,0,1-3.13-5.62,1.62,1.62,0,0,1,0-.22c-2.5-4.6-1.61-10.47,1-15.67.32-.65.65-1.29,1-1.94a1.52,1.52,0,0,1-1.67-.61q-.92-1.3-1.93-2.53a1.23,1.23,0,0,1-.93.83c-.07,3.42-.22,6.83-.47,10.22a.68.68,0,0,1-1.37,0q-.41-6.77-.79-13.52-.56-1.14-1.09-2.31Q266.89,375.61,265.52,374.63Z"/><path class="cls-4" d="M283.62,399.76a7.17,7.17,0,0,0,4.42,3.32,24,24,0,0,1,4.8-.92,1.21,1.21,0,0,1,.62-.12,3.76,3.76,0,0,0,2.21-.47,37.08,37.08,0,0,1-5.49-3.38c-1.57-1.11-.07-3.71,1.51-2.59a32.92,32.92,0,0,0,5.63,3.41,7,7,0,0,0,3.28.74,3.54,3.54,0,0,0,2.3-1.55,43.1,43.1,0,0,1-4.21-4.31l-5.06-4.4c-1.46-1.27.67-3.38,2.12-2.12l3.52,3a1.27,1.27,0,0,1,.81.5c.22.27.44.52.66.78l.21.18c.63.54,1.25,1.1,1.89,1.64a4.05,4.05,0,0,1,1.85.91,3,3,0,0,0,1.37-1.4,2.63,2.63,0,0,0-1.3-2.06,1.49,1.49,0,0,1-.66-1.23,4.31,4.31,0,0,1-1.58-2.21l-.07-.07a26.15,26.15,0,0,0-5.51-4.11,1.5,1.5,0,0,1,1.51-2.59,30.36,30.36,0,0,1,4.78,3.34l.31.29a1.23,1.23,0,0,1,.76.21l3.86,2.7.07.06a2.61,2.61,0,0,0,.44-.19c5-2.7-5.31-8.43-7.14-9.7a1.61,1.61,0,0,1,.12-2.68c-.54-1.48-1.1-2.94-1.73-4.37a18.89,18.89,0,0,0-7.1,1.83,16,16,0,0,0-9,12.48,1.56,1.56,0,0,1-.77,1.17C282.11,390.4,281.06,395.58,283.62,399.76Z"/><path class="cls-2" d="M298.63,367.55a86.87,86.87,0,0,0-5.23-9.25c-3,5-5.55,10.29-8.28,15.69-.52,1-1.15,2.16-1.85,3.39l0,0A20,20,0,0,1,298.63,367.55Z"/><path d="M352.82,373.09a3.05,3.05,0,0,0,.66,0c1.94.08,2.69-2.22,2.91-4.79a8.58,8.58,0,0,0-.14-5.77,2.91,2.91,0,0,0-1.22-2.82l-.28-.48a1.49,1.49,0,0,0-2.54,0c-2.81.7-2.87,4.32-2.79,6.69S349.24,372.92,352.82,373.09Z"/><path d="M384.53,371.25c3.21,2.14,5-1.63,5.31-4.21.42-3-.08-6.91-3.11-8.18a1.71,1.71,0,0,0-.33-.2,1.89,1.89,0,0,0-1.65-.55c-1.49.17-2,1.6-2.27,2.89C381.84,364.11,381.47,369.21,384.53,371.25Z"/><path d="M347.07,391.19c6.73,25.3,51.4,21.67,51.65-5a1.21,1.21,0,0,0,.92-1.57,5.93,5.93,0,0,0-3.68-4.12,1.22,1.22,0,0,0-1.37.56c0,.09-.09.19-.12.29a1.23,1.23,0,0,0,.56,1.37l.3.23a1.42,1.42,0,0,0-.23.42l-.08.24a.85.85,0,0,0,.22.84,2.6,2.6,0,0,0,.46.36c.46,11.51-8.35,19.41-19.61,20.38-11.06,1-23.46-3.53-26.28-15.34a1.38,1.38,0,0,0-.5-.8,5.24,5.24,0,0,1,1.41-1c1.82-.65,1.09-3.49-.81-2.93a5.69,5.69,0,0,0-3.38,2.28,6.85,6.85,0,0,0-1.62,2.77A1.24,1.24,0,0,0,347.07,391.19Z"/><path class="cls-7" d="M731.67,295A79,79,0,0,0,681.9,280.5c.54-5.15.64-10.37.68-15.57.08-9.51.09-19.19-2.14-28.49-2.19-9.09-6.85-16.51-13.26-23.23C654.21,199.62,640,189.46,621,187c-18-2.31-36.59,1.58-53.21,8.54a84.75,84.75,0,0,0-47.17,49.57c-8.81-11.26-23.6-13.62-37.28-11.83-14.34,1.87-26.89,7.39-35.85,18.84A1.28,1.28,0,0,0,447,252l-.18,0c-2.6-20.71-5.7-41.45-9.1-62-2.14-13-5.42-25.61-11.45-36.78a33.54,33.54,0,0,0-6.36-9.8,64.64,64.64,0,0,0-8.61-9.12,78.46,78.46,0,0,0-35-24.17C360.16,102.11,342.54,99,325,106.26a41,41,0,0,0-9.94,2.79c-8.63,3.7-15.77,10.37-18.65,19.33-22-11.24-38.32,71.45-39.77,82.86q-1.07,8.47-1.48,17c-1.78,9-3,18.11-4,27.06q-.68,6.46-1.17,13a26.6,26.6,0,0,0-17.53,10c-2.5-2.59-5.14-5.06-7.87-7.41-5.85-12.14-10.6-24.94-15.22-37.47a575.11,575.11,0,0,1-17.78-57.43c1.71-.38,3.56-.84,4.62-2,2.73-3.11-.88-8.5-3.72-12.24,28.28-2.48,51.67-24.29,58.92-51.74,8.06-30.5-2.24-65-26.24-85.67A75,75,0,0,0,182,6.28c-16.85-1.19-33.89,4.35-48.77,11.89-14.17,7.18-25.87,17.94-30.34,33.58-4.38,15.32-2.72,32.17,3,46.93,12.61,32.77,43.37,53.08,77,59.06a1.39,1.39,0,0,0,1.38,1.31,1.56,1.56,0,0,0-.45,2.13,70.87,70.87,0,0,0-7.36,16.59,1.51,1.51,0,0,0,1.85,1.85l10.45-2.94c7.79,30.68,17.81,61.19,30.91,90.08-1-.76-2-1.5-2.94-2.23-7.11-5.23-14.69-10.05-22.92-13.31-8.76-3.46-18-4.18-27.35-3.69-8.93.47-18.12,1.49-26.45,4.92-7.75,3.19-13.92,8.66-19.06,15.19a103.32,103.32,0,0,0-15.93,29l-.19,0c-9.69-1.2-20.66,7.54-27,14a64.91,64.91,0,0,0-16.27,29.49c-4.68,18.39-3.95,43.73,12.15,56.47a79.52,79.52,0,0,0-22.47,31.21c-10.28,25.29-8.92,55.65,5.38,79.16a79.16,79.16,0,0,0,54.88,36.48A32.79,32.79,0,0,0,105,554.48a1.51,1.51,0,0,0,1.45,1.9l5.89,0a1.6,1.6,0,0,0-.08.43L107.9,646c-1.41,29-4.08,58.34-1.29,87.34,2.74,28.52,8.59,56.8,13.38,85,4.43,26.14,7.9,52.84,16.24,78.1a146.37,146.37,0,0,0,18.57,38c6.8,9.76,14.73,18.63,22.86,27.29-.5,2.8-.34,5.77,1.52,8a6.72,6.72,0,0,0,4,2.3,128.54,128.54,0,0,1,6.2,40.76,1.5,1.5,0,0,0,3,0A131.36,131.36,0,0,0,189,982.1a179.56,179.56,0,0,1,9.69,33.2c.36,1.89,3.25,1.09,2.89-.8q-1.22-6.41-2.88-12.69,3.85,10.34,7.12,20.89c.57,1.84,3.47,1.05,2.89-.8a396.38,396.38,0,0,0-19.75-51,6.51,6.51,0,0,0,3-5.5,4.91,4.91,0,0,0-4.55-4.94c8.19-21.77,28.4-36.86,38.8-57.59a1.58,1.58,0,0,0,.15-.52,236.79,236.79,0,0,0,33.77,21.74,1.47,1.47,0,0,0,.5.42,350.86,350.86,0,0,0,141.85,39.81,1.51,1.51,0,0,0-.67.56l-16.71,24.73c-2.18,3.23-6.88,9.23-1.72,12.14,2.3,1.3,6.14,1.14,8.6,1.41q6.68.75,13.39,1.2c9.59.65,19.19.8,28.79.55a1.5,1.5,0,0,0,1.3-.74c3.3-6.56-1.53-12.52-6-17.12-7.38-7.54-14.85-15-22.28-22.48l3.35.15a1.3,1.3,0,0,0,1.09.42,204.51,204.51,0,0,0,87.24-25,1.18,1.18,0,0,0,1.4-.1,353.21,353.21,0,0,0,73.2-73.63,1.34,1.34,0,0,0,.27-.71,319.47,319.47,0,0,0,22.94-40.24l15.56,10a1.4,1.4,0,0,0,.77.24l0,0a3.62,3.62,0,0,0-2.81,4c.14,2.15,1.94,3.58,4,4.33q1.78,7.5,3.26,15a861.13,861.13,0,0,1-11.86,158.55c-.32,1.89,2.57,2.7,2.89.8q1.15-6.82,2.18-13.65c-.08,2.48-.14,5-.13,7.46a1.5,1.5,0,0,0,3,0c-.14-29.54,6.84-58.43,9.14-87.78q.8-10.28.94-20.59a396.87,396.87,0,0,1-5.22,103.22c-.35,1.89,2.54,2.7,2.89.8q.78-4.24,1.45-8.49c-1.13,9.07-2.34,18.1-3.56,27.07-.26,1.89,2.63,2.7,2.89.8,8.22-60.53,16.4-123.78-1.92-183.09a6.35,6.35,0,0,0,4.35-5.37,6.75,6.75,0,0,0-1.8-5.28c30.34-30.33,42.37-73.43,50.62-114.43A1022.64,1022.64,0,0,0,692.66,556.8q1.79-46.6-.67-93.22a1.59,1.59,0,0,0-.1-.47,75.14,75.14,0,0,0,10.63-.59,1.53,1.53,0,0,0,1.45-1.9,35.75,35.75,0,0,0-7.23-14.73c7.11-.53,14.25-1.37,21-3.76,7.71-2.74,14.18-7.6,19.71-13.56a104,104,0,0,0,24.14-44.43C769.92,351.49,759.63,315,731.67,295ZM114.54,109.83c-15.45-26.55-16.85-64.41,10.7-83.46,26-18,61.1-23.69,88.85-6.57C239.62,35.55,253.52,66.5,250.86,96c-2.43,27-20,51.46-45,59.81a1.36,1.36,0,0,0-1.28-.25,33.81,33.81,0,0,1-6.61,1.15,1.62,1.62,0,0,0-.38,0h-5.11l-.35,0A1.36,1.36,0,0,0,191,156h-1.61a1.56,1.56,0,0,0-.92-.45C158.66,151.73,129.94,136.28,114.54,109.83ZM180.15,176a67.72,67.72,0,0,1,6.72-14.08q1,0,2,0c.92,1.34,1.83,2.69,2.69,4.07.57.93,1.68,2.18,1.93,3.27.54,2.44-.45,3.14-2.43,3.7Zm374.42,29.75c29.62-19,73-24.45,100.83.24,6.82,6,14.14,12.81,18.39,21,4.34,8.33,5.42,17.92,5.71,27.17.29,9.1.42,18.48-.7,27.52A62.92,62.92,0,0,1,668,309.25c-18.91,28-52.31,44.13-85.72,43.81a1.28,1.28,0,0,0-1.49,0h-.15l-.25-.08a1.62,1.62,0,0,0-1.12-.33c-29-9.23-52.8-33.92-59-64C513.88,257.53,527.76,222.91,554.57,205.71Zm11,287.08-7.34-12.62a37.91,37.91,0,0,0,5.36-1.61,1.52,1.52,0,0,0,.9-2.2,91.15,91.15,0,0,0-6-9.25,82.56,82.56,0,0,0,19.7-7.26c.93-.48,1.87-1,2.81-1.52q2.5,16.85,4,33.82.68,7.84,1.15,15.7c.16,2.69.13,5.47.34,8.21-6.51-7.72-13.57-15-20.81-22.05A1.38,1.38,0,0,0,565.57,492.79Zm-55.24-42.95a1.33,1.33,0,0,0-1,.31,98.43,98.43,0,0,0-31-9.72,1.51,1.51,0,0,0-.4,0A26.74,26.74,0,0,0,480,429.13c-.34-7.61-4.38-14.23-8.44-20.43a1.53,1.53,0,0,0-.52-.5c1.51-5.51,1.07-11.52-2.1-18.08-3.63-7.52-9.5-13.49-14.48-20.08-.69-.91-1.37-1.84-2-2.78.53-6.81.77-13.66.8-20.54,13.59-25,47.81-41.1,74.22-31.65h0a92.76,92.76,0,0,0,42.69,37.34c-1.15.5-.9,2.71.71,2.91,1.46.18,2.91.32,4.37.43q-6.26,5.57-12,11.65A1.52,1.52,0,0,0,564.3,370a146.87,146.87,0,0,0,17.77.38c2,16.29-4.65,31.73-13.26,45.45a1.33,1.33,0,0,0-1,1.64c-1.94,3-4,5.92-6,8.75-5.44,7.58-11.79,15.11-20.17,19.54C532,450.82,520.91,450.37,510.33,449.84Zm21.44,2.35h0l-.35,10.59c0,.31,0,.66-.07,1A153.91,153.91,0,0,0,514.85,453,78.16,78.16,0,0,0,531.77,452.19Zm-100.53,8.9c-2.72-1.44-5.52.4-6.94,2.78a10.54,10.54,0,0,0-1,2.27c-2.57-5.65-9.62-9.63-15.1-11.68A16.26,16.26,0,0,0,397,454a18.63,18.63,0,0,1,.28-6.11,1.63,1.63,0,0,0,0-.39,28.1,28.1,0,0,1,6.63-9.61c3.28-3.38,6.6-6.72,9.92-10.07a.69.69,0,0,0,.49-.26c.27-.34.53-.69.78-1l.78-.79a1.45,1.45,0,0,0,.4-.71l.27-.31a15.2,15.2,0,0,1,2.94-2.21,1,1,0,0,0-.77-1.82,7.38,7.38,0,0,0-4.25,2.52,1.44,1.44,0,0,0-.71.41c-5.06,5.14-10.52,10.09-15.17,15.61-3.74,4.43-5.22,8.91-5.71,14.49a10.55,10.55,0,0,0-1.33,5.16c-3.41,4.77-6.54,9.88-7.71,15.63a25.05,25.05,0,0,0-17.76-.75,14,14,0,0,0-1.57.67,9.24,9.24,0,0,0-1.57-2.51c.17-3.81,0-8.29-1.54-11.3a1.39,1.39,0,0,0-.72-1.31l-.17-.08a5.26,5.26,0,0,0-2.41-1.72c-1.63-4.13-10-4.22-15-3.28a21.37,21.37,0,0,0-6.75-4.88c-1.5-.66-3.18-.84-4.65-1.49-2.86-1.25-3.76-3.21-5.47-5.34A34.46,34.46,0,0,0,312,432.19a1.29,1.29,0,0,0-.89-.06c-.77-.2-1.55-.36-2.32-.53a17.67,17.67,0,0,0-5.36-.76.85.85,0,0,0-.42,1.57,17.35,17.35,0,0,0,5.13,1.57c.76.17,1.54.36,2.33.51a1.56,1.56,0,0,0,.74.6c7,2.82,10.44,7.41,15.29,12.75a9.6,9.6,0,0,0,4.44,2.94c.8.27,1.55.53,2.27.8a1.89,1.89,0,0,0,.58.67l2.46,1.79a13.48,13.48,0,0,0,1.89,2.1c-5.05,2.87-8.33,7.75-10.46,13.15a1.38,1.38,0,0,0-.13.19.21.21,0,0,0,0,.16v0c0-.1,0-.21,0-.3a.74.74,0,0,0-1.29-.47,13.84,13.84,0,0,0-3-5.39c-2.21-2.22-6.13-3.44-8.94-1.64-3.2,2.06-2.8,6.46-.64,9.12a14.85,14.85,0,0,0,7.52,4.84,16.93,16.93,0,0,0-7.5,9.1,1.4,1.4,0,0,0,1.33,1.75,12.8,12.8,0,0,0,9.47-3.84,22.58,22.58,0,0,0,.4,6.42c-9.65-1.22-19.91-1.87-29.11-4.82-9.9-3.18-16.83-11-22.41-19.42-.75-1.13-1.51-2.29-2.27-3.46-.22-.43-.45-.86-.67-1.3a1.36,1.36,0,0,0-.53-.59c-4.17-6.73-7.7-14.11-6.52-22.09a32.57,32.57,0,0,1,6.07-14.06,1.45,1.45,0,0,0,1.12-1c.11-.33.24-.65.36-1a87,87,0,0,1,8.73-9.32,1.51,1.51,0,0,0,.34-.46q3.73-1.94,7.41-4l.19,0a1.6,1.6,0,0,0,.59-.19,43.48,43.48,0,0,1,6.76-.76,1.62,1.62,0,0,0,.55.18c1.82.23,3.65.39,5.48.49a1.54,1.54,0,0,0,.51.09h1.6l1.4,0a1.64,1.64,0,0,0,.36,0h.94l2.76.27.27.06a223.14,223.14,0,0,1,36.08,7.35l.36.2c5,3,10,6.41,15.35,8.78a1.62,1.62,0,0,0,.47.31l5.49,2.31a13.65,13.65,0,0,0,14.07.73,1.46,1.46,0,0,0,1-.4l1-.93a13.42,13.42,0,0,0,1.29-1.17l2.14-1.94a1.38,1.38,0,0,0,.45-.77,19,19,0,0,0,2.08-2.15c3.19-3.88,5.52-8.15,9.54-11.31.22-.18.46-.33.69-.5a1.66,1.66,0,0,0,.39-.11l7-3a1.45,1.45,0,0,0,.41-.26q1.86-.45,3.67-1.07a32.67,32.67,0,0,1,9.21,2.28,25.64,25.64,0,0,0,.08,3.16,10.39,10.39,0,0,0,3.39,6.26,1.41,1.41,0,0,0,1.27,1.74c-2.77,3.94-5.2,8.9-4.67,13.63.39,3.43,3,6.23,6.33,6a66.15,66.15,0,0,0-.95,9.64,3.5,3.5,0,0,0,2.92,3.74c0,2.73,3.5,5,6.7,4a1.7,1.7,0,0,0,.31.07,11.36,11.36,0,0,0,10-3.56,1.52,1.52,0,0,0,1.23-.33c8.27-6.69,14.24-14.18,11.39-24a1.52,1.52,0,0,0,.81-.37,45.17,45.17,0,0,0,10.38-12.16,28.42,28.42,0,0,1,4.94,4.87,1.28,1.28,0,0,0,.77.5A25,25,0,0,1,477,430.76c-.21,7.91-4.64,15.06-10.29,20.32-.38.36-.78.7-1.18,1a1.26,1.26,0,0,0-1,.5c-.41.49-.84.95-1.26,1.42-8.86,7.07-19.86,12.11-30,17.3l-1.7.64C434.1,467.81,435.38,463.28,431.24,461.09Zm-1.43,8.15a28.61,28.61,0,0,0,.71-4.6,1.3,1.3,0,0,0-.22-.82c1.27.92.29,3.92-.17,4.81C430,468.84,429.92,469,429.81,469.24Zm0,8a.85.85,0,0,1-.43.39q-.21-.47-.43-.94l.11-.08c.14-.14,0-.08.18,0a1.76,1.76,0,0,1,.38.21C429.79,476.93,429.89,477,429.78,477.23Zm-2.77,8.7a8.82,8.82,0,0,0,1.26,2.11,6.53,6.53,0,0,1-.72,2.58q-.14,1.12-.22.14a5.16,5.16,0,0,0-.47-1.6c-.24-.83-.44-1.67-.61-2.51A.92.92,0,0,0,427,485.93Zm-.5-3,.15.33c0,.06,0,.13,0,.19C426.59,483.3,426.55,483.12,426.51,482.95Zm1.2-2.77.18,0,0,.17Zm-2.46-3.37-.28.54q0-.21,0-.43A1.15,1.15,0,0,0,425.25,476.81Zm-33.72-3.93c-.08-.83-1.36-.87-1.33,0,.34,10.55.33,21.74,2.28,32.14a.49.49,0,0,0,0,.07q-.46.8-.93,1.59a5.09,5.09,0,0,1-2-2.66c-.56-1.69.66-6,.42-7.94a39.85,39.85,0,0,0-1.33-6c-1.61-5.73-3-11-1.4-16.84A194.07,194.07,0,0,0,390.66,499c.08.38.62.21.57-.16-1.3-8.64-2.63-17.21-3.3-25.92a.37.37,0,0,0-.47-.32l0-.06a35.1,35.1,0,0,1,3.75-7.78c1.77,9.82,2.54,19.59,3.81,29.49a.76.76,0,0,0,1.52,0c.79-10.06-1.35-21.3-4.38-31q.81-1.22,1.66-2.42a1.22,1.22,0,0,0,.73-1l.19-.26c10.43,13.46,6.31,29.73-1.14,43.54C393.91,493.13,392.53,482.76,391.53,472.88Zm12.54,8.37a35.61,35.61,0,0,0-7.25-23.89,9.29,9.29,0,0,1,1.37-.6,46.7,46.7,0,0,1,4.07,38.2c-1.25,3.78-3.42,10.35-7.38,12.09h0C399.64,499.09,403.59,490.75,404.07,481.25ZM403.94,499a49,49,0,0,0,3.46-14.26,49.62,49.62,0,0,0-6.06-28.54c3.71-.06,7.61,1.65,10.87,3.6,2.74,1.65,6,3.47,7.74,6.23a10.64,10.64,0,0,1,1.43,3.81c-.21-.08-.47,0-.51.23a20.4,20.4,0,0,0,.73,9.05c-.37,10.93-2,24.19-13.84,27.61a37.88,37.88,0,0,1-9.18,1.45C401.17,505.89,402.69,502.05,403.94,499Zm-44.27-26.14c.13.09.22.21.34.31-.3,3.94-1,7.59-1.18,8.93-.25,1.6-.55,3.19-.87,4.77.36-7.81.24-15.73.54-23.33,0-.69-1.11-.87-1.23-.17-1.78,10.57-3.78,22.27-3.16,33.2-1.44,1.22-3.37,1.27-5.88-1.56-3.75-4.23-3-11.75-2.07-16.85a45.62,45.62,0,0,1,2.23-8.13c.8-2.13,2.81-7.8,5.34-9.44a1.55,1.55,0,0,0,.46-.06,5.43,5.43,0,0,1,1.5-.25l.16.07a1.78,1.78,0,0,0,1.21.55l1.28.59c1.45,1.72,1.86,5.07,1.81,8.6a1.63,1.63,0,0,0-1,.71A1.53,1.53,0,0,0,359.66,472.89Zm-29.07,15.9a1.3,1.3,0,0,0,1.63-1.24c-.15-4.8-.42-9.59-.74-14.38a14.27,14.27,0,0,1,3-3.7,1,1,0,0,0-.42-1.58,5.3,5.3,0,0,0-2.7.13,23.47,23.47,0,0,1,4.17-6.11,16.24,16.24,0,0,1,8.79-4.94,20.46,20.46,0,0,1,2.39-.09c-2.12,2.25-3.41,5.78-4.46,8.35a47.15,47.15,0,0,0-3.49,19.92c.24,5,2.1,12.28,5.86,16.37a26.71,26.71,0,0,1-9-3.07,15.25,15.25,0,0,1-7.26-7.87,1.17,1.17,0,0,0-.2-.51,15.46,15.46,0,0,1-.66-2.93A6,6,0,0,0,330.59,488.79Zm-3-7.22c.08-.67.19-1.36.32-2.05l.06.17a16.9,16.9,0,0,0,.14,2.32v0h0c0,.08,0,.16,0,.24.13.88,1.32.81,1.69.16l.06,0c-.05,1-.1,2.09-.14,3.14A6.23,6.23,0,0,1,327.57,481.57Zm2.34-1.91a4.52,4.52,0,0,0,.13-.46c0,.31,0,.61,0,.92l-.08-.2C329.91,479.82,329.91,479.74,329.91,479.65Zm.23-7.87c0-.21,0-.42,0-.63a4.1,4.1,0,0,1,.49-.59l0,.51C330.43,471.31,330.29,471.54,330.14,471.78Zm.09,4.32-.06.87q0-.27,0-.54Zm1-6,.19-.11-.15.18A.29.29,0,0,0,331.22,470.09ZM343,492.88A36.89,36.89,0,0,1,341.84,481a44.29,44.29,0,0,1,2-11c.76-2.46,3.75-11.94,7.1-12.25a1.51,1.51,0,0,0,1-.48c.48.07.94.16,1.35.26-3.71,1.16-5.64,6.7-7,9.87a47.52,47.52,0,0,0-3.67,15.48c-.38,5.86,1.26,17.23,8.94,17.71a7.68,7.68,0,0,1-1.52.67C346.54,500.33,344,496.42,343,492.88Zm-25-27.25c-.61-.57-1.87,0-1.52.88a13.74,13.74,0,0,0,4.62,6.1l-.17-.07a19.4,19.4,0,0,1-3.2-1.93c-2.1-1.55-4.68-6.5-.3-6.93,4.6-.45,5.53,3.88,6.53,7.7A71.75,71.75,0,0,0,318,465.63Zm5.66,14.7a11.39,11.39,0,0,1-6.56,3.43,11.48,11.48,0,0,1,1.83-2.56,1.33,1.33,0,0,0,1.43.44C321.38,481.26,322.57,480.86,323.66,480.33Zm4.87-143.06h0a10.42,10.42,0,0,0,1.22-.78c.41-.31.2-1.05-.38-.89a17.27,17.27,0,0,0-3.21,1.4.65.65,0,0,0-.23.19l-.3-1.92a.7.7,0,0,0,.78,0,22.11,22.11,0,0,0,4.12-2.79c0,.25,0,.5,0,.75,0,6.08-.14,12.16-.48,18.22-.2,3.63-.54,7.24-.93,10.83-.39-5.32-1-10.64-1.81-15.94a.84.84,0,0,0,.28-.19.92.92,0,0,1,.48-.27.92.92,0,0,0,.65-.85.87.87,0,0,0-.44-.76,1.43,1.43,0,0,0-1.29-.08q-.46-3.09-.94-6.18a.66.66,0,0,0,.77.12l.39-.19a.47.47,0,0,0,.39.07l.94-.21A.28.28,0,0,0,328.53,337.28Zm.87-18.43a10.73,10.73,0,0,0-3.08,1.11,13,13,0,0,0-2.69,1.64c0-.36-.09-.73-.14-1.09a51.18,51.18,0,0,1,6.79-3.44c-.12,3.06,0,6.15.08,9.23a.52.52,0,0,0-.71-.27,10.22,10.22,0,0,0-4,3.83.41.41,0,0,0,.64.5c1.33-1.18,2.64-2.37,4-3.56a.44.44,0,0,0,.13-.2c.06,1.6.11,3.2.13,4.79a.45.45,0,0,0-.26,0,20.48,20.48,0,0,0-4.64,2.53.8.8,0,0,0-.17.17c-.55-3.53-1.08-7.06-1.55-10.58a.84.84,0,0,0,.35,0,12.14,12.14,0,0,0,3-1.54,10.56,10.56,0,0,0,2.58-2.08C330.07,319.51,330,318.78,329.4,318.85Zm-.22,77.69a1.41,1.41,0,0,0-.18-.76,12.3,12.3,0,0,0-.25-5.7,1.63,1.63,0,0,0,.77-1c3.28-12,4.15-25.22,4.72-37.62.53-11.49,1.36-24.37-1.14-35.78a34.12,34.12,0,0,0,8.41-6.55,64.75,64.75,0,0,1,1.47,7.61,7.08,7.08,0,0,0-2.15,2.79,7,7,0,0,0-1.47,3.06,1.45,1.45,0,0,0-.18,1.59,11.87,11.87,0,0,0,2.72,7.54c4.95,6,13.79,6.39,20.86,5,6.56-1.27,13.2-4.79,16.23-11a15.35,15.35,0,0,0-1.57-16.54,1.28,1.28,0,0,0-.2-.87,1.33,1.33,0,0,1-.34-.77c0,.25,0-.2,0-.22s0-.12,0-.14v-.06c5.81,2.78,12.16,3,18.58,2.93-1.11,6.55-.56,13.67-.18,20.19a204.84,204.84,0,0,0,2.51,21.64A198.18,198.18,0,0,0,403,374.41c2,6.77,3.9,14.84,7.89,20.76a6.74,6.74,0,0,0,2.66,3.76c.08.23.17.47.28.69h-.22a33.27,33.27,0,0,0-20.8,10c-3.15,3.35-5.1,7.84-8.6,10.84-4.32,3.71-10.44,4.25-15.84,3.17-7.56-1.51-13.89-6-20.4-10A58.5,58.5,0,0,1,366,416.55c1.84.6,2.63-2.29.8-2.89a60.91,60.91,0,0,0-15.73-3l-11.94-1.76a57.66,57.66,0,0,0-14.09-4A11.31,11.31,0,0,0,329.17,396.54Zm6.4-86.36L336,310l-.44.32Zm19-3.49c1.35,1.34,2.39,2.58,4.42,2.45s3.16-1.69,4.52-3a36.86,36.86,0,0,1,9-6.28c-.57,7-.41,15,4.55,19a1.55,1.55,0,0,0,.72.33c-.55,5.89-5.78,11.43-11.61,13.51a29.08,29.08,0,0,1-11.58,1.6c-3.44-.23-7-1.14-9.55-3.61a9.68,9.68,0,0,1-3-6.61,6.76,6.76,0,0,1,1.41-1c0,.37,0,.74.05,1.12,0,1.93,3,1.93,3,0,0-1-.08-2-.14-3A7.91,7.91,0,0,0,346,317v0a68.33,68.33,0,0,0-3.44-14.58,13.31,13.31,0,0,0-1.5-4.67h0l2.67.26a.41.41,0,0,0,.22.38A48.44,48.44,0,0,1,354.53,306.68Zm-8.81-8.4c.9.13,1.79.27,2.68.47,2.3.51,4.51,1.4,6.79,2a12.2,12.2,0,0,0,3.67,1.12,8.64,8.64,0,0,0,3.27-.34.89.89,0,0,0,.57.1,24.94,24.94,0,0,0,5.9-1.78,43.3,43.3,0,0,1,4.07-1.66l0,.4a21,21,0,0,0-5.88,2.91c-1.82,1.27-3.39,3.8-5.25,4.75-4.55,2.32-6.74-1.56-9.75-4A40.19,40.19,0,0,0,345.72,298.28Zm29.6,4.5v-.26c.2.21.39.43.61.62l-.39-.24A1.62,1.62,0,0,0,375.32,302.78ZM413,379.53c-.15.54-.28,1-.38,1.48-.37-1.69-.73-3.37-1-5.06a8.78,8.78,0,0,1,1.77,1.4l.12.19A1.3,1.3,0,0,0,413,379.53Zm2.06,9.5a4.75,4.75,0,0,1-.41,1.45q-.35-1.94-.77-3.86A2.24,2.24,0,0,1,415.07,389Zm.39,12.78-.58-.14a1.77,1.77,0,0,0,.1-.32A4.36,4.36,0,0,0,415.46,401.82Zm33.38,35.28c-1.77,5.51-4.51,12.82-10.47,14.24a24.58,24.58,0,0,0,2.71-5.79,36.06,36.06,0,0,0,1.92-14c-.1-1.92-3.1-1.93-3,0A34,34,0,0,1,439,442a31.2,31.2,0,0,1-1.6,4.62,17.73,17.73,0,0,1-1.09,2.28q-1.32,3.6-4.82.58a1.32,1.32,0,0,0,.47-.88,14.86,14.86,0,0,0,2.05-3.67,23.47,23.47,0,0,0,1.58-12c-.23-1.89-3.23-1.92-3,0a22.23,22.23,0,0,1-.28,7.58c-.41,1.84-1.23,5.79-3.36,5.78-1.78,0-.9-1.22-.75-2.59l.44-3.92.89-7.84c.22-1.92-2.78-1.9-3,0-.08.66-.16,1.34-.26,2-4.8,1.31-3.71-6.31-2.79-8.83a26.9,26.9,0,0,1,4.26-7.53,1.69,1.69,0,0,0,.15-.24c5.25-.09,10.59.09,15.55,1.89,3.54,1.28,6.45,3.53,9.8,4.88,4,7.86,1.35,13.89-3.53,19.13.78-1.79,1.43-3.62,2-5.32S449.43,435.26,448.84,437.09ZM579.54,356l.68,0,1,.31h0L587,362.7c.3.33,3.14,2.89,3,3.32-.46,1.42-3.65,1.1-4.66,1.17a140.53,140.53,0,0,1-17.72,0Q573.37,361.35,579.54,356ZM534.35,464.65c.05-3.3.19-6.61.32-9.91l8.58,10.32-.07.14-.79.06a1.45,1.45,0,0,0-1,.08l-3.38.27c-.83.07-2.34.53-3.06.24-.5-.2-.67.06-.7.13h0A7.15,7.15,0,0,0,534.35,464.65Zm6,3.8a1.3,1.3,0,0,0,1.27.81l2.66,4.93q-3.16-2.73-6.41-5.36C538.74,468.67,539.6,468.52,540.31,468.45Zm-4.63-17.16a36.71,36.71,0,0,0,6.07-2.28c9-4.37,15.86-12.08,21.7-20,2.14-2.92,4.26-5.93,6.28-9,3.88,4.28,8.69,7.19,14,9.72a127,127,0,0,0,15.75,6.55c-3.68,10.26-15,17.18-24.26,21.78a78.77,78.77,0,0,1-18.8,6.5,1.25,1.25,0,0,0-1.52.31,83,83,0,0,1-8.77,1.19l.2-.39a1.58,1.58,0,0,0-.23-1.82Zm25.3,25a35.65,35.65,0,0,1-7.75,1.64,48,48,0,0,1,2.31-9.83A87.4,87.4,0,0,1,561,476.3Zm-8.64-8a50.93,50.93,0,0,0-2.22,10.49l-5.23-9.67Q548.64,468.85,552.34,468.28Zm3.09,12.41a1.41,1.41,0,0,0,.19,1l3.58,6.16q-3.64-3.42-7.3-6.76Q553.69,480.94,555.43,480.69Zm28.35-24c7.86-4.74,15.54-11.09,18.56-19.64,1.39.38,2.79.72,4.2,1a44.16,44.16,0,0,0,5.11.66l0,.06a1.23,1.23,0,0,0-.89.51,26.7,26.7,0,0,0-5.35,11.14,1.52,1.52,0,0,0,1.45,1.9h5.75a1.61,1.61,0,0,0-.06.17c-9,38,3.48,76.26,3.7,114.51q-3.52-9.16-7.47-18.17a1.3,1.3,0,0,0-.54-.63,1.68,1.68,0,0,0-.09-.22,159.15,159.15,0,0,0-17.87-27.36c-1.37-5-1-10.68-1.28-15.74q-.54-8.35-1.32-16.68C586.66,477.68,585.35,467.18,583.78,456.72Zm25-7.38a23.15,23.15,0,0,1,4.08-7.92,1.62,1.62,0,0,0,.24-.43,1.3,1.3,0,0,0,.59-.2,3.46,3.46,0,0,0,.82-.74c2.81,2.53,5.43,5.51,5.6,9.3Zm-3.19-14.53c-6.57-1.49-12.8-4.22-18.89-7-5.68-2.63-11.22-5.6-15.28-10.43,8.9-14.23,15.52-30.18,13.65-47.06,3.19,0,7.36.2,9-2.51a1.51,1.51,0,0,0,0-1.51c-2.17-3.65-5.64-7-8.81-10.18a107.27,107.27,0,0,0,32.25-5.58c-12.37,18.17-3.89,45.09,8.39,61.14A78,78,0,0,0,641,426.57,42,42,0,0,1,605.58,434.8ZM448.39,255.29a1.53,1.53,0,0,0,.84-.58c8-10.82,19.55-16.16,32.62-18.19,13.48-2.09,29-.45,37.33,11.72a1.61,1.61,0,0,0,.28.31,83.22,83.22,0,0,0-3.66,27.59,81.13,81.13,0,0,0,9.57,35.1c-24.77-7.07-55.09,6.06-70.66,27.51-.53-.33-1-.68-1.52-1.06-.34-15.15-1.61-30.34-3.12-45.31a213.08,213.08,0,0,0-1.55-25.81q-.58-5.13-1.21-10.26A1.52,1.52,0,0,0,448.39,255.29Zm1.48,99.12q.22,4.77.49,9.55c-.26-.44-.51-.88-.75-1.32q-.21-3-.44-6.06C449.39,355.85,449.62,355.13,449.87,354.41Zm-1.23-5.17c-.22-3.14-.42-6.28-.55-9.4,0-1-.08-2-.12-3q.59.7,1.23,1.34.18,4.54.36,9.08C449.24,347.91,448.93,348.57,448.64,349.23Zm-.48-35.68c.33,6.55.59,13.11.85,19.67a19.84,19.84,0,0,1-1.27-2.2q-.25-6.66-.44-13.32Q447.78,315.63,448.16,313.55ZM447,295c0,.23,0,.47.06.7q0,1-.08,2.08,0-1.33,0-2.66Zm-1.59,29.73c0,1,.05,2,.08,3q-.31-.79-.54-1.63C445.1,325.65,445.25,325.18,445.4,324.71Zm-2,5.71a20.33,20.33,0,0,0,2.32,3.68c.08,2.24.15,4.48.24,6.72.15,3.93.26,7.89.37,11.87a43.25,43.25,0,0,0-1.43-6.68c-.12-.36-.26-.73-.4-1.09s-.17-.93-.24-1.4c-.61-4-1-8.1-1.23-12.17C443.13,331,443.25,330.73,443.37,330.42Zm-22.45-15.09A191.73,191.73,0,0,1,426.55,336c.39,1.81.72,3.61,1,5.42-1.89-5.74-3.76-11.49-5.26-17.38-.78-3.06-1.47-6.13-2.1-9.22ZM408.32,328.6c.18-5.88,1.33-12.18,1.13-18.16a22.93,22.93,0,0,1,7.84,2.47c2.24,13.51,5.8,27,11.64,39,.89,8.84,1.27,17.7,2.27,26.62a.82.82,0,0,0,1.64,0c1.8-14.07-1-29.47-4-43.22q-1.83-8.35-4.4-16.49a44.62,44.62,0,0,1,3.43,4.62c4.38,6.71,9.41,13.5,12.95,20.68.23.46.43.92.63,1.39a87,87,0,0,0,5.42,21.7,167,167,0,0,0,1.79,17.07c.16,1,1.67.71,1.69-.23.09-4.47,0-9-.27-13.44a1,1,0,0,0,.16-.8l-.19-.8c.22.31.44.61.67.92,0,.19,0,.39,0,.58a.7.7,0,0,0,.88.67c2.47,3.29,5.18,6.41,7.73,9.63,5,6.37,10,14,9.85,22.39-.15,7.87-5.43,14-11,19.07a1.59,1.59,0,0,0-.54-.14c-5.85-.47-10.71-5.39-16.49-6.77-5-1.18-10.1-1.17-15.18-1a1.59,1.59,0,0,0-.16-.16c-3.88-3.11-2.52-6.11-3.42-10.05-.46-2-1.29-2.18-2.7-3.37-2.75-2.32-4.45-3.32-3.31-7.44.32-1.18,1.7-2.93,2-4.31.42-2.29-.33-2-1.27-3.78-1.47-2.85-.07-4.73.27-6.54A16.27,16.27,0,0,0,424,368.53c.36-1.89-2.53-2.69-2.89-.8a13.46,13.46,0,0,1-4.69,8c-.14-.14-.27-.28-.44-.42-1.69-1.44-3-1.69-3.61-4.17a11.45,11.45,0,0,1,.47-5.57c.82-3.17,2.05-6,2.34-9.3.17-1.92-2.83-1.91-3,0-.24,2.75-1.41,5.71-2.21,8.66-.58-4.56-1-9.14-1.33-13.72C408.12,343.66,408.09,336.14,408.32,328.6Zm-1.46,44.74c-1.78-6.07-3.26-12.23-4.51-18.44a5.69,5.69,0,0,0,2.18,0,.3.3,0,0,0,.2-.21c.08,1.15.16,2.3.26,3.45l-.55-.06c-.65-.08-.65,1.1,0,1l.64-.07q.67,7.38,1.88,14.7Zm-.21-63.18c-1.61,5.56-1.72,12-2.1,17.5a192.86,192.86,0,0,0,0,24.47c0,.75.11,1.49.16,2.24a.3.3,0,0,0-.18-.15,5.71,5.71,0,0,0-2.19,0c-.05,0-.08,0-.12.08-.12-.59-.24-1.17-.35-1.76a1.27,1.27,0,0,0,.68,0,.43.43,0,0,0,0-.83,1.37,1.37,0,0,0-.86,0c-.41-2.21-.78-4.43-1.11-6.65a6,6,0,0,0,1.46-.05.39.39,0,0,0,0-.75,6.37,6.37,0,0,0-1.58,0c-.17-1.17-.34-2.33-.5-3.5a4.58,4.58,0,0,0,3.7-.86.34.34,0,0,0-.23-.57c-.58,0-1.13.22-1.71.25a17.53,17.53,0,0,1-1.78,0l-.12,0q-.69-5.53-1.12-11.08c-.1-1.3-.16-2.6-.21-3.91a.62.62,0,0,0,.28.16c1.62.4,4,.29,5.08-1.13.28-.35,0-1-.48-.82-1.5.48-2.63,1.07-4.25.67a.62.62,0,0,0-.67.24c-.15-4.53-.15-9.11-.7-13.56C400.75,310,403.72,309.95,406.65,310.16Zm-9.38-126.6a143.41,143.41,0,0,0-9.42-13.77q4.31,4.83,8.19,10C396.47,181.06,396.88,182.3,397.27,183.55Zm-5.84-12.7,2,2.11q.44,1,.86,2.05c-2.15-2.75-4.33-5.47-6.59-8.13C388.93,168.2,390.19,169.51,391.43,170.86Zm7.22,17.24.11.39a158.74,158.74,0,0,0-30.2-32.71C381,163.23,390.33,176.23,398.65,188.1ZM333.24,155l.35-.18.4-.2.14.09-1,.55Zm-37.85,83.67c.07-4.56.31-9.12.65-13.67l.82.2a1.13,1.13,0,0,0,.54.13l5.93,1.42A24,24,0,0,0,318,228.85a1.23,1.23,0,0,0,.91-.58,28.77,28.77,0,0,0,10.66-3l.13.08a1.54,1.54,0,0,0,2.05-.54,1.51,1.51,0,0,0-.54-2.05,7.4,7.4,0,0,1-1.49-1,5.37,5.37,0,0,0-1.38-1.58l-.06-.08a1.66,1.66,0,0,0-1-.69,17.17,17.17,0,0,0-5-3,13.63,13.63,0,0,0-5.78-2.31,9.29,9.29,0,0,0-2.8-.74l-.3,0,.4-.21.56,0c4.81-.26,8.89.77,12.65,3.88.51.43,1.23-.25.75-.75-3.62-3.66-8.49-4.5-13.41-4.17a.49.49,0,0,0-.43-.2,9.28,9.28,0,0,0-1,.11,6.61,6.61,0,0,0-2.84.56c-2.57.35-5.28.94-7,2.67a17.56,17.56,0,0,0-2.31,1.33,14.28,14.28,0,0,0-2.91,2.41h-.11a6.73,6.73,0,0,0-1.29.47c.54-5.69,1.23-11.36,2-17a1.17,1.17,0,0,0,1.14-.17c2,.69,4.76.14,6.73.14H321a51.56,51.56,0,0,1,6.2,1.26,1.39,1.39,0,0,0,1.1-.13,1.26,1.26,0,0,0,.53-.11,1.9,1.9,0,0,0,1.3.29l.18.33a1.52,1.52,0,0,0,2.74-.36,7.93,7.93,0,0,0-1-6,7.3,7.3,0,0,1-2.54-.82,62.31,62.31,0,0,0-12.36-1.68c-4.86-.84-11.8-1.59-14.17,1.06a1.5,1.5,0,0,0-.69.83,27.81,27.81,0,0,0-2.61,1.53,1.53,1.53,0,0,0-.61.13c.15-1,.3-2.06.46-3.09.56-3.66,1.11-8.24,2-12.86.69-1.75,1.33-3.53,1.86-5.35a5.14,5.14,0,0,0,.21-1.53c3.38-6.19,7.7-12.51,13.82-13.24a4.56,4.56,0,0,0,1.29-.37,6,6,0,0,0,1.38.84c.78.32,1.58-.62,1.35-1.35a5.08,5.08,0,0,0-.46-1,1.51,1.51,0,0,0,.55-1.34,1.44,1.44,0,0,0,.8-.37,6.25,6.25,0,0,0,.1.74.9.9,0,0,0,.21.4,7,7,0,0,0,.32,2.48.61.61,0,0,0,1.19-.16q0-.84.1-1.66a6.56,6.56,0,0,0,.5,1.74,1,1,0,0,0,1.89-.25c0-.13,0-.25.06-.38a1.13,1.13,0,0,0,.29.13,1.09,1.09,0,0,0,2-.27c.08-.18.12-.37.19-.56a.77.77,0,0,0,1-.33,4,4,0,0,1,.76-1.09l0,0c-.89,1.71,1.69,3.23,2.59,1.51a10.81,10.81,0,0,1,1-1.53,1.28,1.28,0,0,0,2.05.77c5.3-4,13.72-4.64,20.1-5.2,2.49-.22,5-.33,7.47-.34l.93.37c13.06,11,24.14,23.8,34.16,37.74q-1-.38-2.09-.66a1.32,1.32,0,0,0-.72-.95,20.69,20.69,0,0,0-7.4-2.31,1.18,1.18,0,0,0-1.15.43l-23.07,5.4a1.48,1.48,0,0,0-1,1,19.88,19.88,0,0,0-.65,3.49,1.52,1.52,0,0,0,1.57,2.39l8.39-2.36L384.68,197h12.94a1.36,1.36,0,0,0,1.27-.75c.61.26,1.22.54,1.81.85l.24.1a156.72,156.72,0,0,1,2.6,15.68,1.43,1.43,0,0,0-1.54-.17c-9-6.14-22.11-5.81-30.3,1.31-.48.42.17,1.28.69.89a22.41,22.41,0,0,1,14.84-4.47,22.84,22.84,0,0,1,4.38.64c-.52,0-1-.07-1.55-.08a19.86,19.86,0,0,0-12,1.93,9.11,9.11,0,0,0-5.11,6.57,1.24,1.24,0,0,0-.35.62l-.52,2.49a1.53,1.53,0,0,0,1,1.85,1.65,1.65,0,0,0,.6,0,1.5,1.5,0,0,0,.39.1,1.51,1.51,0,0,0,.89,0h0l11.49.13c2.88,0,6.06.47,8.87-.23a6.07,6.07,0,0,0,3.8-2.61,12.94,12.94,0,0,0,5-2.66A178.58,178.58,0,0,1,400.66,269c-.57,2.73-1.14,5.53-1.63,8.35a23,23,0,0,1-6.86,5.54,1.58,1.58,0,0,0-.32.23,1.33,1.33,0,0,0-.92.25,56.35,56.35,0,0,1-15.49,7.4l-.66,0a1.47,1.47,0,0,0-1.15.61,10,10,0,0,0-4.1,2.16,1.08,1.08,0,0,0-.25.36,4.42,4.42,0,0,0-1.47,1.22,3.58,3.58,0,0,0-1.6.52c-4,.8-7.63,1.48-12.26.15-.56-.16-1.1-.29-1.64-.4a4.41,4.41,0,0,0-1.71-.62.36.36,0,0,0-.17-.12,38.19,38.19,0,0,0-12.77-1.8,1.48,1.48,0,0,0-.59-.28l-16.46-3.89c-1.74-.73-3.49-1.39-5.24-2a47,47,0,0,1-5.78-3.19q-4.17-3.13-8-6.66c-.84-1.58-1.67-3.16-2.52-4.73q-.77-1.57-1.49-3.16A161.37,161.37,0,0,1,295.38,238.66ZM302.93,222a36,36,0,0,1,3.75-1.8,7.14,7.14,0,0,0,3.22,5.66,20.51,20.51,0,0,1-3.69-1.1,1.34,1.34,0,0,0-.87-.6l-.27-.07a1.31,1.31,0,0,0-.67-.86,5.41,5.41,0,0,1-.53-.29l-.2-.14-.16-.13a5.32,5.32,0,0,1-.42-.43l0,0,0,0Zm18.6-2.35c0-.11-.1-.22-.16-.33a15.21,15.21,0,0,1,5.55,3.9,25.12,25.12,0,0,1-4.86,1.59,3.5,3.5,0,0,0,.55-1.81A5.09,5.09,0,0,0,321.53,219.63Zm74.32.85a1.25,1.25,0,0,0-.06.31,12.3,12.3,0,0,1-4,.89,7,7,0,0,0,1-6l3.39,1.79a1.09,1.09,0,0,0-.05.45A6,6,0,0,1,395.85,220.48Zm-6.55-.29a3.56,3.56,0,0,1-.28.33,1.69,1.69,0,0,0,0-.3Zm-9,1.52-4.54-.05-.11-.5,0-.07a1.69,1.69,0,0,0,.07-.29,6.33,6.33,0,0,1,2.73-4.65,1.66,1.66,0,0,0,.31-.15,14.77,14.77,0,0,1,1.7-.87,12.62,12.62,0,0,1,1.55-.45,1.33,1.33,0,0,0,.23.17l-.42,0a1.92,1.92,0,0,0-1.64,1.47,3.63,3.63,0,0,0-.2.87,4.08,4.08,0,0,0-.38,1.21A4.82,4.82,0,0,0,380.34,221.71ZM310,332.85l-.35.57c0-.19,0-.38,0-.57ZM303,346c4.62-4.42,7.66-9.45,10.95-14.54a6.32,6.32,0,0,0,2.43-3.65c.53-.76,1.07-1.53,1.63-2.28a19.71,19.71,0,0,1,2.77-3c.41,9.36,2.6,18.91,3.43,28.11.68,7.52.77,15.1,1.14,22.65q-1.61-8.42-3.9-16.72a1.5,1.5,0,0,0-2.89.8A209.37,209.37,0,0,1,324,383a23.07,23.07,0,0,1-2-1.48l-.44-.56a1.28,1.28,0,0,0-.75-.5,23.44,23.44,0,0,1-4.36-5.76c-.93-1.69-3.52-.18-2.59,1.51a25.92,25.92,0,0,0,6.06,7.48l5.87,7.49a1.61,1.61,0,0,0,.22.23,11,11,0,0,1-1.9,8.3A12.56,12.56,0,0,1,318.8,404h-2l-18.39-.64,0-.12.17-.15a1.52,1.52,0,0,0,.34-.5,6.63,6.63,0,0,0,5.17-1,4.75,4.75,0,0,0,1.77-2.44,1.34,1.34,0,0,0,.48-1.9c3.07-1.32,3.23-4.41,1.86-6.79a6.06,6.06,0,0,0,3.76-2.14c3-3.73,0-7.17-3.51-9.83,5.16-6.22-.1-10.52-6.52-11a89.84,89.84,0,0,0-6.74-11.92A55.68,55.68,0,0,1,303,346Zm4.1,27.58a1.52,1.52,0,0,0-1,.7l0,.09-.05,0,0,0-.14.08-.14,0h-.26a1.23,1.23,0,0,0-.63.14q-.73-2.08-1.56-4.09C305.21,371,306.86,372.06,307.14,373.57ZM292.48,234.79v0ZM285.11,374c2.73-5.4,5.26-10.71,8.28-15.69a86.87,86.87,0,0,1,5.23,9.25,20,20,0,0,0-15.33,9.87l0,0C284,376.16,284.6,375,285.11,374Zm-1.23,10.72a16,16,0,0,1,9-12.48,18.89,18.89,0,0,1,7.1-1.83c.62,1.43,1.19,2.89,1.73,4.37a1.61,1.61,0,0,0-.12,2.68c1.83,1.27,12.17,7,7.14,9.7a2.61,2.61,0,0,1-.44.19l-.07-.06-3.86-2.7a1.23,1.23,0,0,0-.76-.21l-.31-.29a30.36,30.36,0,0,0-4.78-3.34,1.5,1.5,0,0,0-1.51,2.59,26.15,26.15,0,0,1,5.51,4.11l.07.07a4.31,4.31,0,0,0,1.58,2.21,1.49,1.49,0,0,0,.66,1.23,2.63,2.63,0,0,1,1.3,2.06,3,3,0,0,1-1.37,1.4,4.05,4.05,0,0,0-1.85-.91c-.64-.53-1.26-1.09-1.89-1.64l-.21-.18c-.22-.26-.45-.52-.66-.78a1.27,1.27,0,0,0-.81-.5l-3.52-3c-1.45-1.26-3.58.85-2.12,2.12l5.06,4.4a43.1,43.1,0,0,0,4.21,4.31,3.54,3.54,0,0,1-2.3,1.55,7,7,0,0,1-3.28-.74,32.92,32.92,0,0,1-5.63-3.41c-1.58-1.11-3.08,1.49-1.51,2.59a37.08,37.08,0,0,0,5.49,3.38,3.76,3.76,0,0,1-2.21.47,1.21,1.21,0,0,0-.62.12,24,24,0,0,0-4.8.92,7.17,7.17,0,0,1-4.42-3.32c-2.56-4.18-1.51-9.36-.51-13.87A1.56,1.56,0,0,0,283.88,384.71Zm-1.78-4.79a20.16,20.16,0,0,0-1,3.68,1.29,1.29,0,0,0-.74,1c-1.32,6-2.56,13,1.68,18.12a10,10,0,0,0,2.09,1.91c-.58.27-1.16.55-1.73.86l-.45.24a1.32,1.32,0,0,0-.72-1c-9.7-5.3-4.15-16.36.63-24.81Zm-.77-5.11-.12.24-.3-.39A2.28,2.28,0,0,0,281.33,374.81ZM279.74,378c-.79,1.56-1.57,3.12-2.35,4.68,0,0,0-.09-.08-.14a45.74,45.74,0,0,0-5.4-6.36c0-4.58-.21-9.16-.49-13.75A41.78,41.78,0,0,0,279.74,378ZM270,392.54a.68.68,0,0,0,1.37,0c.25-3.39.39-6.8.47-10.22a1.23,1.23,0,0,0,.93-.83q1,1.23,1.93,2.53a1.52,1.52,0,0,0,1.67.61c-.32.65-.65,1.29-1,1.94-2.57,5.2-3.46,11.07-1,15.67a1.62,1.62,0,0,0,0,.22,13.67,13.67,0,0,0,3.13,5.62c-.5.32-1,.66-1.45,1a1.47,1.47,0,0,0-.78.4A29.75,29.75,0,0,0,268.26,420a38.05,38.05,0,0,0-7.62,15.43,27.59,27.59,0,0,0,1.78,16.1A184.21,184.21,0,0,0,198,492.09a1.51,1.51,0,0,0-.37-.26,29,29,0,0,1-14.77-16.39c0-.09,0-.18,0-.27.1-1.83.19-3.66.32-5.49.82-12.45,3.42-25.34,2.5-37.83h0a27.85,27.85,0,0,0,10.52-2.17,1.53,1.53,0,0,0,.9-2.2,45.05,45.05,0,0,0-5-7.93c14.35.09,26.85-9.43,37.21-19.12,10-9.37,19.08-18.59,23.83-30.65a1.16,1.16,0,0,0,.65.22c2,7.87,5.3,15.28,11.34,20.84,1,.9,2.78-.3,1.93-1.49a61,61,0,0,1-8.78-18.8,30,30,0,0,1,7.2,4.09q1.37,1,2.64,2.07.53,1.17,1.09,2.31Q269.63,385.77,270,392.54ZM150.43,537.92a45.82,45.82,0,0,0,5.76-3.53c10.37-7.51,17.21-19,21.46-30.9.46-1.29.88-2.6,1.28-3.91q-.08,5.31-.08,10.62a1.41,1.41,0,0,0,1.41,1.44,192.17,192.17,0,0,0-23.39,38q-3.56,7.67-6.4,15.62v-27A1.64,1.64,0,0,0,150.43,537.92Zm21.18-113.12a38.32,38.32,0,0,0,5.37-7.14,1.58,1.58,0,0,0,.16-.4q3,.1,6,0a1.44,1.44,0,0,0,.15.62,18.46,18.46,0,0,0-3.37,5.3c-.75,1.83-2.08,5.14-.85,7.05.68,1.07,2.09,1.45,3.52,1.6.62,8.18-.28,16.54-1.21,24.84a94.63,94.63,0,0,0-10.51-29.76A1.67,1.67,0,0,0,171.61,424.81Zm-2.77-1.48q-2.07-3.35-4.43-6.52a1.67,1.67,0,0,0-.25-.27c-.26-.36-.51-.72-.78-1.07a74,74,0,0,0,10.43,1.6A35.35,35.35,0,0,1,168.84,423.33ZM186.38,419q.8.15,1.59.26a42.52,42.52,0,0,1,5.73,8.18,25,25,0,0,1-4.4,1.13c-1.59.25-4.82.89-6.35.16C179.66,427.18,184.46,421,186.38,419Zm-3.89,62.84a31.9,31.9,0,0,0,13.27,12.42,193.52,193.52,0,0,0-13.9,15.39Q181.86,495.73,182.48,481.84Zm82.21-173.08-.23-.77c-.12-.77-.23-1.53-.35-2.3Q264.41,307.22,264.69,308.75Zm.93,25.19c1.33,11,2.19,22,2.9,33.1-.44-1.41-.85-2.82-1.21-4.25-1.53-6.1-3.09-12.19-4.33-18.36-1.58-7.9-2.77-15.87-3.67-23.88l4.31,4.23C264.23,327.86,264.88,330.92,265.62,333.95Zm-4.76-26.32c.55,4.09,1.17,8.2,1.87,12.3l-3.89-3.75q-.48-4.84-.83-9.69c-.29-4-.5-7.94-.67-11.92Q258.88,301.17,260.87,307.63Zm-1.66,37.85c1.69,8.39,3.67,17.44,6.75,25.81a25.12,25.12,0,0,0-8.53-4.13q-.88-3.69-1.49-7.48c.15-.88.29-1.77.39-2.69,1.11-9.94.26-20.12-.94-30a108,108,0,0,0-2.23-12.58l1.88,1.9A271.06,271.06,0,0,0,259.21,345.48Zm-6.32-64.55q.21-5,.52-9.92h.09c-.17,12.75.1,25.5,1,38.2.07,1,.14,1.91.22,2.87l-2.17-2.19Q252.29,295.41,252.89,280.93Zm-3.07-9.64q-1,15-1.13,30.13a82.4,82.4,0,0,0-14.11-21A23.54,23.54,0,0,1,249.82,271.29ZM238.16,289.5a69.07,69.07,0,0,1,7.62,13.25A120,120,0,0,1,230.7,282.4c-.79-1.37-1.55-2.76-2.3-4.16A95.94,95.94,0,0,1,238.16,289.5Zm-124-6c8-14.92,18.81-27.3,36-31,17.7-3.8,35.92-3,51.86,6.05a130.15,130.15,0,0,1,20.37,14.2c.29.62.58,1.25.88,1.87,6.4,13.38,15.28,24.45,25.06,34.82.14.42.27.84.4,1.26.18,13.82,1,27.63,2.28,41.33.34,3.53.75,7.18,1.34,10.81-.23,1-.49,2.1-.79,3.13-2.77,9.65-8.91,17.3-15.91,24.28-12.22,12.18-27.65,28.14-46.22,26.2-.76-.81-1.55-1.61-2.38-2.37a1.49,1.49,0,0,0-2.11.06c-24.07,1.8-47.5-9.25-63.16-27.2a1.19,1.19,0,0,0-.76-1.29l-.53-.22A80.36,80.36,0,0,1,113,374.79C96.7,347,99.18,311.22,114.17,283.45ZM64.38,340.89A62,62,0,0,1,78.31,314.4C84.08,308,94.68,298.91,104,299.48c-6.74,20.63-7.21,43.36.26,63.68a81.92,81.92,0,0,0,11.5,21l-.66-.07a1.57,1.57,0,0,0-.74-.28c-14.43-1.69-27.5,2.83-38.29,10.89C60.34,383,60,358.16,64.38,340.89Zm.56,172.75c-16.46-20-21-48.14-14.83-73,4-16.12,13.2-32,26.12-42.39a1.45,1.45,0,0,0,1.52-1.18c9.59-7.22,21.13-11.41,34.07-10.54A1.29,1.29,0,0,0,113,387a14,14,0,0,1,5.84.92A84.09,84.09,0,0,0,157.95,414a26.83,26.83,0,0,1,5.81,7.57,1.31,1.31,0,0,0,.87.72,91.78,91.78,0,0,1,15.17,47.19,1.58,1.58,0,0,0-1.18,1.81,32.27,32.27,0,0,0,1.17,4.55c-.09,1.64-.19,3.27-.27,4.91a88.67,88.67,0,0,1-1.29,9.21c-2.44,12.52-7.51,25.13-16,34.8-9.08,10.37-22,15.48-35.58,16.34C103.25,542.61,79.76,531.67,64.94,513.64Zm43.68,39.73a29.18,29.18,0,0,1,5.55-8.56,52.88,52.88,0,0,1,7.39,8.52Zm32.21,347.24c-8.88-24.53-12.45-50.65-16.8-76.26-4.81-28.35-10.54-56.73-13.82-85.31-3.25-28.33-1.08-56.76.3-85.14l4.73-97.12a1.54,1.54,0,0,0,0-.44l9.17,0a1.51,1.51,0,0,0,1.3-2.26,55.85,55.85,0,0,0-7.88-10l.2,0a64.25,64.25,0,0,0,29.46-4.77v33.52a1.45,1.45,0,0,0,.21.77q-2.42,7.91-4.15,16a1.48,1.48,0,0,0,.12,1c-4.75,18.63-9.11,37.41-10.48,56.63-.74,10.42-.85,20.89-1.14,31.33-.28,10.26-1.16,20.71-.12,30.94a1.41,1.41,0,0,0-.1.68,347.38,347.38,0,0,0,28.87,112.7,1.57,1.57,0,0,0-.14.57c-2.45,42-4.57,85.55,10,125.61C158.14,934.6,147.54,919.15,140.83,900.61Zm41.1,67.79a4.8,4.8,0,0,1-1.48-3.66l1.38,1.45,0,.05a1.4,1.4,0,0,0,.25.56l.13.26A1.24,1.24,0,0,0,181.93,968.41Zm-1.28-10a1.62,1.62,0,0,0-1.91.05l-2.5-2.75s0-.08,0-.13c-17-40-15.44-84.17-13-126.71a237,237,0,0,0,22.81,34,1.29,1.29,0,0,0-.14.82A227.3,227.3,0,0,1,187,913.09C185.67,928.22,181,943.22,180.65,958.41Zm3-1.25q0-1.36.14-2.71a1.44,1.44,0,0,0,.38.33Zm5.24,8.71a3.26,3.26,0,0,1-1.09,2.22l-.18.14a1.21,1.21,0,0,0-1.23-.34,1.4,1.4,0,0,0-.31-1.53l-.43-.45q.28-1.05.6-2.08l.23-.1C188,962.84,189,964.51,188.94,965.87Zm-2.75-20.14Q185,948.85,184,952c1.2-13,4.83-25.94,6-38.93a226.5,226.5,0,0,0-.76-46.3q4.18,5,8.62,9.71a1.58,1.58,0,0,0-.6,1.48c2,15-2.95,30.38-6.11,44.93Zm14.18-66.61q5.27,5.45,10.87,10.58a1.53,1.53,0,0,0-.71,1.15c-1.31,11.69-8.26,21.35-13.76,31.4q-2.22,4.06-4.2,8.24l2.32-10.66C197.79,906.48,201.73,892.87,200.37,879.12Zm23.27,22.27C214.32,920,197.32,934,187.82,952.33l1.22-5.62a177.08,177.08,0,0,1,12.89-27.49c5.06-8.77,10.14-17.41,11.49-27.57q5.29,4.7,10.85,9.1A1.36,1.36,0,0,0,223.64,901.4Zm203.71,87.82a28.78,28.78,0,0,1,4.9,6c1,1.84,1.54,2.92.68,4.94-1,2.34-1.18,1.82-3.52,1.85q-8.16.1-16.32-.23-7.68-.32-15.33-1c-2.55-.24-5.1-.5-7.64-.81-1.05-.13-3.72,0-4.5-.6-1.32-1-.58-3.74-.12-4.92.89-2.27,3.09-4.57,4.46-6.59l5-7.42,9.47-14a1.6,1.6,0,0,0,.12-.22C412.15,973.88,419.8,981.5,427.34,989.21Zm-23.46-24.77h.25l0,.11Zm193-146.51a319.74,319.74,0,0,1-26.89,48,1.53,1.53,0,0,0-.19.4A348.43,348.43,0,0,1,500.7,936a1.45,1.45,0,0,0-.84.2A201.08,201.08,0,0,1,414.16,962a1.55,1.55,0,0,0-.57-.13,347.36,347.36,0,0,1-148.73-38.52,1.48,1.48,0,0,0-.5-.4,235.84,235.84,0,0,1-100-98.19,1.53,1.53,0,0,0-.1-1A343.1,343.1,0,0,1,134.8,710.36a1.38,1.38,0,0,0,.1-.7c-1.06-10.26-.18-20.75.11-31,.27-9.8.4-19.61,1-29.39,1.29-20.34,6-40.15,11-59.83a1.41,1.41,0,0,0-.14-1.11c13.6-60.45,58.2-112.83,116.71-134a83.08,83.08,0,0,0,4.58,8.22A68.08,68.08,0,0,0,282.78,482a54.1,54.1,0,0,0-26.9,5.33,11.73,11.73,0,0,0-7,4.13c-.66.78.17,2,1.14,1.47a49.79,49.79,0,0,1,5.71-2.79,1.48,1.48,0,0,0,1.27,0,50.8,50.8,0,0,1,33.59-4,1.49,1.49,0,0,0,.93-.08c10.42,4.54,23.23,4.82,34.31,6.32,1.58,3.64,4.48,6.69,9,9,4,2.1,9.67,3.78,14.46,3a8.15,8.15,0,0,0,3.6,0,41.6,41.6,0,0,0-3.44,11,1.52,1.52,0,0,0,.43,1.36,5.49,5.49,0,0,0,1.09,4.72c.48.56,1.2-.07,1.11-.65a10.63,10.63,0,0,1-.06-3.95,1.34,1.34,0,0,0,.33-.7c0-.16.06-.31.09-.47s.07-.16.11-.24a1,1,0,0,0,.09-.82A38.6,38.6,0,0,1,364.1,494c1.4-1.33-.72-3.45-2.12-2.12q-1.35,1.28-2.56,2.65a26,26,0,0,0,1.2-3.63,1.44,1.44,0,0,0,1.76-1A78.5,78.5,0,0,0,365,477.69c1-.47,2-1.08,2.57-1.25a21.62,21.62,0,0,1,5.68-1,22.14,22.14,0,0,1,10.23,2.11c-.4,7.51,4,14.21,3.72,21.69a30.52,30.52,0,0,1-.38,3.08c-.77-.76-1.56-1.51-2.38-2.22a1.54,1.54,0,0,0-.64-.34,9.5,9.5,0,0,0-1.92-3c-.46-.37-1.39-.34-1.5.4-.23,1.55.6,2.93,1.47,4.17a1.3,1.3,0,0,0,.48.88c.26.22.5.46.76.69a6.27,6.27,0,0,0,.77.71,46,46,0,0,1,3.33,3.5,5.1,5.1,0,0,0,.46.78,5.36,5.36,0,0,0,1,1,46.06,46.06,0,0,1,5.85,9.93,1.56,1.56,0,0,0,.1.18c.27.72.58,1.43.85,2.13a6.5,6.5,0,0,0,1.94,3,.86.86,0,0,0,1.26-.51,6.48,6.48,0,0,0-.72-3.52c-.25-.58-.49-1.19-.75-1.79a1.56,1.56,0,0,0-.09-1,47.92,47.92,0,0,0-3.46-6.55l.44.06c6.69.81,15.52-.22,21-4.32,5.09-3.78,7.27-10,8.34-16.06.84,3,2.38,5.14,4.95,4.43s2.81-4.15,2.89-6.55a1.77,1.77,0,0,0,.44-1.68,13.48,13.48,0,0,0-.48-1.39,23.2,23.2,0,0,0-1-5.33,3.33,3.33,0,0,0,2.1-2.43,2.74,2.74,0,0,0-.53-2.1l2.4-1.29c4.86-1.9,9.5-4.33,14.37-6.29a47,47,0,0,1,24.64-3,1.57,1.57,0,0,0,.82-.1c.4.06.8.14,1.2.24a31.43,31.43,0,0,1,4.71,1.7c.57.24,1.22-.41.71-.92a12.37,12.37,0,0,0-5.66-3.11,1.18,1.18,0,0,0-1-.7,52.59,52.59,0,0,0-14.47-.18,60,60,0,0,0,6-5.88,44,44,0,0,0,7.72-7.58,34.62,34.62,0,0,0,3.75-6,1.58,1.58,0,0,0,1.29,1c20.09,2.64,37.73,12.34,53.55,24.5a2.4,2.4,0,0,0,.69.63,3,3,0,0,0,.3.13c6.27,4.88,12.25,10.13,18,15.47,12.78,11.89,25.7,24.29,36.75,38,.07.23.13.46.21.69a1.49,1.49,0,0,0,1.11,1,153.75,153.75,0,0,1,16.61,25.65,1.38,1.38,0,0,0,.54.59,1.69,1.69,0,0,0,.09.26,402.87,402.87,0,0,1,27,87.09,1.61,1.61,0,0,0,0,.54,229.07,229.07,0,0,1-2.33,82.17,440.32,440.32,0,0,1-17.1,58,1.15,1.15,0,0,0-.42.29,7.34,7.34,0,0,0-1.31,4.29q-6.73,17.52-14.92,34.4A1.53,1.53,0,0,0,596.9,817.93Zm1.08,4.79q1.4-3,2.74-6a66.34,66.34,0,0,0,6.74,12.12Zm4.8-8.8a1.54,1.54,0,0,0-.53-.7q1.48-3.15,2.91-6.32c1.51,7.63,3.23,15.23,6.27,22.27A61.82,61.82,0,0,1,602.79,813.91Zm4.93-9.53a1.23,1.23,0,0,0-1-1q2.72-6.18,5.25-12.45-.15,8,.24,16c.31,6.1.21,13.62,1.61,20.35C610.82,820,609.22,812.12,607.72,804.38Zm6.37,36.13c-.74-.59-1.18-1.42-.07-2a2.53,2.53,0,0,1,1.08-.3l0,.11a1.64,1.64,0,0,0,0,.41c.08.44.15.89.23,1.33A1.7,1.7,0,0,0,614.09,840.52Zm13.73,103.67a401,401,0,0,0-5.53-75.59q-.39-4.28-.89-8.55C627.82,887.6,629.1,915.86,627.82,944.19Zm-7.31-56.42a327.19,327.19,0,0,1-.94,38.58c-.4,4.74-.92,9.46-1.5,14.18Q620.1,914.2,620.51,887.77Zm.61-48a1.6,1.6,0,0,0-.3-.57c-.33-.41-.64-.82-1-1.24,0-.19,0-.38,0-.57a1.29,1.29,0,0,0,.55-1.55l.23-.22A3.49,3.49,0,0,1,621.12,839.73Zm63.67-215.12q-4.25,40.38-11.72,80.33c-4.13,22.11-8.78,44.25-16.23,65.52-8,22.82-19.55,44.45-36.84,61.53a1.45,1.45,0,0,0-1.44.48c-3.21-7.26-2.89-17.05-3.3-24.56q-.37-6.84-.34-13.69c0-1.64,1-8.54.31-11.61.2-.52.39-1,.59-1.57a1.55,1.55,0,0,0,.45-.93l0-.4A441.59,441.59,0,0,0,633.24,723a1.63,1.63,0,0,0,.1-.32c.12-.57.23-1.14.35-1.7s.21-.91.31-1.37a1.67,1.67,0,0,0,0-.28,233.19,233.19,0,0,0,2.29-80,1.54,1.54,0,0,0,.07-.82,404.9,404.9,0,0,0-17.77-65,1.4,1.4,0,0,0,.55-1.12c1-39.71-13.12-79.57-3.76-119a1.46,1.46,0,0,0-.08-1h6.21a1.54,1.54,0,0,0,1.5-1.5c.63-4.9-2.22-8.86-5.59-12.11a45.71,45.71,0,0,0,26.06-10.35c13.63,9.5,30,15.13,46.39,18a51.94,51.94,0,0,0-4.1,7.7c-.86,2-2.6,5.06-1.09,7.2,1,1.36,2.74,1.62,4.35,1.72a1.49,1.49,0,0,0-.08.57A1027.66,1027.66,0,0,1,684.79,624.61Zm15.83-164.88c-1.86.19-3.72.33-5.6.38-1.49,0-6.3.77-7.38-.31-1.39-1.4,1.67-6.31,2.36-7.65a52.7,52.7,0,0,1,3.36-5.58A32.72,32.72,0,0,1,700.62,459.73Zm40.63-40.46c-5.59,7.46-12.27,14.56-20.83,18.55-8.19,3.82-17.37,4.66-26.31,5.26a1.37,1.37,0,0,0-1.47.1l-1,.07a1.51,1.51,0,0,0-.77.26c-22.29-3.87-44.45-12.68-59.65-30-14-16-25.26-46.33-8.79-64.48a1.59,1.59,0,0,0,.26-.4,104.6,104.6,0,0,0,41.75-29.68,79.36,79.36,0,0,0,14.29-23.82,58.06,58.06,0,0,0,2.81-11.58c30.57-1.73,60,15.54,72.69,43.53C768.08,357.52,760.88,393.09,741.26,419.26Z"/><path d="M327.8,324.3c-1,.66-1.94,1.4-2.89,2.13-.24.18,0,.59.24.4,1-.74,2-1.46,2.87-2.26C328.16,324.44,328,324.19,327.8,324.3Z"/><path d="M327.45,340.63a6.49,6.49,0,0,0,2.22-.21.43.43,0,0,0,0-.74,6.49,6.49,0,0,0-2.22-.21A.59.59,0,0,0,327.45,340.63Z"/><path d="M398.46,311.81a9.81,9.81,0,0,0,6.11-1.12.31.31,0,0,0-.24-.57c-2,.32-4,.83-5.93,1.27C398.14,311.45,398.24,311.78,398.46,311.81Z"/><path d="M403.45,312.75c-1.33-.15-2.66-.21-4-.27a.57.57,0,0,0,0,1.13c1.34-.06,2.67-.12,4-.27A.29.29,0,0,0,403.45,312.75Z"/><path d="M402.88,315.35a3.6,3.6,0,0,1-2.79.72c-.57-.11-.8.77-.24.87a3.58,3.58,0,0,0,3.41-1.1C403.47,315.59,403.19,315.13,402.88,315.35Z"/><path d="M401.46,319.12a9.91,9.91,0,0,0-2.17.33c-.81.17-.46,1.48.34,1.24a9.82,9.82,0,0,0,2.06-.73A.45.45,0,0,0,401.46,319.12Z"/><path d="M402.75,327.64c-.89.43-1.56.93-2.61.7-.86-.18-1.22,1.13-.36,1.32,1.26.27,3.08,0,3.72-1.28A.55.55,0,0,0,402.75,327.64Z"/><path d="M401.11,332.57a4.9,4.9,0,0,0,1.65-.65c.27-.22,0-.62-.26-.63a4.71,4.71,0,0,0-1.61.46C400.36,331.92,400.58,332.74,401.11,332.57Z"/><path d="M403,334.28a8.24,8.24,0,0,0-3.17.76.55.55,0,0,0,.29,1.05,8.4,8.4,0,0,0,3.12-1.21C403.49,334.67,403.25,334.3,403,334.28Z"/><path d="M402.28,346.48a.64.64,0,1,0,0,1.11l.37-.22a.39.39,0,0,0,0-.67Z"/><path d="M356.33,332.51a.37.37,0,0,0,.2-.72,27.29,27.29,0,0,1-3.86-1.38c-1-.46-2-1.07-3-1.46-.41-.15-.79.47-.44.75C351.15,331.24,354,332,356.33,332.51Z"/><path d="M365,330.17a34.23,34.23,0,0,0,3.11-2.43c.17-.16-.06-.48-.26-.34a34.23,34.23,0,0,0-3,2.53C364.7,330,364.88,330.27,365,330.17Z"/><path d="M358,247.61a8.73,8.73,0,0,0,1.56-.41l.43-.12a2,2,0,0,0,.86.34,1.06,1.06,0,0,0,1.32-1,1,1,0,0,0-.92-1,1,1,0,0,0-.26-.24,1,1,0,0,0-1-.29c-.77.17-2.55.42-2.52,1.49A.68.68,0,0,0,358,247.61Z"/><path d="M349.5,248.19a2.59,2.59,0,0,0,1.86-.46,4.17,4.17,0,0,0,.82.37.53.53,0,0,0,.6-.77,2.3,2.3,0,0,0-.9-.79.56.56,0,0,0-.21-.24,2.05,2.05,0,0,0-1-.36c-.34,0-.68,0-1,0-.71-.08-1.28-.62-2-.36a1,1,0,0,0-.7,1.23C347.14,247.89,348.56,248.13,349.5,248.19Z"/><path d="M348.71,237.78c2-1.86,4.74-1.94,7.22-1,.41.15.63-.46.29-.68a6.05,6.05,0,0,0-7.68,1.53A.12.12,0,0,0,348.71,237.78Z"/><path d="M349,249.55c.59-.24.6-1.3-.17-1.23a3.88,3.88,0,0,1-4.16-3.18c-.05-.39-.61-.54-.73-.1A3.89,3.89,0,0,0,349,249.55Z"/><path d="M360.74,248.81a.65.65,0,0,0,.29.71c.67.39,1.37-.16,1.9-.65l.93-.33c.14,0,.08-.28-.06-.23l-.48.17a7.84,7.84,0,0,0,1.37-1.81c.24-.43-.37-1-.71-.54a6.78,6.78,0,0,1-1.62,1.44C361.83,247.91,360.87,248.1,360.74,248.81Z"/><path d="M300.78,230.17a18,18,0,0,0,9.18,3c.34,0,.44-.55.08-.61a27.41,27.41,0,0,1-9-2.86A.27.27,0,0,0,300.78,230.17Z"/><path d="M387.28,229.36a42.49,42.49,0,0,0,9.75-1.5c.24-.08.22-.48-.06-.46-3.27.25-6.5,1.11-9.74,1.58C387,229,387.06,229.38,387.28,229.36Z"/><path d="M352.59,466.76a62.7,62.7,0,0,0-2.07,15.72c-.51-3.2-1-6.41-1.45-9.61a.74.74,0,0,0-1.48,0c-.55,6.39-.19,13.62,2.14,19.67.4,1,2.23,1,2.11-.29,0-.47-.1-.95-.15-1.42a.69.69,0,0,0,.62-.63c.33-7.77.63-15.55,1.32-23.3C353.68,466.3,352.74,466.19,352.59,466.76Z"/><path d="M399.72,485.5c-.44-7.43-2.54-14.9-4.65-22a.49.49,0,0,0-.94.26c1.63,7.25,2.67,14.7,4.6,21.87A.51.51,0,0,0,399.72,485.5Z"/><path d="M327.69,260.57l.29.12h0a10.72,10.72,0,0,0,5.22,1,13.91,13.91,0,0,0,1.6-.19.72.72,0,0,0,.3.47c1.27,3.68,2.18,10,5.38,12.32,3.47,2.56,11.7,2.38,15.76,2.3A23.29,23.29,0,0,0,377.64,262a4.14,4.14,0,0,0,3.32-1.16,2.11,2.11,0,0,0,.17-.28,2.55,2.55,0,0,0,2.1-.57c.67-.56.2-1.5-.47-1.76s-1.67-.09-2.47-.37a2.44,2.44,0,0,0-.88-.31c-1.18-.15-1.24,1.43-.53,2l.39.28a1.08,1.08,0,0,1-.52.28,6,6,0,0,1-.74.18c-.41.09-.82.15-1.22.28a3.67,3.67,0,0,0-.47.18.86.86,0,0,0-.4-.34c-6.29-2.58-14.77-3.17-21.53-3.29-5.59-.1-11.53.39-16.76,2.54a.66.66,0,0,0-.56-.48c-1.26-.15-2.57.49-3.88.49a8.64,8.64,0,0,1-1.35-.12,4.77,4.77,0,0,0,.46-.56,1.31,1.31,0,0,0-.78-1.92c-1.36-.27-2.74-.13-3.51,1.14a1.11,1.11,0,0,0-.07.17A1.24,1.24,0,0,0,327.69,260.57Zm42.57,8.59a19.71,19.71,0,0,1-13.19,5.37c-3.48.18-9.43.31-12.65-1.06-3.74-1.6-5-5.3-6.5-8.81,6.15.52,12.42.13,18.57,0,5.82-.14,12.17.44,17.87-.82A31.24,31.24,0,0,1,370.26,269.16Zm-14.15-9.67c6.43.38,12.87,2.41,19.26,2.43h0l.3,0q-.41.55-.79,1.1a.52.52,0,0,0-.43-.45c-6.09-1-12.79,0-18.95.16-6,.18-12,.17-18,1-.3-.68-.61-1.34-1-2A60.87,60.87,0,0,1,356.11,259.5Z"/></svg>