<svg id="Layer_1" data-name="Layer 1" xmlns="http://www.w3.org/2000/svg" viewBox="0 0 1920 1080"><defs><style>.cls-1{fill:#fff;}</style></defs><title>Artboard 1</title><ellipse class="cls-1" cx="635.04" cy="564.67" rx="355.22" ry="302.24"/><ellipse class="cls-1" cx="974.78" cy="417.45" rx="355.22" ry="302.24"/><ellipse class="cls-1" cx="385.73" cy="719.69" rx="355.22" ry="302.24"/><ellipse class="cls-1" cx="1512.88" cy="690.07" rx="403.21" ry="343.07"/><rect class="cls-1" x="279.82" y="515.9" width="1264.18" height="494.03"/><ellipse class="cls-1" cx="1421.78" cy="460.67" rx="355.22" ry="302.24"/><path class="cls-1" d="M195.06,404c-2.82-6.28-6.08-12.66-6.11-19.54,0-5.38,1.95-10.71,1.26-16.05s-6-10.77-10.92-8.57c-12.92-25.21-40.59-39.13-67.58-47.71,0,0-29.05-11.58-53.39-4.82-2.2.61-8.21,2.28-9.95,6.88-1.3,3.43.39,6.89,1.07,8.53,7.39,17.92-14,41-9.5,59.94a19.12,19.12,0,0,1,0,10.81c-1,3-3.19,5.4-4.93,8a28.8,28.8,0,0,0,.52,31.84c2.32,3.26,5.41,6.15,6.49,10,2.58,9.22-7,20.71-.44,27.66,3.51,3.7,10,3.5,13.06,7.59,1.69,2.26,1.86,5.26,2.43,8C59.79,499.61,74,509,87,506.44c12-2.37,21-14.55,20.41-26.65l.12,0c1.48.24,2.77-1,3.69-2.16A26,26,0,0,0,92,435.82c6-4.23,12-13.46,5.93-17.46-2.44-1.59-5.69-1.09-8.41-2.14-4.6-1.77-6.34-7.18-8.32-11.69s-6.24-9.31-10.94-7.84c6.1-2.75,8.62-9.86,12.23-15.5S94,370.8,99.1,375.09c-2.75,5.14.9,12.49,6.66,13.39s11.49-5,10.44-10.71c25.29,18.63,22.87,61.55,49.38,78.39,4.82,3.07,11.28,4.93,16.13,1.89,7.55-4.74,5.08-16.18,1.7-24.43,6.34,2.66,13.73-3,15.34-9.68S197.88,410.31,195.06,404ZM85.75,347.26c-1.43,4.93-7,9-11.71,6.86-4.44-2-5.26-8.49-2.76-12.68s7.21-6.51,11.8-8.16l1.15-1.14C85.7,337.07,87.18,342.32,85.75,347.26Z"/><path class="cls-1" d="M300,322.93c-11.27-23.18-38.75-37.26-64.15-32.86L240,273.4c-12.76,1.12-24.07,11.71-26,24.37l-48.64-40.44c-2-1.7-10.54-9-14.66-6.52-2.33,1.38-1.62,4.89-4.23,11.83-2.1,5.6-4.39,8.22-5.44,10.24-7.09,13.64,26,49.64,35.25,53.72.76,8.93,3.13,16.58,8.71,19.39s10.11-1.34,15,2c5.83,4,2.64,12.12,7.2,28.92,2.58,9.5,5.15,15.39,10.4,19.55,5.89,4.67,15.89,4.8,20-1.52-2,4.36,2,9.54,6.61,10.7s9.47-.43,14-2c7.19-2.51,14.68-5.22,19.88-10.78,6.3-6.73,8.12-16.48,8.44-25.7.09-2.72.1-5.55,1.28-8,2.26-4.71,8-6.54,11.59-10.33C305.68,342.16,304,331.21,300,322.93Zm-22,11.85a13.45,13.45,0,0,1-5.82,2.16c-10.55,2.13-16,2.39-19.74-.11-5.49-3.64-8.67-12.24-5.77-16.33,1.76-2.48,5.56-2.56,13.17-2.7,8.64-.16,13-.25,16.1,2.83C279.73,324.37,281.38,332.08,278,334.79Z"/><path class="cls-1" d="M417.51,227.46c-1.78-.72-3.78.07-5.51.9a82.38,82.38,0,0,0-22.16,15.78c2.89-3.59,5.05-7.6,4.85-12.1-.37-8.16-8.7-13.93-16.78-15.12s-16.25.85-24.4,1.29a62.75,62.75,0,0,1-27.32-4.69c-3-1.24-6.09-2.76-9.31-2.43-2.77.28-5.21,1.89-7.52,3.46-23.79,16.1-22.45,17.28-24.73,20.34-8.35,11.2-13.67,26.56-9.86,29.58,2,1.57,4.75-1.49,8.14.13,6.23,3,3,16.14,7.8,18.44,2.09,1,6.13.15,14.78-8.74-3.31,8.16-5.95,17.35-3,25.64,3.41,9.51,13.07,15,22,19.75,13.52,7.13,28.31,14.49,43.38,11.91,11.4-2,21.24-9.54,28.12-18.84s11.12-20.25,14.84-31.2c5.15-15.19,9.47-30.89,9.68-46.92C420.57,231.89,420.08,228.5,417.51,227.46Zm-59.1,60.15c-3.88,3.62-12.82,1.52-16.18-3.18-3.89-5.45,1-12.47-3.81-18-2.59-2.95-5.48-2.6-5.72-4.58-.43-3.42,7.61-9.33,14.48-7.91,7.38,1.53,9.94,11,11.77,15.54C361.34,275.49,363.11,283.22,358.41,287.61Z"/><path class="cls-1" d="M416.14,161.84c-11.27,3.37-21.8,6.53-25.81,16.49-3.32,8.25-1.54,19.6,4,22.67,2.75,1.52,9.37,2.64,15.33,1.33,1.3-.29,2.69-.71,4,0,2.18,1.18.76,4.1,3.33,9.33a38.53,38.53,0,0,0,5.16,8.44,29.58,29.58,0,0,0,2.17,2.23c6.71,6.25,11.2,5.55,12.67,9.33.45,1.15-.12.85-.67,8.67-.42,6-.13,6.73.15,7.22,1.75,3.1,5.79,1.73,11.19,4.12,6.82,3,6.46,7.91,12,10.67,3.06,1.52,6,1.43,17.27-1.13,24.59-5.59,32.61-9.75,37.11-13.45,3.09-2.54,6.28-5.22,7.85-8.89,1.69-3.95,1.24-8.46.51-12.69-2.55-14.73-11.18-31.23-26.09-32.34-1.58-3,4.38-5.77,3.44-9-.55-1.94-3-2.37-4.82-3.26-5.67-2.78-5.44-10.92-3.7-17s3.92-13.29-.11-18.15a16.4,16.4,0,0,0-4.68-3.54C480,139.17,473,136.07,465.61,136s-15.22,3.34-18.55,9.94c6.09,8.49,3.09,20.47,6.6,30.32,5.7,16,26.92,22.66,31.69,38.94a6.6,6.6,0,0,1,.11,4.35c-.74,1.77-3.92,1-8.52.76-6.05-.32-7.6.26-9.94.06-13.71-1.19-24.4-27-25.33-29.33-3.27-8.11-4.91-12.16-5.89-18.4-.93-5.91-.5-8.9-2.89-11.09C429.11,158.05,422.07,160.07,416.14,161.84Z"/><path class="cls-1" d="M514.74,63.8C504.24,74,536,112.55,522.9,127.52a106.49,106.49,0,0,1-20.62,17.12c-1.35.82-4.2,2.49-5.27,5.7-1.53,4.57,1.5,9.5,3.33,12l14.49.36c21.8-10.58,31-9,35.23-5.38,5.28,4.53,1.35,10.89,7.61,23.68,2.69,5.51,8.28,16.91,19.86,23.09,6.07,3.24,13.46,5.57,15.9,11.55.67,1.64.86,3.49,1.79,5,1.9,3.1,6.47,3.69,9.7,2s5.28-5,6.56-8.4a31.71,31.71,0,0,0-5.94-31.69c-2.61-2.91-5.71-11-13-18.65-3.86-4-6.48-5.83-10.19-10.92-4.33-5.94-8-10.93-6.58-14.88,2-5.8,12.82-3.49,23.88-9.08,7.21-3.65,14.43-10.6,19.92-23.72-14.63-6.81-31.66-3.24-47.78-2.63-5.23.2-10.67,0-15.35-2.31S548,93,548.78,87.82c.42-2.9,2.13-5.55,2.13-8.48,0-5-5.42-8.49-8.24-10.4C535.31,63.94,520.4,58.3,514.74,63.8Z"/></svg>